G04 #@! TF.FileFunction,Legend,Top*
%FSLAX46Y46*%
G04 Gerber Fmt 4.6, Leading zero omitted, Abs format (unit mm)*
G04 Created by KiCad (PCBNEW 4.0.2+e4-6225~38~ubuntu14.04.1-stable) date Sa 25 Jun 2016 13:19:29 CEST*
%MOMM*%
G01*
G04 APERTURE LIST*
%ADD10C,0.100000*%
%ADD11C,0.200000*%
%ADD12C,0.300000*%
%ADD13C,0.150000*%
%ADD14C,0.500000*%
G04 APERTURE END LIST*
D10*
D11*
X59436000Y-46482000D02*
X59436000Y-46990000D01*
X30734000Y-36830000D02*
X30734000Y-46990000D01*
X36830000Y-36830000D02*
X30734000Y-36830000D01*
X37592000Y-36068000D02*
X36830000Y-36830000D01*
X53848000Y-36068000D02*
X37592000Y-36068000D01*
X54864000Y-37084000D02*
X53848000Y-36068000D01*
X59436000Y-44704000D02*
X59436000Y-46482000D01*
X58166000Y-43434000D02*
X59436000Y-44704000D01*
X54864000Y-43434000D02*
X58166000Y-43434000D01*
D12*
X31989250Y-45819143D02*
X31837465Y-45890571D01*
X31551751Y-45890571D01*
X31417821Y-45819143D01*
X31355322Y-45747714D01*
X31301750Y-45604857D01*
X31355321Y-45176286D01*
X31444607Y-45033429D01*
X31524964Y-44962000D01*
X31676751Y-44890571D01*
X31962465Y-44890571D01*
X32096393Y-44962000D01*
X32623179Y-45890571D02*
X32748179Y-44890571D01*
X32810679Y-44390571D02*
X32730321Y-44462000D01*
X32792821Y-44533429D01*
X32873178Y-44462000D01*
X32810679Y-44390571D01*
X32792821Y-44533429D01*
X33337465Y-45890571D02*
X33462465Y-44890571D01*
X33426750Y-45176286D02*
X33516035Y-45033429D01*
X33596393Y-44962000D01*
X33748179Y-44890571D01*
X33891036Y-44890571D01*
X34917821Y-45819143D02*
X34766036Y-45890571D01*
X34480322Y-45890571D01*
X34346392Y-45819143D01*
X34283893Y-45747714D01*
X34230321Y-45604857D01*
X34283892Y-45176286D01*
X34373178Y-45033429D01*
X34453535Y-44962000D01*
X34605322Y-44890571D01*
X34891036Y-44890571D01*
X35024964Y-44962000D01*
X36319607Y-44890571D02*
X36194607Y-45890571D01*
X35676750Y-44890571D02*
X35578535Y-45676286D01*
X35632106Y-45819143D01*
X35766036Y-45890571D01*
X35980321Y-45890571D01*
X36132106Y-45819143D01*
X36212464Y-45747714D01*
X36908893Y-45890571D02*
X37033893Y-44890571D01*
X37096393Y-44390571D02*
X37016035Y-44462000D01*
X37078535Y-44533429D01*
X37158892Y-44462000D01*
X37096393Y-44390571D01*
X37078535Y-44533429D01*
X37533893Y-44890571D02*
X38105322Y-44890571D01*
X37810679Y-44390571D02*
X37649964Y-45676286D01*
X37703535Y-45819143D01*
X37837465Y-45890571D01*
X37980322Y-45890571D01*
X39623179Y-45890571D02*
X39810679Y-44390571D01*
X39739250Y-44962000D02*
X39891036Y-44890571D01*
X40176750Y-44890571D01*
X40310678Y-44962000D01*
X40373178Y-45033429D01*
X40426750Y-45176286D01*
X40373179Y-45604857D01*
X40283893Y-45747714D01*
X40203535Y-45819143D01*
X40051750Y-45890571D01*
X39766036Y-45890571D01*
X39632107Y-45819143D01*
X40962465Y-44890571D02*
X41194608Y-45890571D01*
X41676750Y-44890571D02*
X41194608Y-45890571D01*
X41007107Y-46247714D01*
X40926750Y-46319143D01*
X40774965Y-46390571D01*
X43882107Y-44390571D02*
X43748178Y-45462000D01*
X43649964Y-45676286D01*
X43489250Y-45819143D01*
X43266036Y-45890571D01*
X43123179Y-45890571D01*
X45051750Y-45890571D02*
X45149964Y-45104857D01*
X45096392Y-44962000D01*
X44962464Y-44890571D01*
X44676750Y-44890571D01*
X44524964Y-44962000D01*
X45060678Y-45819143D02*
X44908893Y-45890571D01*
X44551750Y-45890571D01*
X44417821Y-45819143D01*
X44364249Y-45676286D01*
X44382106Y-45533429D01*
X44471393Y-45390571D01*
X44623178Y-45319143D01*
X44980321Y-45319143D01*
X45132107Y-45247714D01*
X46417821Y-45819143D02*
X46266036Y-45890571D01*
X45980322Y-45890571D01*
X45846392Y-45819143D01*
X45783893Y-45747714D01*
X45730321Y-45604857D01*
X45783892Y-45176286D01*
X45873178Y-45033429D01*
X45953535Y-44962000D01*
X46105322Y-44890571D01*
X46391036Y-44890571D01*
X46524964Y-44962000D01*
X47266036Y-45890571D02*
X47132106Y-45819143D01*
X47069607Y-45747714D01*
X47016035Y-45604857D01*
X47069606Y-45176286D01*
X47158892Y-45033429D01*
X47239249Y-44962000D01*
X47391036Y-44890571D01*
X47605321Y-44890571D01*
X47739249Y-44962000D01*
X47801749Y-45033429D01*
X47855321Y-45176286D01*
X47801750Y-45604857D01*
X47712464Y-45747714D01*
X47632106Y-45819143D01*
X47480321Y-45890571D01*
X47266036Y-45890571D01*
X48408893Y-45890571D02*
X48596393Y-44390571D01*
X48524964Y-44962000D02*
X48676750Y-44890571D01*
X48962464Y-44890571D01*
X49096392Y-44962000D01*
X49158892Y-45033429D01*
X49212464Y-45176286D01*
X49158893Y-45604857D01*
X49069607Y-45747714D01*
X48989249Y-45819143D01*
X48837464Y-45890571D01*
X48551750Y-45890571D01*
X48417821Y-45819143D01*
X50953536Y-44390571D02*
X51123179Y-45890571D01*
X51542821Y-44819143D01*
X51694607Y-45890571D01*
X52239250Y-44390571D01*
X53266036Y-45890571D02*
X53364250Y-45104857D01*
X53310678Y-44962000D01*
X53176750Y-44890571D01*
X52891036Y-44890571D01*
X52739250Y-44962000D01*
X53274964Y-45819143D02*
X53123179Y-45890571D01*
X52766036Y-45890571D01*
X52632107Y-45819143D01*
X52578535Y-45676286D01*
X52596392Y-45533429D01*
X52685679Y-45390571D01*
X52837464Y-45319143D01*
X53194607Y-45319143D01*
X53346393Y-45247714D01*
X53891036Y-44890571D02*
X54462465Y-44890571D01*
X54167822Y-44390571D02*
X54007107Y-45676286D01*
X54060678Y-45819143D01*
X54194608Y-45890571D01*
X54337465Y-45890571D01*
X54748179Y-44890571D02*
X55319608Y-44890571D01*
X55024965Y-44390571D02*
X54864250Y-45676286D01*
X54917821Y-45819143D01*
X55051751Y-45890571D01*
X55194608Y-45890571D01*
X56274964Y-45819143D02*
X56123179Y-45890571D01*
X55837465Y-45890571D01*
X55703536Y-45819143D01*
X55649964Y-45676286D01*
X55721393Y-45104857D01*
X55810679Y-44962000D01*
X55962465Y-44890571D01*
X56248179Y-44890571D01*
X56382107Y-44962000D01*
X56435679Y-45104857D01*
X56417822Y-45247714D01*
X55685679Y-45390571D01*
X56980322Y-45890571D02*
X57105322Y-44890571D01*
X57069607Y-45176286D02*
X57158892Y-45033429D01*
X57239250Y-44962000D01*
X57391036Y-44890571D01*
X57533893Y-44890571D01*
X57846392Y-45819143D02*
X57980321Y-45890571D01*
X58266036Y-45890571D01*
X58417821Y-45819143D01*
X58507106Y-45676286D01*
X58516035Y-45604857D01*
X58462464Y-45462000D01*
X58328536Y-45390571D01*
X58114250Y-45390571D01*
X57980321Y-45319143D01*
X57926749Y-45176286D01*
X57935678Y-45104857D01*
X58024964Y-44962000D01*
X58176750Y-44890571D01*
X58391036Y-44890571D01*
X58524964Y-44962000D01*
X125884857Y-113061714D02*
X125813429Y-113276000D01*
X125813429Y-113633143D01*
X125884857Y-113776000D01*
X125956286Y-113847429D01*
X126099143Y-113918857D01*
X126242000Y-113918857D01*
X126384857Y-113847429D01*
X126456286Y-113776000D01*
X126527714Y-113633143D01*
X126599143Y-113347429D01*
X126670571Y-113204571D01*
X126742000Y-113133143D01*
X126884857Y-113061714D01*
X127027714Y-113061714D01*
X127170571Y-113133143D01*
X127242000Y-113204571D01*
X127313429Y-113347429D01*
X127313429Y-113704571D01*
X127242000Y-113918857D01*
X126813429Y-114418857D02*
X125813429Y-114704571D01*
X126527714Y-114990285D01*
X125813429Y-115276000D01*
X126813429Y-115561714D01*
X125670571Y-115776000D02*
X125670571Y-116918857D01*
X126599143Y-117776000D02*
X126527714Y-117990286D01*
X126456286Y-118061714D01*
X126313429Y-118133143D01*
X126099143Y-118133143D01*
X125956286Y-118061714D01*
X125884857Y-117990286D01*
X125813429Y-117847428D01*
X125813429Y-117276000D01*
X127313429Y-117276000D01*
X127313429Y-117776000D01*
X127242000Y-117918857D01*
X127170571Y-117990286D01*
X127027714Y-118061714D01*
X126884857Y-118061714D01*
X126742000Y-117990286D01*
X126670571Y-117918857D01*
X126599143Y-117776000D01*
X126599143Y-117276000D01*
X123344857Y-113061714D02*
X123273429Y-113276000D01*
X123273429Y-113633143D01*
X123344857Y-113776000D01*
X123416286Y-113847429D01*
X123559143Y-113918857D01*
X123702000Y-113918857D01*
X123844857Y-113847429D01*
X123916286Y-113776000D01*
X123987714Y-113633143D01*
X124059143Y-113347429D01*
X124130571Y-113204571D01*
X124202000Y-113133143D01*
X124344857Y-113061714D01*
X124487714Y-113061714D01*
X124630571Y-113133143D01*
X124702000Y-113204571D01*
X124773429Y-113347429D01*
X124773429Y-113704571D01*
X124702000Y-113918857D01*
X124273429Y-114418857D02*
X123273429Y-114704571D01*
X123987714Y-114990285D01*
X123273429Y-115276000D01*
X124273429Y-115561714D01*
X123130571Y-115776000D02*
X123130571Y-116918857D01*
X123702000Y-117204571D02*
X123702000Y-117918857D01*
X123273429Y-117061714D02*
X124773429Y-117561714D01*
X123273429Y-118061714D01*
X120733429Y-113204571D02*
X120733429Y-113490286D01*
X120804857Y-113633143D01*
X120876286Y-113704571D01*
X121090571Y-113847429D01*
X121376286Y-113918857D01*
X121947714Y-113918857D01*
X122090571Y-113847429D01*
X122162000Y-113776000D01*
X122233429Y-113633143D01*
X122233429Y-113347429D01*
X122162000Y-113204571D01*
X122090571Y-113133143D01*
X121947714Y-113061714D01*
X121590571Y-113061714D01*
X121447714Y-113133143D01*
X121376286Y-113204571D01*
X121304857Y-113347429D01*
X121304857Y-113633143D01*
X121376286Y-113776000D01*
X121447714Y-113847429D01*
X121590571Y-113918857D01*
X122233429Y-114347428D02*
X120733429Y-114847428D01*
X122233429Y-115347428D01*
X119622000Y-113918857D02*
X119693429Y-113776000D01*
X119693429Y-113561714D01*
X119622000Y-113347429D01*
X119479143Y-113204571D01*
X119336286Y-113133143D01*
X119050571Y-113061714D01*
X118836286Y-113061714D01*
X118550571Y-113133143D01*
X118407714Y-113204571D01*
X118264857Y-113347429D01*
X118193429Y-113561714D01*
X118193429Y-113704571D01*
X118264857Y-113918857D01*
X118336286Y-113990286D01*
X118836286Y-113990286D01*
X118836286Y-113704571D01*
X118193429Y-114633143D02*
X119693429Y-114633143D01*
X118193429Y-115490286D01*
X119693429Y-115490286D01*
X118193429Y-116204572D02*
X119693429Y-116204572D01*
X119693429Y-116561715D01*
X119622000Y-116776000D01*
X119479143Y-116918858D01*
X119336286Y-116990286D01*
X119050571Y-117061715D01*
X118836286Y-117061715D01*
X118550571Y-116990286D01*
X118407714Y-116918858D01*
X118264857Y-116776000D01*
X118193429Y-116561715D01*
X118193429Y-116204572D01*
X99881429Y-113418857D02*
X99881429Y-113704571D01*
X99810000Y-113847429D01*
X99667143Y-113990286D01*
X99381429Y-114061714D01*
X98881429Y-114061714D01*
X98595714Y-113990286D01*
X98452857Y-113847429D01*
X98381429Y-113704571D01*
X98381429Y-113418857D01*
X98452857Y-113276000D01*
X98595714Y-113133143D01*
X98881429Y-113061714D01*
X99381429Y-113061714D01*
X99667143Y-113133143D01*
X99810000Y-113276000D01*
X99881429Y-113418857D01*
X99381429Y-115347429D02*
X98381429Y-115347429D01*
X99381429Y-114704572D02*
X98595714Y-114704572D01*
X98452857Y-114776000D01*
X98381429Y-114918858D01*
X98381429Y-115133143D01*
X98452857Y-115276000D01*
X98524286Y-115347429D01*
X99381429Y-115847429D02*
X99381429Y-116418858D01*
X99881429Y-116061715D02*
X98595714Y-116061715D01*
X98452857Y-116133143D01*
X98381429Y-116276001D01*
X98381429Y-116418858D01*
X98238571Y-116561715D02*
X98238571Y-117704572D01*
X99810000Y-118847429D02*
X99881429Y-118704572D01*
X99881429Y-118490286D01*
X99810000Y-118276001D01*
X99667143Y-118133143D01*
X99524286Y-118061715D01*
X99238571Y-117990286D01*
X99024286Y-117990286D01*
X98738571Y-118061715D01*
X98595714Y-118133143D01*
X98452857Y-118276001D01*
X98381429Y-118490286D01*
X98381429Y-118633143D01*
X98452857Y-118847429D01*
X98524286Y-118918858D01*
X99024286Y-118918858D01*
X99024286Y-118633143D01*
X97341429Y-113418857D02*
X97341429Y-113704571D01*
X97270000Y-113847429D01*
X97127143Y-113990286D01*
X96841429Y-114061714D01*
X96341429Y-114061714D01*
X96055714Y-113990286D01*
X95912857Y-113847429D01*
X95841429Y-113704571D01*
X95841429Y-113418857D01*
X95912857Y-113276000D01*
X96055714Y-113133143D01*
X96341429Y-113061714D01*
X96841429Y-113061714D01*
X97127143Y-113133143D01*
X97270000Y-113276000D01*
X97341429Y-113418857D01*
X96841429Y-115347429D02*
X95841429Y-115347429D01*
X96841429Y-114704572D02*
X96055714Y-114704572D01*
X95912857Y-114776000D01*
X95841429Y-114918858D01*
X95841429Y-115133143D01*
X95912857Y-115276000D01*
X95984286Y-115347429D01*
X96841429Y-115847429D02*
X96841429Y-116418858D01*
X97341429Y-116061715D02*
X96055714Y-116061715D01*
X95912857Y-116133143D01*
X95841429Y-116276001D01*
X95841429Y-116418858D01*
X94801429Y-112918857D02*
X93301429Y-113418857D01*
X94801429Y-113918857D01*
X93301429Y-114633143D02*
X93372857Y-114490285D01*
X93444286Y-114418857D01*
X93587143Y-114347428D01*
X94015714Y-114347428D01*
X94158571Y-114418857D01*
X94230000Y-114490285D01*
X94301429Y-114633143D01*
X94301429Y-114847428D01*
X94230000Y-114990285D01*
X94158571Y-115061714D01*
X94015714Y-115133143D01*
X93587143Y-115133143D01*
X93444286Y-115061714D01*
X93372857Y-114990285D01*
X93301429Y-114847428D01*
X93301429Y-114633143D01*
X93301429Y-115990286D02*
X93372857Y-115847428D01*
X93515714Y-115776000D01*
X94801429Y-115776000D01*
X93158571Y-116204571D02*
X93158571Y-117347428D01*
X93444286Y-118561714D02*
X93372857Y-118490285D01*
X93301429Y-118275999D01*
X93301429Y-118133142D01*
X93372857Y-117918857D01*
X93515714Y-117775999D01*
X93658571Y-117704571D01*
X93944286Y-117633142D01*
X94158571Y-117633142D01*
X94444286Y-117704571D01*
X94587143Y-117775999D01*
X94730000Y-117918857D01*
X94801429Y-118133142D01*
X94801429Y-118275999D01*
X94730000Y-118490285D01*
X94658571Y-118561714D01*
X92261429Y-112918857D02*
X90761429Y-113418857D01*
X92261429Y-113918857D01*
X90761429Y-114633143D02*
X90832857Y-114490285D01*
X90904286Y-114418857D01*
X91047143Y-114347428D01*
X91475714Y-114347428D01*
X91618571Y-114418857D01*
X91690000Y-114490285D01*
X91761429Y-114633143D01*
X91761429Y-114847428D01*
X91690000Y-114990285D01*
X91618571Y-115061714D01*
X91475714Y-115133143D01*
X91047143Y-115133143D01*
X90904286Y-115061714D01*
X90832857Y-114990285D01*
X90761429Y-114847428D01*
X90761429Y-114633143D01*
X90761429Y-115990286D02*
X90832857Y-115847428D01*
X90975714Y-115776000D01*
X92261429Y-115776000D01*
X90618571Y-116204571D02*
X90618571Y-117347428D01*
X91547143Y-118204571D02*
X91475714Y-118418857D01*
X91404286Y-118490285D01*
X91261429Y-118561714D01*
X91047143Y-118561714D01*
X90904286Y-118490285D01*
X90832857Y-118418857D01*
X90761429Y-118275999D01*
X90761429Y-117704571D01*
X92261429Y-117704571D01*
X92261429Y-118204571D01*
X92190000Y-118347428D01*
X92118571Y-118418857D01*
X91975714Y-118490285D01*
X91832857Y-118490285D01*
X91690000Y-118418857D01*
X91618571Y-118347428D01*
X91547143Y-118204571D01*
X91547143Y-117704571D01*
X89721429Y-112918857D02*
X88221429Y-113418857D01*
X89721429Y-113918857D01*
X88221429Y-114633143D02*
X88292857Y-114490285D01*
X88364286Y-114418857D01*
X88507143Y-114347428D01*
X88935714Y-114347428D01*
X89078571Y-114418857D01*
X89150000Y-114490285D01*
X89221429Y-114633143D01*
X89221429Y-114847428D01*
X89150000Y-114990285D01*
X89078571Y-115061714D01*
X88935714Y-115133143D01*
X88507143Y-115133143D01*
X88364286Y-115061714D01*
X88292857Y-114990285D01*
X88221429Y-114847428D01*
X88221429Y-114633143D01*
X88221429Y-115990286D02*
X88292857Y-115847428D01*
X88435714Y-115776000D01*
X89721429Y-115776000D01*
X88078571Y-116204571D02*
X88078571Y-117347428D01*
X88650000Y-117633142D02*
X88650000Y-118347428D01*
X88221429Y-117490285D02*
X89721429Y-117990285D01*
X88221429Y-118490285D01*
X77529429Y-113418857D02*
X77529429Y-113704571D01*
X77458000Y-113847429D01*
X77315143Y-113990286D01*
X77029429Y-114061714D01*
X76529429Y-114061714D01*
X76243714Y-113990286D01*
X76100857Y-113847429D01*
X76029429Y-113704571D01*
X76029429Y-113418857D01*
X76100857Y-113276000D01*
X76243714Y-113133143D01*
X76529429Y-113061714D01*
X77029429Y-113061714D01*
X77315143Y-113133143D01*
X77458000Y-113276000D01*
X77529429Y-113418857D01*
X77029429Y-115347429D02*
X76029429Y-115347429D01*
X77029429Y-114704572D02*
X76243714Y-114704572D01*
X76100857Y-114776000D01*
X76029429Y-114918858D01*
X76029429Y-115133143D01*
X76100857Y-115276000D01*
X76172286Y-115347429D01*
X77029429Y-115847429D02*
X77029429Y-116418858D01*
X77529429Y-116061715D02*
X76243714Y-116061715D01*
X76100857Y-116133143D01*
X76029429Y-116276001D01*
X76029429Y-116418858D01*
X75886571Y-116561715D02*
X75886571Y-117704572D01*
X76100857Y-117990286D02*
X76029429Y-118204572D01*
X76029429Y-118561715D01*
X76100857Y-118704572D01*
X76172286Y-118776001D01*
X76315143Y-118847429D01*
X76458000Y-118847429D01*
X76600857Y-118776001D01*
X76672286Y-118704572D01*
X76743714Y-118561715D01*
X76815143Y-118276001D01*
X76886571Y-118133143D01*
X76958000Y-118061715D01*
X77100857Y-117990286D01*
X77243714Y-117990286D01*
X77386571Y-118061715D01*
X77458000Y-118133143D01*
X77529429Y-118276001D01*
X77529429Y-118633143D01*
X77458000Y-118847429D01*
X74989429Y-113418857D02*
X74989429Y-113704571D01*
X74918000Y-113847429D01*
X74775143Y-113990286D01*
X74489429Y-114061714D01*
X73989429Y-114061714D01*
X73703714Y-113990286D01*
X73560857Y-113847429D01*
X73489429Y-113704571D01*
X73489429Y-113418857D01*
X73560857Y-113276000D01*
X73703714Y-113133143D01*
X73989429Y-113061714D01*
X74489429Y-113061714D01*
X74775143Y-113133143D01*
X74918000Y-113276000D01*
X74989429Y-113418857D01*
X74489429Y-115347429D02*
X73489429Y-115347429D01*
X74489429Y-114704572D02*
X73703714Y-114704572D01*
X73560857Y-114776000D01*
X73489429Y-114918858D01*
X73489429Y-115133143D01*
X73560857Y-115276000D01*
X73632286Y-115347429D01*
X74489429Y-115847429D02*
X74489429Y-116418858D01*
X74989429Y-116061715D02*
X73703714Y-116061715D01*
X73560857Y-116133143D01*
X73489429Y-116276001D01*
X73489429Y-116418858D01*
X73346571Y-116561715D02*
X73346571Y-117704572D01*
X74918000Y-118847429D02*
X74989429Y-118704572D01*
X74989429Y-118490286D01*
X74918000Y-118276001D01*
X74775143Y-118133143D01*
X74632286Y-118061715D01*
X74346571Y-117990286D01*
X74132286Y-117990286D01*
X73846571Y-118061715D01*
X73703714Y-118133143D01*
X73560857Y-118276001D01*
X73489429Y-118490286D01*
X73489429Y-118633143D01*
X73560857Y-118847429D01*
X73632286Y-118918858D01*
X74132286Y-118918858D01*
X74132286Y-118633143D01*
X72449429Y-113418857D02*
X72449429Y-113704571D01*
X72378000Y-113847429D01*
X72235143Y-113990286D01*
X71949429Y-114061714D01*
X71449429Y-114061714D01*
X71163714Y-113990286D01*
X71020857Y-113847429D01*
X70949429Y-113704571D01*
X70949429Y-113418857D01*
X71020857Y-113276000D01*
X71163714Y-113133143D01*
X71449429Y-113061714D01*
X71949429Y-113061714D01*
X72235143Y-113133143D01*
X72378000Y-113276000D01*
X72449429Y-113418857D01*
X71949429Y-115347429D02*
X70949429Y-115347429D01*
X71949429Y-114704572D02*
X71163714Y-114704572D01*
X71020857Y-114776000D01*
X70949429Y-114918858D01*
X70949429Y-115133143D01*
X71020857Y-115276000D01*
X71092286Y-115347429D01*
X71949429Y-115847429D02*
X71949429Y-116418858D01*
X72449429Y-116061715D02*
X71163714Y-116061715D01*
X71020857Y-116133143D01*
X70949429Y-116276001D01*
X70949429Y-116418858D01*
X69909429Y-112918857D02*
X68409429Y-113418857D01*
X69909429Y-113918857D01*
X68409429Y-114633143D02*
X68480857Y-114490285D01*
X68552286Y-114418857D01*
X68695143Y-114347428D01*
X69123714Y-114347428D01*
X69266571Y-114418857D01*
X69338000Y-114490285D01*
X69409429Y-114633143D01*
X69409429Y-114847428D01*
X69338000Y-114990285D01*
X69266571Y-115061714D01*
X69123714Y-115133143D01*
X68695143Y-115133143D01*
X68552286Y-115061714D01*
X68480857Y-114990285D01*
X68409429Y-114847428D01*
X68409429Y-114633143D01*
X68409429Y-115990286D02*
X68480857Y-115847428D01*
X68623714Y-115776000D01*
X69909429Y-115776000D01*
X68266571Y-116204571D02*
X68266571Y-117347428D01*
X68552286Y-118561714D02*
X68480857Y-118490285D01*
X68409429Y-118275999D01*
X68409429Y-118133142D01*
X68480857Y-117918857D01*
X68623714Y-117775999D01*
X68766571Y-117704571D01*
X69052286Y-117633142D01*
X69266571Y-117633142D01*
X69552286Y-117704571D01*
X69695143Y-117775999D01*
X69838000Y-117918857D01*
X69909429Y-118133142D01*
X69909429Y-118275999D01*
X69838000Y-118490285D01*
X69766571Y-118561714D01*
X67369429Y-112918857D02*
X65869429Y-113418857D01*
X67369429Y-113918857D01*
X65869429Y-114633143D02*
X65940857Y-114490285D01*
X66012286Y-114418857D01*
X66155143Y-114347428D01*
X66583714Y-114347428D01*
X66726571Y-114418857D01*
X66798000Y-114490285D01*
X66869429Y-114633143D01*
X66869429Y-114847428D01*
X66798000Y-114990285D01*
X66726571Y-115061714D01*
X66583714Y-115133143D01*
X66155143Y-115133143D01*
X66012286Y-115061714D01*
X65940857Y-114990285D01*
X65869429Y-114847428D01*
X65869429Y-114633143D01*
X65869429Y-115990286D02*
X65940857Y-115847428D01*
X66083714Y-115776000D01*
X67369429Y-115776000D01*
X65726571Y-116204571D02*
X65726571Y-117347428D01*
X66655143Y-118204571D02*
X66583714Y-118418857D01*
X66512286Y-118490285D01*
X66369429Y-118561714D01*
X66155143Y-118561714D01*
X66012286Y-118490285D01*
X65940857Y-118418857D01*
X65869429Y-118275999D01*
X65869429Y-117704571D01*
X67369429Y-117704571D01*
X67369429Y-118204571D01*
X67298000Y-118347428D01*
X67226571Y-118418857D01*
X67083714Y-118490285D01*
X66940857Y-118490285D01*
X66798000Y-118418857D01*
X66726571Y-118347428D01*
X66655143Y-118204571D01*
X66655143Y-117704571D01*
X64829429Y-112918857D02*
X63329429Y-113418857D01*
X64829429Y-113918857D01*
X63329429Y-114633143D02*
X63400857Y-114490285D01*
X63472286Y-114418857D01*
X63615143Y-114347428D01*
X64043714Y-114347428D01*
X64186571Y-114418857D01*
X64258000Y-114490285D01*
X64329429Y-114633143D01*
X64329429Y-114847428D01*
X64258000Y-114990285D01*
X64186571Y-115061714D01*
X64043714Y-115133143D01*
X63615143Y-115133143D01*
X63472286Y-115061714D01*
X63400857Y-114990285D01*
X63329429Y-114847428D01*
X63329429Y-114633143D01*
X63329429Y-115990286D02*
X63400857Y-115847428D01*
X63543714Y-115776000D01*
X64829429Y-115776000D01*
X63186571Y-116204571D02*
X63186571Y-117347428D01*
X63758000Y-117633142D02*
X63758000Y-118347428D01*
X63329429Y-117490285D02*
X64829429Y-117990285D01*
X63329429Y-118490285D01*
X62289429Y-113418857D02*
X62289429Y-113704571D01*
X62218000Y-113847429D01*
X62075143Y-113990286D01*
X61789429Y-114061714D01*
X61289429Y-114061714D01*
X61003714Y-113990286D01*
X60860857Y-113847429D01*
X60789429Y-113704571D01*
X60789429Y-113418857D01*
X60860857Y-113276000D01*
X61003714Y-113133143D01*
X61289429Y-113061714D01*
X61789429Y-113061714D01*
X62075143Y-113133143D01*
X62218000Y-113276000D01*
X62289429Y-113418857D01*
X61789429Y-114704572D02*
X60289429Y-114704572D01*
X61718000Y-114704572D02*
X61789429Y-114847429D01*
X61789429Y-115133143D01*
X61718000Y-115276000D01*
X61646571Y-115347429D01*
X61503714Y-115418858D01*
X61075143Y-115418858D01*
X60932286Y-115347429D01*
X60860857Y-115276000D01*
X60789429Y-115133143D01*
X60789429Y-114847429D01*
X60860857Y-114704572D01*
X60646571Y-115704572D02*
X60646571Y-116847429D01*
X60932286Y-118061715D02*
X60860857Y-117990286D01*
X60789429Y-117776000D01*
X60789429Y-117633143D01*
X60860857Y-117418858D01*
X61003714Y-117276000D01*
X61146571Y-117204572D01*
X61432286Y-117133143D01*
X61646571Y-117133143D01*
X61932286Y-117204572D01*
X62075143Y-117276000D01*
X62218000Y-117418858D01*
X62289429Y-117633143D01*
X62289429Y-117776000D01*
X62218000Y-117990286D01*
X62146571Y-118061715D01*
X59749429Y-113418857D02*
X59749429Y-113704571D01*
X59678000Y-113847429D01*
X59535143Y-113990286D01*
X59249429Y-114061714D01*
X58749429Y-114061714D01*
X58463714Y-113990286D01*
X58320857Y-113847429D01*
X58249429Y-113704571D01*
X58249429Y-113418857D01*
X58320857Y-113276000D01*
X58463714Y-113133143D01*
X58749429Y-113061714D01*
X59249429Y-113061714D01*
X59535143Y-113133143D01*
X59678000Y-113276000D01*
X59749429Y-113418857D01*
X59249429Y-114704572D02*
X57749429Y-114704572D01*
X59178000Y-114704572D02*
X59249429Y-114847429D01*
X59249429Y-115133143D01*
X59178000Y-115276000D01*
X59106571Y-115347429D01*
X58963714Y-115418858D01*
X58535143Y-115418858D01*
X58392286Y-115347429D01*
X58320857Y-115276000D01*
X58249429Y-115133143D01*
X58249429Y-114847429D01*
X58320857Y-114704572D01*
X58106571Y-115704572D02*
X58106571Y-116847429D01*
X58678000Y-117133143D02*
X58678000Y-117847429D01*
X58249429Y-116990286D02*
X59749429Y-117490286D01*
X58249429Y-117990286D01*
X59035143Y-118990286D02*
X58963714Y-119204572D01*
X58892286Y-119276000D01*
X58749429Y-119347429D01*
X58535143Y-119347429D01*
X58392286Y-119276000D01*
X58320857Y-119204572D01*
X58249429Y-119061714D01*
X58249429Y-118490286D01*
X59749429Y-118490286D01*
X59749429Y-118990286D01*
X59678000Y-119133143D01*
X59606571Y-119204572D01*
X59463714Y-119276000D01*
X59320857Y-119276000D01*
X59178000Y-119204572D01*
X59106571Y-119133143D01*
X59035143Y-118990286D01*
X59035143Y-118490286D01*
X55709429Y-113133143D02*
X57209429Y-113133143D01*
X57209429Y-113704571D01*
X57138000Y-113847429D01*
X57066571Y-113918857D01*
X56923714Y-113990286D01*
X56709429Y-113990286D01*
X56566571Y-113918857D01*
X56495143Y-113847429D01*
X56423714Y-113704571D01*
X56423714Y-113133143D01*
X55709429Y-114633143D02*
X56709429Y-114633143D01*
X57209429Y-114633143D02*
X57138000Y-114561714D01*
X57066571Y-114633143D01*
X57138000Y-114704571D01*
X57209429Y-114633143D01*
X57066571Y-114633143D01*
X56709429Y-115133143D02*
X56709429Y-115704572D01*
X57209429Y-115347429D02*
X55923714Y-115347429D01*
X55780857Y-115418857D01*
X55709429Y-115561715D01*
X55709429Y-115704572D01*
X55566571Y-115847429D02*
X55566571Y-116990286D01*
X55852286Y-118204572D02*
X55780857Y-118133143D01*
X55709429Y-117918857D01*
X55709429Y-117776000D01*
X55780857Y-117561715D01*
X55923714Y-117418857D01*
X56066571Y-117347429D01*
X56352286Y-117276000D01*
X56566571Y-117276000D01*
X56852286Y-117347429D01*
X56995143Y-117418857D01*
X57138000Y-117561715D01*
X57209429Y-117776000D01*
X57209429Y-117918857D01*
X57138000Y-118133143D01*
X57066571Y-118204572D01*
X53169429Y-113133143D02*
X54669429Y-113133143D01*
X54669429Y-113704571D01*
X54598000Y-113847429D01*
X54526571Y-113918857D01*
X54383714Y-113990286D01*
X54169429Y-113990286D01*
X54026571Y-113918857D01*
X53955143Y-113847429D01*
X53883714Y-113704571D01*
X53883714Y-113133143D01*
X53169429Y-114633143D02*
X54169429Y-114633143D01*
X54669429Y-114633143D02*
X54598000Y-114561714D01*
X54526571Y-114633143D01*
X54598000Y-114704571D01*
X54669429Y-114633143D01*
X54526571Y-114633143D01*
X54169429Y-115133143D02*
X54169429Y-115704572D01*
X54669429Y-115347429D02*
X53383714Y-115347429D01*
X53240857Y-115418857D01*
X53169429Y-115561715D01*
X53169429Y-115704572D01*
X53026571Y-115847429D02*
X53026571Y-116990286D01*
X53598000Y-117276000D02*
X53598000Y-117990286D01*
X53169429Y-117133143D02*
X54669429Y-117633143D01*
X53169429Y-118133143D01*
X53955143Y-119133143D02*
X53883714Y-119347429D01*
X53812286Y-119418857D01*
X53669429Y-119490286D01*
X53455143Y-119490286D01*
X53312286Y-119418857D01*
X53240857Y-119347429D01*
X53169429Y-119204571D01*
X53169429Y-118633143D01*
X54669429Y-118633143D01*
X54669429Y-119133143D01*
X54598000Y-119276000D01*
X54526571Y-119347429D01*
X54383714Y-119418857D01*
X54240857Y-119418857D01*
X54098000Y-119347429D01*
X54026571Y-119276000D01*
X53955143Y-119133143D01*
X53955143Y-118633143D01*
X52129429Y-112918857D02*
X52129429Y-113776000D01*
X50629429Y-113347429D02*
X52129429Y-113347429D01*
X50629429Y-114276000D02*
X51629429Y-114276000D01*
X51343714Y-114276000D02*
X51486571Y-114347428D01*
X51558000Y-114418857D01*
X51629429Y-114561714D01*
X51629429Y-114704571D01*
X50629429Y-115204571D02*
X51629429Y-115204571D01*
X52129429Y-115204571D02*
X52058000Y-115133142D01*
X51986571Y-115204571D01*
X52058000Y-115275999D01*
X52129429Y-115204571D01*
X51986571Y-115204571D01*
X51629429Y-116561714D02*
X50415143Y-116561714D01*
X50272286Y-116490285D01*
X50200857Y-116418857D01*
X50129429Y-116276000D01*
X50129429Y-116061714D01*
X50200857Y-115918857D01*
X50700857Y-116561714D02*
X50629429Y-116418857D01*
X50629429Y-116133143D01*
X50700857Y-115990285D01*
X50772286Y-115918857D01*
X50915143Y-115847428D01*
X51343714Y-115847428D01*
X51486571Y-115918857D01*
X51558000Y-115990285D01*
X51629429Y-116133143D01*
X51629429Y-116418857D01*
X51558000Y-116561714D01*
X50486571Y-116918857D02*
X50486571Y-118061714D01*
X52058000Y-119204571D02*
X52129429Y-119061714D01*
X52129429Y-118847428D01*
X52058000Y-118633143D01*
X51915143Y-118490285D01*
X51772286Y-118418857D01*
X51486571Y-118347428D01*
X51272286Y-118347428D01*
X50986571Y-118418857D01*
X50843714Y-118490285D01*
X50700857Y-118633143D01*
X50629429Y-118847428D01*
X50629429Y-118990285D01*
X50700857Y-119204571D01*
X50772286Y-119276000D01*
X51272286Y-119276000D01*
X51272286Y-118990285D01*
X49589429Y-112918857D02*
X49589429Y-113776000D01*
X48089429Y-113347429D02*
X49589429Y-113347429D01*
X48089429Y-114276000D02*
X49089429Y-114276000D01*
X48803714Y-114276000D02*
X48946571Y-114347428D01*
X49018000Y-114418857D01*
X49089429Y-114561714D01*
X49089429Y-114704571D01*
X48089429Y-115204571D02*
X49089429Y-115204571D01*
X49589429Y-115204571D02*
X49518000Y-115133142D01*
X49446571Y-115204571D01*
X49518000Y-115275999D01*
X49589429Y-115204571D01*
X49446571Y-115204571D01*
X49089429Y-116561714D02*
X47875143Y-116561714D01*
X47732286Y-116490285D01*
X47660857Y-116418857D01*
X47589429Y-116276000D01*
X47589429Y-116061714D01*
X47660857Y-115918857D01*
X48160857Y-116561714D02*
X48089429Y-116418857D01*
X48089429Y-116133143D01*
X48160857Y-115990285D01*
X48232286Y-115918857D01*
X48375143Y-115847428D01*
X48803714Y-115847428D01*
X48946571Y-115918857D01*
X49018000Y-115990285D01*
X49089429Y-116133143D01*
X49089429Y-116418857D01*
X49018000Y-116561714D01*
X47946571Y-116918857D02*
X47946571Y-118061714D01*
X48089429Y-118418857D02*
X49589429Y-118418857D01*
X49089429Y-119133143D02*
X48089429Y-119133143D01*
X48946571Y-119133143D02*
X49018000Y-119204571D01*
X49089429Y-119347429D01*
X49089429Y-119561714D01*
X49018000Y-119704571D01*
X48875143Y-119776000D01*
X48089429Y-119776000D01*
X111867143Y-36417143D02*
X111795714Y-36631429D01*
X111724286Y-36702857D01*
X111581429Y-36774286D01*
X111367143Y-36774286D01*
X111224286Y-36702857D01*
X111152857Y-36631429D01*
X111081429Y-36488571D01*
X111081429Y-35917143D01*
X112581429Y-35917143D01*
X112581429Y-36417143D01*
X112510000Y-36560000D01*
X112438571Y-36631429D01*
X112295714Y-36702857D01*
X112152857Y-36702857D01*
X112010000Y-36631429D01*
X111938571Y-36560000D01*
X111867143Y-36417143D01*
X111867143Y-35917143D01*
X111152857Y-37345714D02*
X111081429Y-37488571D01*
X111081429Y-37774286D01*
X111152857Y-37917143D01*
X111295714Y-37988571D01*
X111367143Y-37988571D01*
X111510000Y-37917143D01*
X111581429Y-37774286D01*
X111581429Y-37560000D01*
X111652857Y-37417143D01*
X111795714Y-37345714D01*
X111867143Y-37345714D01*
X112010000Y-37417143D01*
X112081429Y-37560000D01*
X112081429Y-37774286D01*
X112010000Y-37917143D01*
X110938571Y-38274286D02*
X110938571Y-39417143D01*
X111224286Y-40631429D02*
X111152857Y-40560000D01*
X111081429Y-40345714D01*
X111081429Y-40202857D01*
X111152857Y-39988572D01*
X111295714Y-39845714D01*
X111438571Y-39774286D01*
X111724286Y-39702857D01*
X111938571Y-39702857D01*
X112224286Y-39774286D01*
X112367143Y-39845714D01*
X112510000Y-39988572D01*
X112581429Y-40202857D01*
X112581429Y-40345714D01*
X112510000Y-40560000D01*
X112438571Y-40631429D01*
X109327143Y-36417143D02*
X109255714Y-36631429D01*
X109184286Y-36702857D01*
X109041429Y-36774286D01*
X108827143Y-36774286D01*
X108684286Y-36702857D01*
X108612857Y-36631429D01*
X108541429Y-36488571D01*
X108541429Y-35917143D01*
X110041429Y-35917143D01*
X110041429Y-36417143D01*
X109970000Y-36560000D01*
X109898571Y-36631429D01*
X109755714Y-36702857D01*
X109612857Y-36702857D01*
X109470000Y-36631429D01*
X109398571Y-36560000D01*
X109327143Y-36417143D01*
X109327143Y-35917143D01*
X108612857Y-37345714D02*
X108541429Y-37488571D01*
X108541429Y-37774286D01*
X108612857Y-37917143D01*
X108755714Y-37988571D01*
X108827143Y-37988571D01*
X108970000Y-37917143D01*
X109041429Y-37774286D01*
X109041429Y-37560000D01*
X109112857Y-37417143D01*
X109255714Y-37345714D01*
X109327143Y-37345714D01*
X109470000Y-37417143D01*
X109541429Y-37560000D01*
X109541429Y-37774286D01*
X109470000Y-37917143D01*
X108398571Y-38274286D02*
X108398571Y-39417143D01*
X108970000Y-39702857D02*
X108970000Y-40417143D01*
X108541429Y-39560000D02*
X110041429Y-40060000D01*
X108541429Y-40560000D01*
X109327143Y-41560000D02*
X109255714Y-41774286D01*
X109184286Y-41845714D01*
X109041429Y-41917143D01*
X108827143Y-41917143D01*
X108684286Y-41845714D01*
X108612857Y-41774286D01*
X108541429Y-41631428D01*
X108541429Y-41060000D01*
X110041429Y-41060000D01*
X110041429Y-41560000D01*
X109970000Y-41702857D01*
X109898571Y-41774286D01*
X109755714Y-41845714D01*
X109612857Y-41845714D01*
X109470000Y-41774286D01*
X109398571Y-41702857D01*
X109327143Y-41560000D01*
X109327143Y-41060000D01*
X127821429Y-36202857D02*
X127821429Y-36488571D01*
X127750000Y-36631429D01*
X127607143Y-36774286D01*
X127321429Y-36845714D01*
X126821429Y-36845714D01*
X126535714Y-36774286D01*
X126392857Y-36631429D01*
X126321429Y-36488571D01*
X126321429Y-36202857D01*
X126392857Y-36060000D01*
X126535714Y-35917143D01*
X126821429Y-35845714D01*
X127321429Y-35845714D01*
X127607143Y-35917143D01*
X127750000Y-36060000D01*
X127821429Y-36202857D01*
X127321429Y-38131429D02*
X126321429Y-38131429D01*
X127321429Y-37488572D02*
X126535714Y-37488572D01*
X126392857Y-37560000D01*
X126321429Y-37702858D01*
X126321429Y-37917143D01*
X126392857Y-38060000D01*
X126464286Y-38131429D01*
X127321429Y-38631429D02*
X127321429Y-39202858D01*
X127821429Y-38845715D02*
X126535714Y-38845715D01*
X126392857Y-38917143D01*
X126321429Y-39060001D01*
X126321429Y-39202858D01*
X126178571Y-39345715D02*
X126178571Y-40488572D01*
X126392857Y-40774286D02*
X126321429Y-40988572D01*
X126321429Y-41345715D01*
X126392857Y-41488572D01*
X126464286Y-41560001D01*
X126607143Y-41631429D01*
X126750000Y-41631429D01*
X126892857Y-41560001D01*
X126964286Y-41488572D01*
X127035714Y-41345715D01*
X127107143Y-41060001D01*
X127178571Y-40917143D01*
X127250000Y-40845715D01*
X127392857Y-40774286D01*
X127535714Y-40774286D01*
X127678571Y-40845715D01*
X127750000Y-40917143D01*
X127821429Y-41060001D01*
X127821429Y-41417143D01*
X127750000Y-41631429D01*
X125281429Y-36202857D02*
X125281429Y-36488571D01*
X125210000Y-36631429D01*
X125067143Y-36774286D01*
X124781429Y-36845714D01*
X124281429Y-36845714D01*
X123995714Y-36774286D01*
X123852857Y-36631429D01*
X123781429Y-36488571D01*
X123781429Y-36202857D01*
X123852857Y-36060000D01*
X123995714Y-35917143D01*
X124281429Y-35845714D01*
X124781429Y-35845714D01*
X125067143Y-35917143D01*
X125210000Y-36060000D01*
X125281429Y-36202857D01*
X124781429Y-38131429D02*
X123781429Y-38131429D01*
X124781429Y-37488572D02*
X123995714Y-37488572D01*
X123852857Y-37560000D01*
X123781429Y-37702858D01*
X123781429Y-37917143D01*
X123852857Y-38060000D01*
X123924286Y-38131429D01*
X124781429Y-38631429D02*
X124781429Y-39202858D01*
X125281429Y-38845715D02*
X123995714Y-38845715D01*
X123852857Y-38917143D01*
X123781429Y-39060001D01*
X123781429Y-39202858D01*
X123638571Y-39345715D02*
X123638571Y-40488572D01*
X125210000Y-41631429D02*
X125281429Y-41488572D01*
X125281429Y-41274286D01*
X125210000Y-41060001D01*
X125067143Y-40917143D01*
X124924286Y-40845715D01*
X124638571Y-40774286D01*
X124424286Y-40774286D01*
X124138571Y-40845715D01*
X123995714Y-40917143D01*
X123852857Y-41060001D01*
X123781429Y-41274286D01*
X123781429Y-41417143D01*
X123852857Y-41631429D01*
X123924286Y-41702858D01*
X124424286Y-41702858D01*
X124424286Y-41417143D01*
X122741429Y-36202857D02*
X122741429Y-36488571D01*
X122670000Y-36631429D01*
X122527143Y-36774286D01*
X122241429Y-36845714D01*
X121741429Y-36845714D01*
X121455714Y-36774286D01*
X121312857Y-36631429D01*
X121241429Y-36488571D01*
X121241429Y-36202857D01*
X121312857Y-36060000D01*
X121455714Y-35917143D01*
X121741429Y-35845714D01*
X122241429Y-35845714D01*
X122527143Y-35917143D01*
X122670000Y-36060000D01*
X122741429Y-36202857D01*
X122241429Y-38131429D02*
X121241429Y-38131429D01*
X122241429Y-37488572D02*
X121455714Y-37488572D01*
X121312857Y-37560000D01*
X121241429Y-37702858D01*
X121241429Y-37917143D01*
X121312857Y-38060000D01*
X121384286Y-38131429D01*
X122241429Y-38631429D02*
X122241429Y-39202858D01*
X122741429Y-38845715D02*
X121455714Y-38845715D01*
X121312857Y-38917143D01*
X121241429Y-39060001D01*
X121241429Y-39202858D01*
X120201429Y-35702857D02*
X118701429Y-36202857D01*
X120201429Y-36702857D01*
X118701429Y-37417143D02*
X118772857Y-37274285D01*
X118844286Y-37202857D01*
X118987143Y-37131428D01*
X119415714Y-37131428D01*
X119558571Y-37202857D01*
X119630000Y-37274285D01*
X119701429Y-37417143D01*
X119701429Y-37631428D01*
X119630000Y-37774285D01*
X119558571Y-37845714D01*
X119415714Y-37917143D01*
X118987143Y-37917143D01*
X118844286Y-37845714D01*
X118772857Y-37774285D01*
X118701429Y-37631428D01*
X118701429Y-37417143D01*
X118701429Y-38774286D02*
X118772857Y-38631428D01*
X118915714Y-38560000D01*
X120201429Y-38560000D01*
X118558571Y-38988571D02*
X118558571Y-40131428D01*
X118844286Y-41345714D02*
X118772857Y-41274285D01*
X118701429Y-41059999D01*
X118701429Y-40917142D01*
X118772857Y-40702857D01*
X118915714Y-40559999D01*
X119058571Y-40488571D01*
X119344286Y-40417142D01*
X119558571Y-40417142D01*
X119844286Y-40488571D01*
X119987143Y-40559999D01*
X120130000Y-40702857D01*
X120201429Y-40917142D01*
X120201429Y-41059999D01*
X120130000Y-41274285D01*
X120058571Y-41345714D01*
X117661429Y-35702857D02*
X116161429Y-36202857D01*
X117661429Y-36702857D01*
X116161429Y-37417143D02*
X116232857Y-37274285D01*
X116304286Y-37202857D01*
X116447143Y-37131428D01*
X116875714Y-37131428D01*
X117018571Y-37202857D01*
X117090000Y-37274285D01*
X117161429Y-37417143D01*
X117161429Y-37631428D01*
X117090000Y-37774285D01*
X117018571Y-37845714D01*
X116875714Y-37917143D01*
X116447143Y-37917143D01*
X116304286Y-37845714D01*
X116232857Y-37774285D01*
X116161429Y-37631428D01*
X116161429Y-37417143D01*
X116161429Y-38774286D02*
X116232857Y-38631428D01*
X116375714Y-38560000D01*
X117661429Y-38560000D01*
X116018571Y-38988571D02*
X116018571Y-40131428D01*
X116947143Y-40988571D02*
X116875714Y-41202857D01*
X116804286Y-41274285D01*
X116661429Y-41345714D01*
X116447143Y-41345714D01*
X116304286Y-41274285D01*
X116232857Y-41202857D01*
X116161429Y-41059999D01*
X116161429Y-40488571D01*
X117661429Y-40488571D01*
X117661429Y-40988571D01*
X117590000Y-41131428D01*
X117518571Y-41202857D01*
X117375714Y-41274285D01*
X117232857Y-41274285D01*
X117090000Y-41202857D01*
X117018571Y-41131428D01*
X116947143Y-40988571D01*
X116947143Y-40488571D01*
X115121429Y-35702857D02*
X113621429Y-36202857D01*
X115121429Y-36702857D01*
X113621429Y-37417143D02*
X113692857Y-37274285D01*
X113764286Y-37202857D01*
X113907143Y-37131428D01*
X114335714Y-37131428D01*
X114478571Y-37202857D01*
X114550000Y-37274285D01*
X114621429Y-37417143D01*
X114621429Y-37631428D01*
X114550000Y-37774285D01*
X114478571Y-37845714D01*
X114335714Y-37917143D01*
X113907143Y-37917143D01*
X113764286Y-37845714D01*
X113692857Y-37774285D01*
X113621429Y-37631428D01*
X113621429Y-37417143D01*
X113621429Y-38774286D02*
X113692857Y-38631428D01*
X113835714Y-38560000D01*
X115121429Y-38560000D01*
X113478571Y-38988571D02*
X113478571Y-40131428D01*
X114050000Y-40417142D02*
X114050000Y-41131428D01*
X113621429Y-40274285D02*
X115121429Y-40774285D01*
X113621429Y-41274285D01*
X106001429Y-35917143D02*
X107501429Y-35917143D01*
X107501429Y-36488571D01*
X107430000Y-36631429D01*
X107358571Y-36702857D01*
X107215714Y-36774286D01*
X107001429Y-36774286D01*
X106858571Y-36702857D01*
X106787143Y-36631429D01*
X106715714Y-36488571D01*
X106715714Y-35917143D01*
X106001429Y-37417143D02*
X107001429Y-37417143D01*
X107501429Y-37417143D02*
X107430000Y-37345714D01*
X107358571Y-37417143D01*
X107430000Y-37488571D01*
X107501429Y-37417143D01*
X107358571Y-37417143D01*
X107001429Y-37917143D02*
X107001429Y-38488572D01*
X107501429Y-38131429D02*
X106215714Y-38131429D01*
X106072857Y-38202857D01*
X106001429Y-38345715D01*
X106001429Y-38488572D01*
X105858571Y-38631429D02*
X105858571Y-39774286D01*
X106144286Y-40988572D02*
X106072857Y-40917143D01*
X106001429Y-40702857D01*
X106001429Y-40560000D01*
X106072857Y-40345715D01*
X106215714Y-40202857D01*
X106358571Y-40131429D01*
X106644286Y-40060000D01*
X106858571Y-40060000D01*
X107144286Y-40131429D01*
X107287143Y-40202857D01*
X107430000Y-40345715D01*
X107501429Y-40560000D01*
X107501429Y-40702857D01*
X107430000Y-40917143D01*
X107358571Y-40988572D01*
X103461429Y-35917143D02*
X104961429Y-35917143D01*
X104961429Y-36488571D01*
X104890000Y-36631429D01*
X104818571Y-36702857D01*
X104675714Y-36774286D01*
X104461429Y-36774286D01*
X104318571Y-36702857D01*
X104247143Y-36631429D01*
X104175714Y-36488571D01*
X104175714Y-35917143D01*
X103461429Y-37417143D02*
X104461429Y-37417143D01*
X104961429Y-37417143D02*
X104890000Y-37345714D01*
X104818571Y-37417143D01*
X104890000Y-37488571D01*
X104961429Y-37417143D01*
X104818571Y-37417143D01*
X104461429Y-37917143D02*
X104461429Y-38488572D01*
X104961429Y-38131429D02*
X103675714Y-38131429D01*
X103532857Y-38202857D01*
X103461429Y-38345715D01*
X103461429Y-38488572D01*
X103318571Y-38631429D02*
X103318571Y-39774286D01*
X103890000Y-40060000D02*
X103890000Y-40774286D01*
X103461429Y-39917143D02*
X104961429Y-40417143D01*
X103461429Y-40917143D01*
X104247143Y-41917143D02*
X104175714Y-42131429D01*
X104104286Y-42202857D01*
X103961429Y-42274286D01*
X103747143Y-42274286D01*
X103604286Y-42202857D01*
X103532857Y-42131429D01*
X103461429Y-41988571D01*
X103461429Y-41417143D01*
X104961429Y-41417143D01*
X104961429Y-41917143D01*
X104890000Y-42060000D01*
X104818571Y-42131429D01*
X104675714Y-42202857D01*
X104532857Y-42202857D01*
X104390000Y-42131429D01*
X104318571Y-42060000D01*
X104247143Y-41917143D01*
X104247143Y-41417143D01*
X102421429Y-35702857D02*
X102421429Y-36560000D01*
X100921429Y-36131429D02*
X102421429Y-36131429D01*
X100921429Y-37060000D02*
X101921429Y-37060000D01*
X101635714Y-37060000D02*
X101778571Y-37131428D01*
X101850000Y-37202857D01*
X101921429Y-37345714D01*
X101921429Y-37488571D01*
X100921429Y-37988571D02*
X101921429Y-37988571D01*
X102421429Y-37988571D02*
X102350000Y-37917142D01*
X102278571Y-37988571D01*
X102350000Y-38059999D01*
X102421429Y-37988571D01*
X102278571Y-37988571D01*
X101921429Y-39345714D02*
X100707143Y-39345714D01*
X100564286Y-39274285D01*
X100492857Y-39202857D01*
X100421429Y-39060000D01*
X100421429Y-38845714D01*
X100492857Y-38702857D01*
X100992857Y-39345714D02*
X100921429Y-39202857D01*
X100921429Y-38917143D01*
X100992857Y-38774285D01*
X101064286Y-38702857D01*
X101207143Y-38631428D01*
X101635714Y-38631428D01*
X101778571Y-38702857D01*
X101850000Y-38774285D01*
X101921429Y-38917143D01*
X101921429Y-39202857D01*
X101850000Y-39345714D01*
X100778571Y-39702857D02*
X100778571Y-40845714D01*
X102350000Y-41988571D02*
X102421429Y-41845714D01*
X102421429Y-41631428D01*
X102350000Y-41417143D01*
X102207143Y-41274285D01*
X102064286Y-41202857D01*
X101778571Y-41131428D01*
X101564286Y-41131428D01*
X101278571Y-41202857D01*
X101135714Y-41274285D01*
X100992857Y-41417143D01*
X100921429Y-41631428D01*
X100921429Y-41774285D01*
X100992857Y-41988571D01*
X101064286Y-42060000D01*
X101564286Y-42060000D01*
X101564286Y-41774285D01*
X99881429Y-35702857D02*
X99881429Y-36560000D01*
X98381429Y-36131429D02*
X99881429Y-36131429D01*
X98381429Y-37060000D02*
X99381429Y-37060000D01*
X99095714Y-37060000D02*
X99238571Y-37131428D01*
X99310000Y-37202857D01*
X99381429Y-37345714D01*
X99381429Y-37488571D01*
X98381429Y-37988571D02*
X99381429Y-37988571D01*
X99881429Y-37988571D02*
X99810000Y-37917142D01*
X99738571Y-37988571D01*
X99810000Y-38059999D01*
X99881429Y-37988571D01*
X99738571Y-37988571D01*
X99381429Y-39345714D02*
X98167143Y-39345714D01*
X98024286Y-39274285D01*
X97952857Y-39202857D01*
X97881429Y-39060000D01*
X97881429Y-38845714D01*
X97952857Y-38702857D01*
X98452857Y-39345714D02*
X98381429Y-39202857D01*
X98381429Y-38917143D01*
X98452857Y-38774285D01*
X98524286Y-38702857D01*
X98667143Y-38631428D01*
X99095714Y-38631428D01*
X99238571Y-38702857D01*
X99310000Y-38774285D01*
X99381429Y-38917143D01*
X99381429Y-39202857D01*
X99310000Y-39345714D01*
X98238571Y-39702857D02*
X98238571Y-40845714D01*
X98381429Y-41202857D02*
X99881429Y-41202857D01*
X99381429Y-41917143D02*
X98381429Y-41917143D01*
X99238571Y-41917143D02*
X99310000Y-41988571D01*
X99381429Y-42131429D01*
X99381429Y-42345714D01*
X99310000Y-42488571D01*
X99167143Y-42560000D01*
X98381429Y-42560000D01*
X84133429Y-36202857D02*
X84133429Y-36488571D01*
X84062000Y-36631429D01*
X83919143Y-36774286D01*
X83633429Y-36845714D01*
X83133429Y-36845714D01*
X82847714Y-36774286D01*
X82704857Y-36631429D01*
X82633429Y-36488571D01*
X82633429Y-36202857D01*
X82704857Y-36060000D01*
X82847714Y-35917143D01*
X83133429Y-35845714D01*
X83633429Y-35845714D01*
X83919143Y-35917143D01*
X84062000Y-36060000D01*
X84133429Y-36202857D01*
X83633429Y-38131429D02*
X82633429Y-38131429D01*
X83633429Y-37488572D02*
X82847714Y-37488572D01*
X82704857Y-37560000D01*
X82633429Y-37702858D01*
X82633429Y-37917143D01*
X82704857Y-38060000D01*
X82776286Y-38131429D01*
X83633429Y-38631429D02*
X83633429Y-39202858D01*
X84133429Y-38845715D02*
X82847714Y-38845715D01*
X82704857Y-38917143D01*
X82633429Y-39060001D01*
X82633429Y-39202858D01*
X82490571Y-39345715D02*
X82490571Y-40488572D01*
X82704857Y-40774286D02*
X82633429Y-40988572D01*
X82633429Y-41345715D01*
X82704857Y-41488572D01*
X82776286Y-41560001D01*
X82919143Y-41631429D01*
X83062000Y-41631429D01*
X83204857Y-41560001D01*
X83276286Y-41488572D01*
X83347714Y-41345715D01*
X83419143Y-41060001D01*
X83490571Y-40917143D01*
X83562000Y-40845715D01*
X83704857Y-40774286D01*
X83847714Y-40774286D01*
X83990571Y-40845715D01*
X84062000Y-40917143D01*
X84133429Y-41060001D01*
X84133429Y-41417143D01*
X84062000Y-41631429D01*
X81593429Y-36202857D02*
X81593429Y-36488571D01*
X81522000Y-36631429D01*
X81379143Y-36774286D01*
X81093429Y-36845714D01*
X80593429Y-36845714D01*
X80307714Y-36774286D01*
X80164857Y-36631429D01*
X80093429Y-36488571D01*
X80093429Y-36202857D01*
X80164857Y-36060000D01*
X80307714Y-35917143D01*
X80593429Y-35845714D01*
X81093429Y-35845714D01*
X81379143Y-35917143D01*
X81522000Y-36060000D01*
X81593429Y-36202857D01*
X81093429Y-38131429D02*
X80093429Y-38131429D01*
X81093429Y-37488572D02*
X80307714Y-37488572D01*
X80164857Y-37560000D01*
X80093429Y-37702858D01*
X80093429Y-37917143D01*
X80164857Y-38060000D01*
X80236286Y-38131429D01*
X81093429Y-38631429D02*
X81093429Y-39202858D01*
X81593429Y-38845715D02*
X80307714Y-38845715D01*
X80164857Y-38917143D01*
X80093429Y-39060001D01*
X80093429Y-39202858D01*
X79950571Y-39345715D02*
X79950571Y-40488572D01*
X81522000Y-41631429D02*
X81593429Y-41488572D01*
X81593429Y-41274286D01*
X81522000Y-41060001D01*
X81379143Y-40917143D01*
X81236286Y-40845715D01*
X80950571Y-40774286D01*
X80736286Y-40774286D01*
X80450571Y-40845715D01*
X80307714Y-40917143D01*
X80164857Y-41060001D01*
X80093429Y-41274286D01*
X80093429Y-41417143D01*
X80164857Y-41631429D01*
X80236286Y-41702858D01*
X80736286Y-41702858D01*
X80736286Y-41417143D01*
X79053429Y-36202857D02*
X79053429Y-36488571D01*
X78982000Y-36631429D01*
X78839143Y-36774286D01*
X78553429Y-36845714D01*
X78053429Y-36845714D01*
X77767714Y-36774286D01*
X77624857Y-36631429D01*
X77553429Y-36488571D01*
X77553429Y-36202857D01*
X77624857Y-36060000D01*
X77767714Y-35917143D01*
X78053429Y-35845714D01*
X78553429Y-35845714D01*
X78839143Y-35917143D01*
X78982000Y-36060000D01*
X79053429Y-36202857D01*
X78553429Y-38131429D02*
X77553429Y-38131429D01*
X78553429Y-37488572D02*
X77767714Y-37488572D01*
X77624857Y-37560000D01*
X77553429Y-37702858D01*
X77553429Y-37917143D01*
X77624857Y-38060000D01*
X77696286Y-38131429D01*
X78553429Y-38631429D02*
X78553429Y-39202858D01*
X79053429Y-38845715D02*
X77767714Y-38845715D01*
X77624857Y-38917143D01*
X77553429Y-39060001D01*
X77553429Y-39202858D01*
X76513429Y-35702857D02*
X75013429Y-36202857D01*
X76513429Y-36702857D01*
X75013429Y-37417143D02*
X75084857Y-37274285D01*
X75156286Y-37202857D01*
X75299143Y-37131428D01*
X75727714Y-37131428D01*
X75870571Y-37202857D01*
X75942000Y-37274285D01*
X76013429Y-37417143D01*
X76013429Y-37631428D01*
X75942000Y-37774285D01*
X75870571Y-37845714D01*
X75727714Y-37917143D01*
X75299143Y-37917143D01*
X75156286Y-37845714D01*
X75084857Y-37774285D01*
X75013429Y-37631428D01*
X75013429Y-37417143D01*
X75013429Y-38774286D02*
X75084857Y-38631428D01*
X75227714Y-38560000D01*
X76513429Y-38560000D01*
X74870571Y-38988571D02*
X74870571Y-40131428D01*
X75156286Y-41345714D02*
X75084857Y-41274285D01*
X75013429Y-41059999D01*
X75013429Y-40917142D01*
X75084857Y-40702857D01*
X75227714Y-40559999D01*
X75370571Y-40488571D01*
X75656286Y-40417142D01*
X75870571Y-40417142D01*
X76156286Y-40488571D01*
X76299143Y-40559999D01*
X76442000Y-40702857D01*
X76513429Y-40917142D01*
X76513429Y-41059999D01*
X76442000Y-41274285D01*
X76370571Y-41345714D01*
X73973429Y-35702857D02*
X72473429Y-36202857D01*
X73973429Y-36702857D01*
X72473429Y-37417143D02*
X72544857Y-37274285D01*
X72616286Y-37202857D01*
X72759143Y-37131428D01*
X73187714Y-37131428D01*
X73330571Y-37202857D01*
X73402000Y-37274285D01*
X73473429Y-37417143D01*
X73473429Y-37631428D01*
X73402000Y-37774285D01*
X73330571Y-37845714D01*
X73187714Y-37917143D01*
X72759143Y-37917143D01*
X72616286Y-37845714D01*
X72544857Y-37774285D01*
X72473429Y-37631428D01*
X72473429Y-37417143D01*
X72473429Y-38774286D02*
X72544857Y-38631428D01*
X72687714Y-38560000D01*
X73973429Y-38560000D01*
X72330571Y-38988571D02*
X72330571Y-40131428D01*
X73259143Y-40988571D02*
X73187714Y-41202857D01*
X73116286Y-41274285D01*
X72973429Y-41345714D01*
X72759143Y-41345714D01*
X72616286Y-41274285D01*
X72544857Y-41202857D01*
X72473429Y-41059999D01*
X72473429Y-40488571D01*
X73973429Y-40488571D01*
X73973429Y-40988571D01*
X73902000Y-41131428D01*
X73830571Y-41202857D01*
X73687714Y-41274285D01*
X73544857Y-41274285D01*
X73402000Y-41202857D01*
X73330571Y-41131428D01*
X73259143Y-40988571D01*
X73259143Y-40488571D01*
X71433429Y-35702857D02*
X69933429Y-36202857D01*
X71433429Y-36702857D01*
X69933429Y-37417143D02*
X70004857Y-37274285D01*
X70076286Y-37202857D01*
X70219143Y-37131428D01*
X70647714Y-37131428D01*
X70790571Y-37202857D01*
X70862000Y-37274285D01*
X70933429Y-37417143D01*
X70933429Y-37631428D01*
X70862000Y-37774285D01*
X70790571Y-37845714D01*
X70647714Y-37917143D01*
X70219143Y-37917143D01*
X70076286Y-37845714D01*
X70004857Y-37774285D01*
X69933429Y-37631428D01*
X69933429Y-37417143D01*
X69933429Y-38774286D02*
X70004857Y-38631428D01*
X70147714Y-38560000D01*
X71433429Y-38560000D01*
X69790571Y-38988571D02*
X69790571Y-40131428D01*
X70362000Y-40417142D02*
X70362000Y-41131428D01*
X69933429Y-40274285D02*
X71433429Y-40774285D01*
X69933429Y-41274285D01*
X67393429Y-35917143D02*
X68893429Y-35917143D01*
X68893429Y-36488571D01*
X68822000Y-36631429D01*
X68750571Y-36702857D01*
X68607714Y-36774286D01*
X68393429Y-36774286D01*
X68250571Y-36702857D01*
X68179143Y-36631429D01*
X68107714Y-36488571D01*
X68107714Y-35917143D01*
X67393429Y-37417143D02*
X68393429Y-37417143D01*
X68893429Y-37417143D02*
X68822000Y-37345714D01*
X68750571Y-37417143D01*
X68822000Y-37488571D01*
X68893429Y-37417143D01*
X68750571Y-37417143D01*
X68393429Y-37917143D02*
X68393429Y-38488572D01*
X68893429Y-38131429D02*
X67607714Y-38131429D01*
X67464857Y-38202857D01*
X67393429Y-38345715D01*
X67393429Y-38488572D01*
X67250571Y-38631429D02*
X67250571Y-39774286D01*
X67536286Y-40988572D02*
X67464857Y-40917143D01*
X67393429Y-40702857D01*
X67393429Y-40560000D01*
X67464857Y-40345715D01*
X67607714Y-40202857D01*
X67750571Y-40131429D01*
X68036286Y-40060000D01*
X68250571Y-40060000D01*
X68536286Y-40131429D01*
X68679143Y-40202857D01*
X68822000Y-40345715D01*
X68893429Y-40560000D01*
X68893429Y-40702857D01*
X68822000Y-40917143D01*
X68750571Y-40988572D01*
X64853429Y-35917143D02*
X66353429Y-35917143D01*
X66353429Y-36488571D01*
X66282000Y-36631429D01*
X66210571Y-36702857D01*
X66067714Y-36774286D01*
X65853429Y-36774286D01*
X65710571Y-36702857D01*
X65639143Y-36631429D01*
X65567714Y-36488571D01*
X65567714Y-35917143D01*
X64853429Y-37417143D02*
X65853429Y-37417143D01*
X66353429Y-37417143D02*
X66282000Y-37345714D01*
X66210571Y-37417143D01*
X66282000Y-37488571D01*
X66353429Y-37417143D01*
X66210571Y-37417143D01*
X65853429Y-37917143D02*
X65853429Y-38488572D01*
X66353429Y-38131429D02*
X65067714Y-38131429D01*
X64924857Y-38202857D01*
X64853429Y-38345715D01*
X64853429Y-38488572D01*
X64710571Y-38631429D02*
X64710571Y-39774286D01*
X65282000Y-40060000D02*
X65282000Y-40774286D01*
X64853429Y-39917143D02*
X66353429Y-40417143D01*
X64853429Y-40917143D01*
X65639143Y-41917143D02*
X65567714Y-42131429D01*
X65496286Y-42202857D01*
X65353429Y-42274286D01*
X65139143Y-42274286D01*
X64996286Y-42202857D01*
X64924857Y-42131429D01*
X64853429Y-41988571D01*
X64853429Y-41417143D01*
X66353429Y-41417143D01*
X66353429Y-41917143D01*
X66282000Y-42060000D01*
X66210571Y-42131429D01*
X66067714Y-42202857D01*
X65924857Y-42202857D01*
X65782000Y-42131429D01*
X65710571Y-42060000D01*
X65639143Y-41917143D01*
X65639143Y-41417143D01*
X63813429Y-35702857D02*
X63813429Y-36560000D01*
X62313429Y-36131429D02*
X63813429Y-36131429D01*
X62313429Y-37060000D02*
X63313429Y-37060000D01*
X63027714Y-37060000D02*
X63170571Y-37131428D01*
X63242000Y-37202857D01*
X63313429Y-37345714D01*
X63313429Y-37488571D01*
X62313429Y-37988571D02*
X63313429Y-37988571D01*
X63813429Y-37988571D02*
X63742000Y-37917142D01*
X63670571Y-37988571D01*
X63742000Y-38059999D01*
X63813429Y-37988571D01*
X63670571Y-37988571D01*
X63313429Y-39345714D02*
X62099143Y-39345714D01*
X61956286Y-39274285D01*
X61884857Y-39202857D01*
X61813429Y-39060000D01*
X61813429Y-38845714D01*
X61884857Y-38702857D01*
X62384857Y-39345714D02*
X62313429Y-39202857D01*
X62313429Y-38917143D01*
X62384857Y-38774285D01*
X62456286Y-38702857D01*
X62599143Y-38631428D01*
X63027714Y-38631428D01*
X63170571Y-38702857D01*
X63242000Y-38774285D01*
X63313429Y-38917143D01*
X63313429Y-39202857D01*
X63242000Y-39345714D01*
X62170571Y-39702857D02*
X62170571Y-40845714D01*
X63742000Y-41988571D02*
X63813429Y-41845714D01*
X63813429Y-41631428D01*
X63742000Y-41417143D01*
X63599143Y-41274285D01*
X63456286Y-41202857D01*
X63170571Y-41131428D01*
X62956286Y-41131428D01*
X62670571Y-41202857D01*
X62527714Y-41274285D01*
X62384857Y-41417143D01*
X62313429Y-41631428D01*
X62313429Y-41774285D01*
X62384857Y-41988571D01*
X62456286Y-42060000D01*
X62956286Y-42060000D01*
X62956286Y-41774285D01*
X60765429Y-35702857D02*
X60765429Y-36560000D01*
X59265429Y-36131429D02*
X60765429Y-36131429D01*
X59265429Y-37060000D02*
X60265429Y-37060000D01*
X59979714Y-37060000D02*
X60122571Y-37131428D01*
X60194000Y-37202857D01*
X60265429Y-37345714D01*
X60265429Y-37488571D01*
X59265429Y-37988571D02*
X60265429Y-37988571D01*
X60765429Y-37988571D02*
X60694000Y-37917142D01*
X60622571Y-37988571D01*
X60694000Y-38059999D01*
X60765429Y-37988571D01*
X60622571Y-37988571D01*
X60265429Y-39345714D02*
X59051143Y-39345714D01*
X58908286Y-39274285D01*
X58836857Y-39202857D01*
X58765429Y-39060000D01*
X58765429Y-38845714D01*
X58836857Y-38702857D01*
X59336857Y-39345714D02*
X59265429Y-39202857D01*
X59265429Y-38917143D01*
X59336857Y-38774285D01*
X59408286Y-38702857D01*
X59551143Y-38631428D01*
X59979714Y-38631428D01*
X60122571Y-38702857D01*
X60194000Y-38774285D01*
X60265429Y-38917143D01*
X60265429Y-39202857D01*
X60194000Y-39345714D01*
X59122571Y-39702857D02*
X59122571Y-40845714D01*
X59265429Y-41202857D02*
X60765429Y-41202857D01*
X60265429Y-41917143D02*
X59265429Y-41917143D01*
X60122571Y-41917143D02*
X60194000Y-41988571D01*
X60265429Y-42131429D01*
X60265429Y-42345714D01*
X60194000Y-42488571D01*
X60051143Y-42560000D01*
X59265429Y-42560000D01*
D11*
X54864000Y-43307000D02*
X54864000Y-37211000D01*
X108839000Y-107061000D02*
X108966000Y-107061000D01*
X108839000Y-84201000D02*
X108839000Y-107061000D01*
X128651000Y-107061000D02*
X128651000Y-84201000D01*
X108839000Y-107061000D02*
X128651000Y-107061000D01*
X108839000Y-84201000D02*
X128651000Y-84201000D01*
X108331000Y-107061000D02*
X79756000Y-107061000D01*
X108331000Y-84201000D02*
X108331000Y-107061000D01*
X79756000Y-84201000D02*
X108331000Y-84201000D01*
D12*
X31529322Y-42350571D02*
X31341822Y-43850571D01*
X31520393Y-42422000D02*
X31672179Y-42350571D01*
X31957893Y-42350571D01*
X32091821Y-42422000D01*
X32154321Y-42493429D01*
X32207893Y-42636286D01*
X32154322Y-43064857D01*
X32065036Y-43207714D01*
X31984678Y-43279143D01*
X31832893Y-43350571D01*
X31547179Y-43350571D01*
X31413250Y-43279143D01*
X33413250Y-43279143D02*
X33261465Y-43350571D01*
X32975751Y-43350571D01*
X32841821Y-43279143D01*
X32779322Y-43207714D01*
X32725750Y-43064857D01*
X32779321Y-42636286D01*
X32868607Y-42493429D01*
X32948964Y-42422000D01*
X33100751Y-42350571D01*
X33386465Y-42350571D01*
X33520393Y-42422000D01*
X34047179Y-43350571D02*
X34234679Y-41850571D01*
X34163250Y-42422000D02*
X34315036Y-42350571D01*
X34600750Y-42350571D01*
X34734678Y-42422000D01*
X34797178Y-42493429D01*
X34850750Y-42636286D01*
X34797179Y-43064857D01*
X34707893Y-43207714D01*
X34627535Y-43279143D01*
X34475750Y-43350571D01*
X34190036Y-43350571D01*
X34056107Y-43279143D01*
X36547179Y-43350571D02*
X36734679Y-41850571D01*
X36663250Y-42422000D02*
X36815036Y-42350571D01*
X37100750Y-42350571D01*
X37234678Y-42422000D01*
X37297178Y-42493429D01*
X37350750Y-42636286D01*
X37297179Y-43064857D01*
X37207893Y-43207714D01*
X37127535Y-43279143D01*
X36975750Y-43350571D01*
X36690036Y-43350571D01*
X36556107Y-43279143D01*
X37886465Y-42350571D02*
X38118608Y-43350571D01*
X38600750Y-42350571D02*
X38118608Y-43350571D01*
X37931107Y-43707714D01*
X37850750Y-43779143D01*
X37698965Y-43850571D01*
X40190036Y-43350571D02*
X40377536Y-41850571D01*
X40734679Y-41850571D01*
X40940035Y-41922000D01*
X41065036Y-42064857D01*
X41118607Y-42207714D01*
X41154321Y-42493429D01*
X41127536Y-42707714D01*
X41020392Y-42993429D01*
X40931107Y-43136286D01*
X40770392Y-43279143D01*
X40547179Y-43350571D01*
X40190036Y-43350571D01*
X41690036Y-43350571D02*
X41877536Y-41850571D01*
X42779321Y-42636286D02*
X42690036Y-43350571D01*
X42377536Y-41850571D02*
X42779321Y-42636286D01*
X43377536Y-41850571D01*
X43690036Y-43350571D02*
X43877536Y-41850571D01*
X44547179Y-43350571D01*
X44734679Y-41850571D01*
X45261465Y-43350571D02*
X45386465Y-42350571D01*
X45448965Y-41850571D02*
X45368607Y-41922000D01*
X45431107Y-41993429D01*
X45511464Y-41922000D01*
X45448965Y-41850571D01*
X45431107Y-41993429D01*
X46100751Y-42350571D02*
X45975751Y-43350571D01*
X46082893Y-42493429D02*
X46163250Y-42422000D01*
X46315037Y-42350571D01*
X46529322Y-42350571D01*
X46663250Y-42422000D01*
X46716822Y-42564857D01*
X46618608Y-43350571D01*
X47457894Y-42350571D02*
X47297179Y-43636286D01*
X47207893Y-43779143D01*
X47056108Y-43850571D01*
X46984680Y-43850571D01*
X47520394Y-41850571D02*
X47440036Y-41922000D01*
X47502536Y-41993429D01*
X47582893Y-41922000D01*
X47520394Y-41850571D01*
X47502536Y-41993429D01*
X48690037Y-43350571D02*
X48788251Y-42564857D01*
X48734679Y-42422000D01*
X48600751Y-42350571D01*
X48315037Y-42350571D01*
X48163251Y-42422000D01*
X48698965Y-43279143D02*
X48547180Y-43350571D01*
X48190037Y-43350571D01*
X48056108Y-43279143D01*
X48002536Y-43136286D01*
X48020393Y-42993429D01*
X48109680Y-42850571D01*
X48261465Y-42779143D01*
X48618608Y-42779143D01*
X48770394Y-42707714D01*
D13*
X46339334Y-39663714D02*
X46577429Y-40330381D01*
X46815525Y-39663714D01*
X47196477Y-40235143D02*
X47244096Y-40282762D01*
X47196477Y-40330381D01*
X47148858Y-40282762D01*
X47196477Y-40235143D01*
X47196477Y-40330381D01*
X48196477Y-40330381D02*
X47625048Y-40330381D01*
X47910762Y-40330381D02*
X47910762Y-39330381D01*
X47815524Y-39473238D01*
X47720286Y-39568476D01*
X47625048Y-39616095D01*
X48625048Y-40235143D02*
X48672667Y-40282762D01*
X48625048Y-40330381D01*
X48577429Y-40282762D01*
X48625048Y-40235143D01*
X48625048Y-40330381D01*
X49291714Y-39330381D02*
X49386953Y-39330381D01*
X49482191Y-39378000D01*
X49529810Y-39425619D01*
X49577429Y-39520857D01*
X49625048Y-39711333D01*
X49625048Y-39949429D01*
X49577429Y-40139905D01*
X49529810Y-40235143D01*
X49482191Y-40282762D01*
X49386953Y-40330381D01*
X49291714Y-40330381D01*
X49196476Y-40282762D01*
X49148857Y-40235143D01*
X49101238Y-40139905D01*
X49053619Y-39949429D01*
X49053619Y-39711333D01*
X49101238Y-39520857D01*
X49148857Y-39425619D01*
X49196476Y-39378000D01*
X49291714Y-39330381D01*
D14*
X31584190Y-37746952D02*
X31584190Y-39770762D01*
X31703238Y-40008857D01*
X31822285Y-40127905D01*
X32060381Y-40246952D01*
X32536571Y-40246952D01*
X32774666Y-40127905D01*
X32893714Y-40008857D01*
X33012762Y-39770762D01*
X33012762Y-37746952D01*
X34203238Y-40246952D02*
X34203238Y-38580286D01*
X34203238Y-38818381D02*
X34322286Y-38699333D01*
X34560381Y-38580286D01*
X34917524Y-38580286D01*
X35155619Y-38699333D01*
X35274667Y-38937429D01*
X35274667Y-40246952D01*
X35274667Y-38937429D02*
X35393714Y-38699333D01*
X35631810Y-38580286D01*
X35988952Y-38580286D01*
X36227048Y-38699333D01*
X36346095Y-38937429D01*
X36346095Y-40246952D01*
X37536571Y-40246952D02*
X37536571Y-38580286D01*
X37536571Y-38818381D02*
X37655619Y-38699333D01*
X37893714Y-38580286D01*
X38250857Y-38580286D01*
X38488952Y-38699333D01*
X38608000Y-38937429D01*
X38608000Y-40246952D01*
X38608000Y-38937429D02*
X38727047Y-38699333D01*
X38965143Y-38580286D01*
X39322285Y-38580286D01*
X39560381Y-38699333D01*
X39679428Y-38937429D01*
X39679428Y-40246952D01*
X40512761Y-37746952D02*
X41941333Y-37746952D01*
X41227047Y-40246952D02*
X41227047Y-37746952D01*
X42655618Y-40127905D02*
X42893714Y-40246952D01*
X43369904Y-40246952D01*
X43607999Y-40127905D01*
X43727047Y-39889810D01*
X43727047Y-39770762D01*
X43607999Y-39532667D01*
X43369904Y-39413619D01*
X43012761Y-39413619D01*
X42774666Y-39294571D01*
X42655618Y-39056476D01*
X42655618Y-38937429D01*
X42774666Y-38699333D01*
X43012761Y-38580286D01*
X43369904Y-38580286D01*
X43607999Y-38699333D01*
X44679428Y-40127905D02*
X44917524Y-40246952D01*
X45393714Y-40246952D01*
X45631809Y-40127905D01*
X45750857Y-39889810D01*
X45750857Y-39770762D01*
X45631809Y-39532667D01*
X45393714Y-39413619D01*
X45036571Y-39413619D01*
X44798476Y-39294571D01*
X44679428Y-39056476D01*
X44679428Y-38937429D01*
X44798476Y-38699333D01*
X45036571Y-38580286D01*
X45393714Y-38580286D01*
X45631809Y-38699333D01*
D12*
X109176715Y-83609571D02*
X109176715Y-82109571D01*
X109748143Y-82109571D01*
X109891001Y-82181000D01*
X109962429Y-82252429D01*
X110033858Y-82395286D01*
X110033858Y-82609571D01*
X109962429Y-82752429D01*
X109891001Y-82823857D01*
X109748143Y-82895286D01*
X109176715Y-82895286D01*
X110891001Y-83609571D02*
X110748143Y-83538143D01*
X110676715Y-83466714D01*
X110605286Y-83323857D01*
X110605286Y-82895286D01*
X110676715Y-82752429D01*
X110748143Y-82681000D01*
X110891001Y-82609571D01*
X111105286Y-82609571D01*
X111248143Y-82681000D01*
X111319572Y-82752429D01*
X111391001Y-82895286D01*
X111391001Y-83323857D01*
X111319572Y-83466714D01*
X111248143Y-83538143D01*
X111105286Y-83609571D01*
X110891001Y-83609571D01*
X111891001Y-82609571D02*
X112176715Y-83609571D01*
X112462429Y-82895286D01*
X112748144Y-83609571D01*
X113033858Y-82609571D01*
X114176715Y-83538143D02*
X114033858Y-83609571D01*
X113748144Y-83609571D01*
X113605287Y-83538143D01*
X113533858Y-83395286D01*
X113533858Y-82823857D01*
X113605287Y-82681000D01*
X113748144Y-82609571D01*
X114033858Y-82609571D01*
X114176715Y-82681000D01*
X114248144Y-82823857D01*
X114248144Y-82966714D01*
X113533858Y-83109571D01*
X114891001Y-83609571D02*
X114891001Y-82609571D01*
X114891001Y-82895286D02*
X114962429Y-82752429D01*
X115033858Y-82681000D01*
X115176715Y-82609571D01*
X115319572Y-82609571D01*
X76092857Y-80279285D02*
X76164286Y-80064999D01*
X76235714Y-79993571D01*
X76378571Y-79922142D01*
X76592857Y-79922142D01*
X76735714Y-79993571D01*
X76807143Y-80064999D01*
X76878571Y-80207857D01*
X76878571Y-80779285D01*
X75378571Y-80779285D01*
X75378571Y-80279285D01*
X75450000Y-80136428D01*
X75521429Y-80064999D01*
X75664286Y-79993571D01*
X75807143Y-79993571D01*
X75950000Y-80064999D01*
X76021429Y-80136428D01*
X76092857Y-80279285D01*
X76092857Y-80779285D01*
X76878571Y-78636428D02*
X76092857Y-78636428D01*
X75950000Y-78707857D01*
X75878571Y-78850714D01*
X75878571Y-79136428D01*
X75950000Y-79279285D01*
X76807143Y-78636428D02*
X76878571Y-78779285D01*
X76878571Y-79136428D01*
X76807143Y-79279285D01*
X76664286Y-79350714D01*
X76521429Y-79350714D01*
X76378571Y-79279285D01*
X76307143Y-79136428D01*
X76307143Y-78779285D01*
X76235714Y-78636428D01*
X76807143Y-77993571D02*
X76878571Y-77850714D01*
X76878571Y-77564999D01*
X76807143Y-77422142D01*
X76664286Y-77350714D01*
X76592857Y-77350714D01*
X76450000Y-77422142D01*
X76378571Y-77564999D01*
X76378571Y-77779285D01*
X76307143Y-77922142D01*
X76164286Y-77993571D01*
X76092857Y-77993571D01*
X75950000Y-77922142D01*
X75878571Y-77779285D01*
X75878571Y-77564999D01*
X75950000Y-77422142D01*
X76807143Y-76136428D02*
X76878571Y-76279285D01*
X76878571Y-76564999D01*
X76807143Y-76707856D01*
X76664286Y-76779285D01*
X76092857Y-76779285D01*
X75950000Y-76707856D01*
X75878571Y-76564999D01*
X75878571Y-76279285D01*
X75950000Y-76136428D01*
X76092857Y-76064999D01*
X76235714Y-76064999D01*
X76378571Y-76779285D01*
X76878571Y-75422142D02*
X75378571Y-75422142D01*
X75378571Y-75064999D01*
X75450000Y-74850714D01*
X75592857Y-74707856D01*
X75735714Y-74636428D01*
X76021429Y-74564999D01*
X76235714Y-74564999D01*
X76521429Y-74636428D01*
X76664286Y-74707856D01*
X76807143Y-74850714D01*
X76878571Y-75064999D01*
X76878571Y-75422142D01*
X76878571Y-73922142D02*
X75878571Y-73922142D01*
X76164286Y-73922142D02*
X76021429Y-73850714D01*
X75950000Y-73779285D01*
X75878571Y-73636428D01*
X75878571Y-73493571D01*
X75878571Y-72350714D02*
X76878571Y-72350714D01*
X75878571Y-72993571D02*
X76664286Y-72993571D01*
X76807143Y-72922143D01*
X76878571Y-72779285D01*
X76878571Y-72565000D01*
X76807143Y-72422143D01*
X76735714Y-72350714D01*
X76878571Y-71636428D02*
X75878571Y-71636428D01*
X76021429Y-71636428D02*
X75950000Y-71565000D01*
X75878571Y-71422142D01*
X75878571Y-71207857D01*
X75950000Y-71065000D01*
X76092857Y-70993571D01*
X76878571Y-70993571D01*
X76092857Y-70993571D02*
X75950000Y-70922142D01*
X75878571Y-70779285D01*
X75878571Y-70565000D01*
X75950000Y-70422142D01*
X76092857Y-70350714D01*
X76878571Y-70350714D01*
D11*
X77851000Y-43307000D02*
X128651000Y-43307000D01*
X77851000Y-81407000D02*
X77851000Y-43307000D01*
X128651000Y-81407000D02*
X128651000Y-43307000D01*
X127381000Y-81407000D02*
X128651000Y-81407000D01*
X77851000Y-81407000D02*
X127381000Y-81407000D01*
D12*
X72417857Y-47272143D02*
X72346429Y-47486429D01*
X72346429Y-47843572D01*
X72417857Y-47986429D01*
X72489286Y-48057858D01*
X72632143Y-48129286D01*
X72775000Y-48129286D01*
X72917857Y-48057858D01*
X72989286Y-47986429D01*
X73060714Y-47843572D01*
X73132143Y-47557858D01*
X73203571Y-47415000D01*
X73275000Y-47343572D01*
X73417857Y-47272143D01*
X73560714Y-47272143D01*
X73703571Y-47343572D01*
X73775000Y-47415000D01*
X73846429Y-47557858D01*
X73846429Y-47915000D01*
X73775000Y-48129286D01*
X73346429Y-48772143D02*
X72346429Y-48772143D01*
X73203571Y-48772143D02*
X73275000Y-48843571D01*
X73346429Y-48986429D01*
X73346429Y-49200714D01*
X73275000Y-49343571D01*
X73132143Y-49415000D01*
X72346429Y-49415000D01*
X72346429Y-50772143D02*
X73132143Y-50772143D01*
X73275000Y-50700714D01*
X73346429Y-50557857D01*
X73346429Y-50272143D01*
X73275000Y-50129286D01*
X72417857Y-50772143D02*
X72346429Y-50629286D01*
X72346429Y-50272143D01*
X72417857Y-50129286D01*
X72560714Y-50057857D01*
X72703571Y-50057857D01*
X72846429Y-50129286D01*
X72917857Y-50272143D01*
X72917857Y-50629286D01*
X72989286Y-50772143D01*
X72346429Y-51486429D02*
X73346429Y-51486429D01*
X73060714Y-51486429D02*
X73203571Y-51557857D01*
X73275000Y-51629286D01*
X73346429Y-51772143D01*
X73346429Y-51915000D01*
X72417857Y-52986428D02*
X72346429Y-52843571D01*
X72346429Y-52557857D01*
X72417857Y-52415000D01*
X72560714Y-52343571D01*
X73132143Y-52343571D01*
X73275000Y-52415000D01*
X73346429Y-52557857D01*
X73346429Y-52843571D01*
X73275000Y-52986428D01*
X73132143Y-53057857D01*
X72989286Y-53057857D01*
X72846429Y-52343571D01*
X30976428Y-83609571D02*
X30976428Y-82109571D01*
X30976428Y-82823857D02*
X31833571Y-82823857D01*
X31833571Y-83609571D02*
X31833571Y-82109571D01*
X32547857Y-83609571D02*
X32547857Y-82609571D01*
X32547857Y-82109571D02*
X32476428Y-82181000D01*
X32547857Y-82252429D01*
X32619285Y-82181000D01*
X32547857Y-82109571D01*
X32547857Y-82252429D01*
X33262143Y-83609571D02*
X33262143Y-82109571D01*
X33262143Y-82823857D02*
X34119286Y-82823857D01*
X34119286Y-83609571D02*
X34119286Y-82109571D01*
X35476429Y-83609571D02*
X35476429Y-82823857D01*
X35405000Y-82681000D01*
X35262143Y-82609571D01*
X34976429Y-82609571D01*
X34833572Y-82681000D01*
X35476429Y-83538143D02*
X35333572Y-83609571D01*
X34976429Y-83609571D01*
X34833572Y-83538143D01*
X34762143Y-83395286D01*
X34762143Y-83252429D01*
X34833572Y-83109571D01*
X34976429Y-83038143D01*
X35333572Y-83038143D01*
X35476429Y-82966714D01*
X35976429Y-82609571D02*
X36547858Y-82609571D01*
X36190715Y-82109571D02*
X36190715Y-83395286D01*
X36262143Y-83538143D01*
X36405001Y-83609571D01*
X36547858Y-83609571D01*
D11*
X79375000Y-107061000D02*
X79375000Y-105791000D01*
X30480000Y-107061000D02*
X79375000Y-107061000D01*
X30480000Y-106426000D02*
X30480000Y-107061000D01*
X79375000Y-106426000D02*
X79375000Y-105791000D01*
X30480000Y-105791000D02*
X30480000Y-106426000D01*
X79375000Y-84201000D02*
X79375000Y-105791000D01*
X31750000Y-84201000D02*
X79375000Y-84201000D01*
X30734000Y-81407000D02*
X30734000Y-47117000D01*
X71374000Y-81407000D02*
X30734000Y-81407000D01*
X71374000Y-47117000D02*
X71374000Y-81407000D01*
X68199000Y-47117000D02*
X71374000Y-47117000D01*
X68199000Y-47117000D02*
X30734000Y-47117000D01*
D12*
X80260286Y-83181000D02*
X80974572Y-83181000D01*
X80117429Y-83609571D02*
X80617429Y-82109571D01*
X81117429Y-83609571D01*
X81617429Y-83609571D02*
X81617429Y-82609571D01*
X81617429Y-82752429D02*
X81688857Y-82681000D01*
X81831715Y-82609571D01*
X82046000Y-82609571D01*
X82188857Y-82681000D01*
X82260286Y-82823857D01*
X82260286Y-83609571D01*
X82260286Y-82823857D02*
X82331715Y-82681000D01*
X82474572Y-82609571D01*
X82688857Y-82609571D01*
X82831715Y-82681000D01*
X82903143Y-82823857D01*
X82903143Y-83609571D01*
X83617429Y-82609571D02*
X83617429Y-84109571D01*
X83617429Y-82681000D02*
X83760286Y-82609571D01*
X84046000Y-82609571D01*
X84188857Y-82681000D01*
X84260286Y-82752429D01*
X84331715Y-82895286D01*
X84331715Y-83323857D01*
X84260286Y-83466714D01*
X84188857Y-83538143D01*
X84046000Y-83609571D01*
X83760286Y-83609571D01*
X83617429Y-83538143D01*
D11*
X79756000Y-84201000D02*
X79756000Y-107061000D01*
X30480000Y-84201000D02*
X31750000Y-84201000D01*
X30480000Y-105791000D02*
X30480000Y-84201000D01*
D13*
X123745000Y-84901000D02*
X123745000Y-92899000D01*
X123885000Y-84906000D02*
X123885000Y-92894000D01*
X124025000Y-84916000D02*
X124025000Y-92884000D01*
X124165000Y-84931000D02*
X124165000Y-92869000D01*
X124305000Y-84951000D02*
X124305000Y-92849000D01*
X124445000Y-84976000D02*
X124445000Y-88678000D01*
X124445000Y-89122000D02*
X124445000Y-92824000D01*
X124585000Y-85006000D02*
X124585000Y-88350000D01*
X124585000Y-89450000D02*
X124585000Y-92794000D01*
X124725000Y-85042000D02*
X124725000Y-88181000D01*
X124725000Y-89619000D02*
X124725000Y-92758000D01*
X124865000Y-85083000D02*
X124865000Y-88068000D01*
X124865000Y-89732000D02*
X124865000Y-92717000D01*
X125005000Y-85129000D02*
X125005000Y-87990000D01*
X125005000Y-89810000D02*
X125005000Y-92671000D01*
X125145000Y-85182000D02*
X125145000Y-87939000D01*
X125145000Y-89861000D02*
X125145000Y-92618000D01*
X125285000Y-85241000D02*
X125285000Y-87909000D01*
X125285000Y-89891000D02*
X125285000Y-92559000D01*
X125425000Y-85306000D02*
X125425000Y-87900000D01*
X125425000Y-89900000D02*
X125425000Y-92494000D01*
X125565000Y-85377000D02*
X125565000Y-87911000D01*
X125565000Y-89889000D02*
X125565000Y-92423000D01*
X125705000Y-85456000D02*
X125705000Y-87941000D01*
X125705000Y-89859000D02*
X125705000Y-92344000D01*
X125845000Y-85543000D02*
X125845000Y-87995000D01*
X125845000Y-89805000D02*
X125845000Y-92257000D01*
X125985000Y-85638000D02*
X125985000Y-88075000D01*
X125985000Y-89725000D02*
X125985000Y-92162000D01*
X126125000Y-85742000D02*
X126125000Y-88191000D01*
X126125000Y-89609000D02*
X126125000Y-92058000D01*
X126265000Y-85856000D02*
X126265000Y-88365000D01*
X126265000Y-89435000D02*
X126265000Y-91944000D01*
X126405000Y-85981000D02*
X126405000Y-88727000D01*
X126405000Y-89073000D02*
X126405000Y-91819000D01*
X126545000Y-86119000D02*
X126545000Y-91681000D01*
X126685000Y-86271000D02*
X126685000Y-91529000D01*
X126825000Y-86441000D02*
X126825000Y-91359000D01*
X126965000Y-86632000D02*
X126965000Y-91168000D01*
X127105000Y-86850000D02*
X127105000Y-90950000D01*
X127245000Y-87106000D02*
X127245000Y-90694000D01*
X127385000Y-87417000D02*
X127385000Y-90383000D01*
X127525000Y-87833000D02*
X127525000Y-89967000D01*
X127665000Y-88700000D02*
X127665000Y-89100000D01*
X126420000Y-88900000D02*
G75*
G03X126420000Y-88900000I-1000000J0D01*
G01*
X127707500Y-88900000D02*
G75*
G03X127707500Y-88900000I-4037500J0D01*
G01*
X83621000Y-86782000D02*
X83621000Y-91780000D01*
X83761000Y-86790000D02*
X83761000Y-91772000D01*
X83901000Y-86806000D02*
X83901000Y-89186000D01*
X83901000Y-89376000D02*
X83901000Y-91756000D01*
X84041000Y-86830000D02*
X84041000Y-88791000D01*
X84041000Y-89771000D02*
X84041000Y-91732000D01*
X84181000Y-86863000D02*
X84181000Y-88624000D01*
X84181000Y-89938000D02*
X84181000Y-91699000D01*
X84321000Y-86904000D02*
X84321000Y-88517000D01*
X84321000Y-90045000D02*
X84321000Y-91658000D01*
X84461000Y-86954000D02*
X84461000Y-88446000D01*
X84461000Y-90116000D02*
X84461000Y-91608000D01*
X84601000Y-87015000D02*
X84601000Y-88402000D01*
X84601000Y-90160000D02*
X84601000Y-91547000D01*
X84741000Y-87085000D02*
X84741000Y-88383000D01*
X84741000Y-90179000D02*
X84741000Y-91477000D01*
X84881000Y-87167000D02*
X84881000Y-88385000D01*
X84881000Y-90177000D02*
X84881000Y-91395000D01*
X85021000Y-87262000D02*
X85021000Y-88410000D01*
X85021000Y-90152000D02*
X85021000Y-91300000D01*
X85161000Y-87373000D02*
X85161000Y-88458000D01*
X85161000Y-90104000D02*
X85161000Y-91189000D01*
X85301000Y-87501000D02*
X85301000Y-88536000D01*
X85301000Y-90026000D02*
X85301000Y-91061000D01*
X85441000Y-87650000D02*
X85441000Y-88653000D01*
X85441000Y-89909000D02*
X85441000Y-90912000D01*
X85581000Y-87829000D02*
X85581000Y-88841000D01*
X85581000Y-89721000D02*
X85581000Y-90733000D01*
X85721000Y-88048000D02*
X85721000Y-90514000D01*
X85861000Y-88337000D02*
X85861000Y-90225000D01*
X86001000Y-88809000D02*
X86001000Y-89753000D01*
X85696000Y-89281000D02*
G75*
G03X85696000Y-89281000I-900000J0D01*
G01*
X86083500Y-89281000D02*
G75*
G03X86083500Y-89281000I-2537500J0D01*
G01*
X83621000Y-93767000D02*
X83621000Y-98765000D01*
X83761000Y-93775000D02*
X83761000Y-98757000D01*
X83901000Y-93791000D02*
X83901000Y-96171000D01*
X83901000Y-96361000D02*
X83901000Y-98741000D01*
X84041000Y-93815000D02*
X84041000Y-95776000D01*
X84041000Y-96756000D02*
X84041000Y-98717000D01*
X84181000Y-93848000D02*
X84181000Y-95609000D01*
X84181000Y-96923000D02*
X84181000Y-98684000D01*
X84321000Y-93889000D02*
X84321000Y-95502000D01*
X84321000Y-97030000D02*
X84321000Y-98643000D01*
X84461000Y-93939000D02*
X84461000Y-95431000D01*
X84461000Y-97101000D02*
X84461000Y-98593000D01*
X84601000Y-94000000D02*
X84601000Y-95387000D01*
X84601000Y-97145000D02*
X84601000Y-98532000D01*
X84741000Y-94070000D02*
X84741000Y-95368000D01*
X84741000Y-97164000D02*
X84741000Y-98462000D01*
X84881000Y-94152000D02*
X84881000Y-95370000D01*
X84881000Y-97162000D02*
X84881000Y-98380000D01*
X85021000Y-94247000D02*
X85021000Y-95395000D01*
X85021000Y-97137000D02*
X85021000Y-98285000D01*
X85161000Y-94358000D02*
X85161000Y-95443000D01*
X85161000Y-97089000D02*
X85161000Y-98174000D01*
X85301000Y-94486000D02*
X85301000Y-95521000D01*
X85301000Y-97011000D02*
X85301000Y-98046000D01*
X85441000Y-94635000D02*
X85441000Y-95638000D01*
X85441000Y-96894000D02*
X85441000Y-97897000D01*
X85581000Y-94814000D02*
X85581000Y-95826000D01*
X85581000Y-96706000D02*
X85581000Y-97718000D01*
X85721000Y-95033000D02*
X85721000Y-97499000D01*
X85861000Y-95322000D02*
X85861000Y-97210000D01*
X86001000Y-95794000D02*
X86001000Y-96738000D01*
X85696000Y-96266000D02*
G75*
G03X85696000Y-96266000I-900000J0D01*
G01*
X86083500Y-96266000D02*
G75*
G03X86083500Y-96266000I-2537500J0D01*
G01*
X103196000Y-49616000D02*
X103196000Y-44618000D01*
X103056000Y-49608000D02*
X103056000Y-44626000D01*
X102916000Y-49592000D02*
X102916000Y-47212000D01*
X102916000Y-47022000D02*
X102916000Y-44642000D01*
X102776000Y-49568000D02*
X102776000Y-47607000D01*
X102776000Y-46627000D02*
X102776000Y-44666000D01*
X102636000Y-49535000D02*
X102636000Y-47774000D01*
X102636000Y-46460000D02*
X102636000Y-44699000D01*
X102496000Y-49494000D02*
X102496000Y-47881000D01*
X102496000Y-46353000D02*
X102496000Y-44740000D01*
X102356000Y-49444000D02*
X102356000Y-47952000D01*
X102356000Y-46282000D02*
X102356000Y-44790000D01*
X102216000Y-49383000D02*
X102216000Y-47996000D01*
X102216000Y-46238000D02*
X102216000Y-44851000D01*
X102076000Y-49313000D02*
X102076000Y-48015000D01*
X102076000Y-46219000D02*
X102076000Y-44921000D01*
X101936000Y-49231000D02*
X101936000Y-48013000D01*
X101936000Y-46221000D02*
X101936000Y-45003000D01*
X101796000Y-49136000D02*
X101796000Y-47988000D01*
X101796000Y-46246000D02*
X101796000Y-45098000D01*
X101656000Y-49025000D02*
X101656000Y-47940000D01*
X101656000Y-46294000D02*
X101656000Y-45209000D01*
X101516000Y-48897000D02*
X101516000Y-47862000D01*
X101516000Y-46372000D02*
X101516000Y-45337000D01*
X101376000Y-48748000D02*
X101376000Y-47745000D01*
X101376000Y-46489000D02*
X101376000Y-45486000D01*
X101236000Y-48569000D02*
X101236000Y-47557000D01*
X101236000Y-46677000D02*
X101236000Y-45665000D01*
X101096000Y-48350000D02*
X101096000Y-45884000D01*
X100956000Y-48061000D02*
X100956000Y-46173000D01*
X100816000Y-47589000D02*
X100816000Y-46645000D01*
X102921000Y-47117000D02*
G75*
G03X102921000Y-47117000I-900000J0D01*
G01*
X105808500Y-47117000D02*
G75*
G03X105808500Y-47117000I-2537500J0D01*
G01*
X113720000Y-85116000D02*
X113720000Y-91414000D01*
X113860000Y-85122000D02*
X113860000Y-91408000D01*
X114000000Y-85135000D02*
X114000000Y-87819000D01*
X114000000Y-88711000D02*
X114000000Y-91395000D01*
X114140000Y-85154000D02*
X114140000Y-87609000D01*
X114140000Y-88921000D02*
X114140000Y-91376000D01*
X114280000Y-85180000D02*
X114280000Y-87476000D01*
X114280000Y-89054000D02*
X114280000Y-91350000D01*
X114420000Y-85212000D02*
X114420000Y-87385000D01*
X114420000Y-89145000D02*
X114420000Y-91318000D01*
X114560000Y-85251000D02*
X114560000Y-87323000D01*
X114560000Y-89207000D02*
X114560000Y-91279000D01*
X114700000Y-85297000D02*
X114700000Y-87284000D01*
X114700000Y-89246000D02*
X114700000Y-91233000D01*
X114840000Y-85350000D02*
X114840000Y-87267000D01*
X114840000Y-89263000D02*
X114840000Y-91180000D01*
X114980000Y-85412000D02*
X114980000Y-87269000D01*
X114980000Y-89261000D02*
X114980000Y-91118000D01*
X115120000Y-85482000D02*
X115120000Y-87291000D01*
X115120000Y-89239000D02*
X115120000Y-91048000D01*
X115260000Y-85561000D02*
X115260000Y-87334000D01*
X115260000Y-89196000D02*
X115260000Y-90969000D01*
X115400000Y-85649000D02*
X115400000Y-87402000D01*
X115400000Y-89128000D02*
X115400000Y-90881000D01*
X115540000Y-85749000D02*
X115540000Y-87501000D01*
X115540000Y-89029000D02*
X115540000Y-90781000D01*
X115680000Y-85861000D02*
X115680000Y-87646000D01*
X115680000Y-88884000D02*
X115680000Y-90669000D01*
X115820000Y-85986000D02*
X115820000Y-87885000D01*
X115820000Y-88645000D02*
X115820000Y-90544000D01*
X115960000Y-86129000D02*
X115960000Y-90401000D01*
X116100000Y-86291000D02*
X116100000Y-90239000D01*
X116240000Y-86479000D02*
X116240000Y-90051000D01*
X116380000Y-86702000D02*
X116380000Y-89828000D01*
X116520000Y-86978000D02*
X116520000Y-89552000D01*
X116660000Y-87353000D02*
X116660000Y-89177000D01*
X115895000Y-88265000D02*
G75*
G03X115895000Y-88265000I-1000000J0D01*
G01*
X116832500Y-88265000D02*
G75*
G03X116832500Y-88265000I-3187500J0D01*
G01*
X120995000Y-97820000D02*
X126095000Y-97820000D01*
X126095000Y-95220000D02*
X120995000Y-95220000D01*
X120995000Y-97720000D02*
X120995000Y-95320000D01*
X126095000Y-95270000D02*
X126095000Y-97770000D01*
X83621000Y-100752000D02*
X83621000Y-105750000D01*
X83761000Y-100760000D02*
X83761000Y-105742000D01*
X83901000Y-100776000D02*
X83901000Y-103156000D01*
X83901000Y-103346000D02*
X83901000Y-105726000D01*
X84041000Y-100800000D02*
X84041000Y-102761000D01*
X84041000Y-103741000D02*
X84041000Y-105702000D01*
X84181000Y-100833000D02*
X84181000Y-102594000D01*
X84181000Y-103908000D02*
X84181000Y-105669000D01*
X84321000Y-100874000D02*
X84321000Y-102487000D01*
X84321000Y-104015000D02*
X84321000Y-105628000D01*
X84461000Y-100924000D02*
X84461000Y-102416000D01*
X84461000Y-104086000D02*
X84461000Y-105578000D01*
X84601000Y-100985000D02*
X84601000Y-102372000D01*
X84601000Y-104130000D02*
X84601000Y-105517000D01*
X84741000Y-101055000D02*
X84741000Y-102353000D01*
X84741000Y-104149000D02*
X84741000Y-105447000D01*
X84881000Y-101137000D02*
X84881000Y-102355000D01*
X84881000Y-104147000D02*
X84881000Y-105365000D01*
X85021000Y-101232000D02*
X85021000Y-102380000D01*
X85021000Y-104122000D02*
X85021000Y-105270000D01*
X85161000Y-101343000D02*
X85161000Y-102428000D01*
X85161000Y-104074000D02*
X85161000Y-105159000D01*
X85301000Y-101471000D02*
X85301000Y-102506000D01*
X85301000Y-103996000D02*
X85301000Y-105031000D01*
X85441000Y-101620000D02*
X85441000Y-102623000D01*
X85441000Y-103879000D02*
X85441000Y-104882000D01*
X85581000Y-101799000D02*
X85581000Y-102811000D01*
X85581000Y-103691000D02*
X85581000Y-104703000D01*
X85721000Y-102018000D02*
X85721000Y-104484000D01*
X85861000Y-102307000D02*
X85861000Y-104195000D01*
X86001000Y-102779000D02*
X86001000Y-103723000D01*
X85696000Y-103251000D02*
G75*
G03X85696000Y-103251000I-900000J0D01*
G01*
X86083500Y-103251000D02*
G75*
G03X86083500Y-103251000I-2537500J0D01*
G01*
X92746000Y-76932000D02*
X87646000Y-76932000D01*
X87646000Y-79532000D02*
X92746000Y-79532000D01*
X92746000Y-77032000D02*
X92746000Y-79432000D01*
X87646000Y-79482000D02*
X87646000Y-76982000D01*
X101001000Y-76932000D02*
X95901000Y-76932000D01*
X95901000Y-79532000D02*
X101001000Y-79532000D01*
X101001000Y-77032000D02*
X101001000Y-79432000D01*
X95901000Y-79482000D02*
X95901000Y-76982000D01*
X73370000Y-98201000D02*
X78470000Y-98201000D01*
X78470000Y-95601000D02*
X73370000Y-95601000D01*
X73370000Y-98101000D02*
X73370000Y-95701000D01*
X78470000Y-95651000D02*
X78470000Y-98151000D01*
X61159000Y-80731000D02*
X61159000Y-75733000D01*
X61019000Y-80723000D02*
X61019000Y-75741000D01*
X60879000Y-80707000D02*
X60879000Y-78327000D01*
X60879000Y-78137000D02*
X60879000Y-75757000D01*
X60739000Y-80683000D02*
X60739000Y-78722000D01*
X60739000Y-77742000D02*
X60739000Y-75781000D01*
X60599000Y-80650000D02*
X60599000Y-78889000D01*
X60599000Y-77575000D02*
X60599000Y-75814000D01*
X60459000Y-80609000D02*
X60459000Y-78996000D01*
X60459000Y-77468000D02*
X60459000Y-75855000D01*
X60319000Y-80559000D02*
X60319000Y-79067000D01*
X60319000Y-77397000D02*
X60319000Y-75905000D01*
X60179000Y-80498000D02*
X60179000Y-79111000D01*
X60179000Y-77353000D02*
X60179000Y-75966000D01*
X60039000Y-80428000D02*
X60039000Y-79130000D01*
X60039000Y-77334000D02*
X60039000Y-76036000D01*
X59899000Y-80346000D02*
X59899000Y-79128000D01*
X59899000Y-77336000D02*
X59899000Y-76118000D01*
X59759000Y-80251000D02*
X59759000Y-79103000D01*
X59759000Y-77361000D02*
X59759000Y-76213000D01*
X59619000Y-80140000D02*
X59619000Y-79055000D01*
X59619000Y-77409000D02*
X59619000Y-76324000D01*
X59479000Y-80012000D02*
X59479000Y-78977000D01*
X59479000Y-77487000D02*
X59479000Y-76452000D01*
X59339000Y-79863000D02*
X59339000Y-78860000D01*
X59339000Y-77604000D02*
X59339000Y-76601000D01*
X59199000Y-79684000D02*
X59199000Y-78672000D01*
X59199000Y-77792000D02*
X59199000Y-76780000D01*
X59059000Y-79465000D02*
X59059000Y-76999000D01*
X58919000Y-79176000D02*
X58919000Y-77288000D01*
X58779000Y-78704000D02*
X58779000Y-77760000D01*
X60884000Y-78232000D02*
G75*
G03X60884000Y-78232000I-900000J0D01*
G01*
X63771500Y-78232000D02*
G75*
G03X63771500Y-78232000I-2537500J0D01*
G01*
X73370000Y-103281000D02*
X78470000Y-103281000D01*
X78470000Y-100681000D02*
X73370000Y-100681000D01*
X73370000Y-103181000D02*
X73370000Y-100781000D01*
X78470000Y-100731000D02*
X78470000Y-103231000D01*
X109256000Y-76932000D02*
X104156000Y-76932000D01*
X104156000Y-79532000D02*
X109256000Y-79532000D01*
X109256000Y-77032000D02*
X109256000Y-79432000D01*
X104156000Y-79482000D02*
X104156000Y-76982000D01*
X34489000Y-80731000D02*
X34489000Y-75733000D01*
X34349000Y-80723000D02*
X34349000Y-75741000D01*
X34209000Y-80707000D02*
X34209000Y-78327000D01*
X34209000Y-78137000D02*
X34209000Y-75757000D01*
X34069000Y-80683000D02*
X34069000Y-78722000D01*
X34069000Y-77742000D02*
X34069000Y-75781000D01*
X33929000Y-80650000D02*
X33929000Y-78889000D01*
X33929000Y-77575000D02*
X33929000Y-75814000D01*
X33789000Y-80609000D02*
X33789000Y-78996000D01*
X33789000Y-77468000D02*
X33789000Y-75855000D01*
X33649000Y-80559000D02*
X33649000Y-79067000D01*
X33649000Y-77397000D02*
X33649000Y-75905000D01*
X33509000Y-80498000D02*
X33509000Y-79111000D01*
X33509000Y-77353000D02*
X33509000Y-75966000D01*
X33369000Y-80428000D02*
X33369000Y-79130000D01*
X33369000Y-77334000D02*
X33369000Y-76036000D01*
X33229000Y-80346000D02*
X33229000Y-79128000D01*
X33229000Y-77336000D02*
X33229000Y-76118000D01*
X33089000Y-80251000D02*
X33089000Y-79103000D01*
X33089000Y-77361000D02*
X33089000Y-76213000D01*
X32949000Y-80140000D02*
X32949000Y-79055000D01*
X32949000Y-77409000D02*
X32949000Y-76324000D01*
X32809000Y-80012000D02*
X32809000Y-78977000D01*
X32809000Y-77487000D02*
X32809000Y-76452000D01*
X32669000Y-79863000D02*
X32669000Y-78860000D01*
X32669000Y-77604000D02*
X32669000Y-76601000D01*
X32529000Y-79684000D02*
X32529000Y-78672000D01*
X32529000Y-77792000D02*
X32529000Y-76780000D01*
X32389000Y-79465000D02*
X32389000Y-76999000D01*
X32249000Y-79176000D02*
X32249000Y-77288000D01*
X32109000Y-78704000D02*
X32109000Y-77760000D01*
X34214000Y-78232000D02*
G75*
G03X34214000Y-78232000I-900000J0D01*
G01*
X37101500Y-78232000D02*
G75*
G03X37101500Y-78232000I-2537500J0D01*
G01*
X46410000Y-100117000D02*
X46410000Y-105115000D01*
X46550000Y-100125000D02*
X46550000Y-105107000D01*
X46690000Y-100141000D02*
X46690000Y-102521000D01*
X46690000Y-102711000D02*
X46690000Y-105091000D01*
X46830000Y-100165000D02*
X46830000Y-102126000D01*
X46830000Y-103106000D02*
X46830000Y-105067000D01*
X46970000Y-100198000D02*
X46970000Y-101959000D01*
X46970000Y-103273000D02*
X46970000Y-105034000D01*
X47110000Y-100239000D02*
X47110000Y-101852000D01*
X47110000Y-103380000D02*
X47110000Y-104993000D01*
X47250000Y-100289000D02*
X47250000Y-101781000D01*
X47250000Y-103451000D02*
X47250000Y-104943000D01*
X47390000Y-100350000D02*
X47390000Y-101737000D01*
X47390000Y-103495000D02*
X47390000Y-104882000D01*
X47530000Y-100420000D02*
X47530000Y-101718000D01*
X47530000Y-103514000D02*
X47530000Y-104812000D01*
X47670000Y-100502000D02*
X47670000Y-101720000D01*
X47670000Y-103512000D02*
X47670000Y-104730000D01*
X47810000Y-100597000D02*
X47810000Y-101745000D01*
X47810000Y-103487000D02*
X47810000Y-104635000D01*
X47950000Y-100708000D02*
X47950000Y-101793000D01*
X47950000Y-103439000D02*
X47950000Y-104524000D01*
X48090000Y-100836000D02*
X48090000Y-101871000D01*
X48090000Y-103361000D02*
X48090000Y-104396000D01*
X48230000Y-100985000D02*
X48230000Y-101988000D01*
X48230000Y-103244000D02*
X48230000Y-104247000D01*
X48370000Y-101164000D02*
X48370000Y-102176000D01*
X48370000Y-103056000D02*
X48370000Y-104068000D01*
X48510000Y-101383000D02*
X48510000Y-103849000D01*
X48650000Y-101672000D02*
X48650000Y-103560000D01*
X48790000Y-102144000D02*
X48790000Y-103088000D01*
X48485000Y-102616000D02*
G75*
G03X48485000Y-102616000I-900000J0D01*
G01*
X48872500Y-102616000D02*
G75*
G03X48872500Y-102616000I-2537500J0D01*
G01*
X117511000Y-76932000D02*
X112411000Y-76932000D01*
X112411000Y-79532000D02*
X117511000Y-79532000D01*
X117511000Y-77032000D02*
X117511000Y-79432000D01*
X112411000Y-79482000D02*
X112411000Y-76982000D01*
X73370000Y-93121000D02*
X78470000Y-93121000D01*
X78470000Y-90521000D02*
X73370000Y-90521000D01*
X73370000Y-93021000D02*
X73370000Y-90621000D01*
X78470000Y-90571000D02*
X78470000Y-93071000D01*
X52760000Y-100117000D02*
X52760000Y-105115000D01*
X52900000Y-100125000D02*
X52900000Y-105107000D01*
X53040000Y-100141000D02*
X53040000Y-102521000D01*
X53040000Y-102711000D02*
X53040000Y-105091000D01*
X53180000Y-100165000D02*
X53180000Y-102126000D01*
X53180000Y-103106000D02*
X53180000Y-105067000D01*
X53320000Y-100198000D02*
X53320000Y-101959000D01*
X53320000Y-103273000D02*
X53320000Y-105034000D01*
X53460000Y-100239000D02*
X53460000Y-101852000D01*
X53460000Y-103380000D02*
X53460000Y-104993000D01*
X53600000Y-100289000D02*
X53600000Y-101781000D01*
X53600000Y-103451000D02*
X53600000Y-104943000D01*
X53740000Y-100350000D02*
X53740000Y-101737000D01*
X53740000Y-103495000D02*
X53740000Y-104882000D01*
X53880000Y-100420000D02*
X53880000Y-101718000D01*
X53880000Y-103514000D02*
X53880000Y-104812000D01*
X54020000Y-100502000D02*
X54020000Y-101720000D01*
X54020000Y-103512000D02*
X54020000Y-104730000D01*
X54160000Y-100597000D02*
X54160000Y-101745000D01*
X54160000Y-103487000D02*
X54160000Y-104635000D01*
X54300000Y-100708000D02*
X54300000Y-101793000D01*
X54300000Y-103439000D02*
X54300000Y-104524000D01*
X54440000Y-100836000D02*
X54440000Y-101871000D01*
X54440000Y-103361000D02*
X54440000Y-104396000D01*
X54580000Y-100985000D02*
X54580000Y-101988000D01*
X54580000Y-103244000D02*
X54580000Y-104247000D01*
X54720000Y-101164000D02*
X54720000Y-102176000D01*
X54720000Y-103056000D02*
X54720000Y-104068000D01*
X54860000Y-101383000D02*
X54860000Y-103849000D01*
X55000000Y-101672000D02*
X55000000Y-103560000D01*
X55140000Y-102144000D02*
X55140000Y-103088000D01*
X54835000Y-102616000D02*
G75*
G03X54835000Y-102616000I-900000J0D01*
G01*
X55222500Y-102616000D02*
G75*
G03X55222500Y-102616000I-2537500J0D01*
G01*
X43379000Y-80731000D02*
X43379000Y-75733000D01*
X43239000Y-80723000D02*
X43239000Y-75741000D01*
X43099000Y-80707000D02*
X43099000Y-78327000D01*
X43099000Y-78137000D02*
X43099000Y-75757000D01*
X42959000Y-80683000D02*
X42959000Y-78722000D01*
X42959000Y-77742000D02*
X42959000Y-75781000D01*
X42819000Y-80650000D02*
X42819000Y-78889000D01*
X42819000Y-77575000D02*
X42819000Y-75814000D01*
X42679000Y-80609000D02*
X42679000Y-78996000D01*
X42679000Y-77468000D02*
X42679000Y-75855000D01*
X42539000Y-80559000D02*
X42539000Y-79067000D01*
X42539000Y-77397000D02*
X42539000Y-75905000D01*
X42399000Y-80498000D02*
X42399000Y-79111000D01*
X42399000Y-77353000D02*
X42399000Y-75966000D01*
X42259000Y-80428000D02*
X42259000Y-79130000D01*
X42259000Y-77334000D02*
X42259000Y-76036000D01*
X42119000Y-80346000D02*
X42119000Y-79128000D01*
X42119000Y-77336000D02*
X42119000Y-76118000D01*
X41979000Y-80251000D02*
X41979000Y-79103000D01*
X41979000Y-77361000D02*
X41979000Y-76213000D01*
X41839000Y-80140000D02*
X41839000Y-79055000D01*
X41839000Y-77409000D02*
X41839000Y-76324000D01*
X41699000Y-80012000D02*
X41699000Y-78977000D01*
X41699000Y-77487000D02*
X41699000Y-76452000D01*
X41559000Y-79863000D02*
X41559000Y-78860000D01*
X41559000Y-77604000D02*
X41559000Y-76601000D01*
X41419000Y-79684000D02*
X41419000Y-78672000D01*
X41419000Y-77792000D02*
X41419000Y-76780000D01*
X41279000Y-79465000D02*
X41279000Y-76999000D01*
X41139000Y-79176000D02*
X41139000Y-77288000D01*
X40999000Y-78704000D02*
X40999000Y-77760000D01*
X43104000Y-78232000D02*
G75*
G03X43104000Y-78232000I-900000J0D01*
G01*
X45991500Y-78232000D02*
G75*
G03X45991500Y-78232000I-2537500J0D01*
G01*
X52269000Y-80731000D02*
X52269000Y-75733000D01*
X52129000Y-80723000D02*
X52129000Y-75741000D01*
X51989000Y-80707000D02*
X51989000Y-78327000D01*
X51989000Y-78137000D02*
X51989000Y-75757000D01*
X51849000Y-80683000D02*
X51849000Y-78722000D01*
X51849000Y-77742000D02*
X51849000Y-75781000D01*
X51709000Y-80650000D02*
X51709000Y-78889000D01*
X51709000Y-77575000D02*
X51709000Y-75814000D01*
X51569000Y-80609000D02*
X51569000Y-78996000D01*
X51569000Y-77468000D02*
X51569000Y-75855000D01*
X51429000Y-80559000D02*
X51429000Y-79067000D01*
X51429000Y-77397000D02*
X51429000Y-75905000D01*
X51289000Y-80498000D02*
X51289000Y-79111000D01*
X51289000Y-77353000D02*
X51289000Y-75966000D01*
X51149000Y-80428000D02*
X51149000Y-79130000D01*
X51149000Y-77334000D02*
X51149000Y-76036000D01*
X51009000Y-80346000D02*
X51009000Y-79128000D01*
X51009000Y-77336000D02*
X51009000Y-76118000D01*
X50869000Y-80251000D02*
X50869000Y-79103000D01*
X50869000Y-77361000D02*
X50869000Y-76213000D01*
X50729000Y-80140000D02*
X50729000Y-79055000D01*
X50729000Y-77409000D02*
X50729000Y-76324000D01*
X50589000Y-80012000D02*
X50589000Y-78977000D01*
X50589000Y-77487000D02*
X50589000Y-76452000D01*
X50449000Y-79863000D02*
X50449000Y-78860000D01*
X50449000Y-77604000D02*
X50449000Y-76601000D01*
X50309000Y-79684000D02*
X50309000Y-78672000D01*
X50309000Y-77792000D02*
X50309000Y-76780000D01*
X50169000Y-79465000D02*
X50169000Y-76999000D01*
X50029000Y-79176000D02*
X50029000Y-77288000D01*
X49889000Y-78704000D02*
X49889000Y-77760000D01*
X51994000Y-78232000D02*
G75*
G03X51994000Y-78232000I-900000J0D01*
G01*
X54881500Y-78232000D02*
G75*
G03X54881500Y-78232000I-2537500J0D01*
G01*
X123516000Y-78191000D02*
X123516000Y-73193000D01*
X123376000Y-78183000D02*
X123376000Y-73201000D01*
X123236000Y-78167000D02*
X123236000Y-75787000D01*
X123236000Y-75597000D02*
X123236000Y-73217000D01*
X123096000Y-78143000D02*
X123096000Y-76182000D01*
X123096000Y-75202000D02*
X123096000Y-73241000D01*
X122956000Y-78110000D02*
X122956000Y-76349000D01*
X122956000Y-75035000D02*
X122956000Y-73274000D01*
X122816000Y-78069000D02*
X122816000Y-76456000D01*
X122816000Y-74928000D02*
X122816000Y-73315000D01*
X122676000Y-78019000D02*
X122676000Y-76527000D01*
X122676000Y-74857000D02*
X122676000Y-73365000D01*
X122536000Y-77958000D02*
X122536000Y-76571000D01*
X122536000Y-74813000D02*
X122536000Y-73426000D01*
X122396000Y-77888000D02*
X122396000Y-76590000D01*
X122396000Y-74794000D02*
X122396000Y-73496000D01*
X122256000Y-77806000D02*
X122256000Y-76588000D01*
X122256000Y-74796000D02*
X122256000Y-73578000D01*
X122116000Y-77711000D02*
X122116000Y-76563000D01*
X122116000Y-74821000D02*
X122116000Y-73673000D01*
X121976000Y-77600000D02*
X121976000Y-76515000D01*
X121976000Y-74869000D02*
X121976000Y-73784000D01*
X121836000Y-77472000D02*
X121836000Y-76437000D01*
X121836000Y-74947000D02*
X121836000Y-73912000D01*
X121696000Y-77323000D02*
X121696000Y-76320000D01*
X121696000Y-75064000D02*
X121696000Y-74061000D01*
X121556000Y-77144000D02*
X121556000Y-76132000D01*
X121556000Y-75252000D02*
X121556000Y-74240000D01*
X121416000Y-76925000D02*
X121416000Y-74459000D01*
X121276000Y-76636000D02*
X121276000Y-74748000D01*
X121136000Y-76164000D02*
X121136000Y-75220000D01*
X123241000Y-75692000D02*
G75*
G03X123241000Y-75692000I-900000J0D01*
G01*
X126128500Y-75692000D02*
G75*
G03X126128500Y-75692000I-2537500J0D01*
G01*
X103192000Y-55966000D02*
X103192000Y-50968000D01*
X103052000Y-55958000D02*
X103052000Y-53621000D01*
X103052000Y-53313000D02*
X103052000Y-50976000D01*
X102912000Y-55942000D02*
X102912000Y-53940000D01*
X102912000Y-52994000D02*
X102912000Y-50992000D01*
X102772000Y-55918000D02*
X102772000Y-54087000D01*
X102772000Y-52847000D02*
X102772000Y-51016000D01*
X102632000Y-55885000D02*
X102632000Y-54179000D01*
X102632000Y-52755000D02*
X102632000Y-51049000D01*
X102492000Y-55844000D02*
X102492000Y-54235000D01*
X102492000Y-52699000D02*
X102492000Y-51090000D01*
X102352000Y-55794000D02*
X102352000Y-54262000D01*
X102352000Y-52672000D02*
X102352000Y-51140000D01*
X102212000Y-55733000D02*
X102212000Y-54265000D01*
X102212000Y-52669000D02*
X102212000Y-51201000D01*
X102072000Y-55663000D02*
X102072000Y-54243000D01*
X102072000Y-52691000D02*
X102072000Y-51271000D01*
X101932000Y-55581000D02*
X101932000Y-54193000D01*
X101932000Y-52741000D02*
X101932000Y-51353000D01*
X101792000Y-55486000D02*
X101792000Y-54111000D01*
X101792000Y-52823000D02*
X101792000Y-51448000D01*
X101652000Y-55375000D02*
X101652000Y-53979000D01*
X101652000Y-52955000D02*
X101652000Y-51559000D01*
X101512000Y-55247000D02*
X101512000Y-53732000D01*
X101512000Y-53202000D02*
X101512000Y-51687000D01*
X101372000Y-55098000D02*
X101372000Y-51836000D01*
X101232000Y-54919000D02*
X101232000Y-52015000D01*
X101092000Y-54700000D02*
X101092000Y-52234000D01*
X100952000Y-54411000D02*
X100952000Y-52523000D01*
X100812000Y-53939000D02*
X100812000Y-52995000D01*
X103067000Y-53467000D02*
G75*
G03X103067000Y-53467000I-800000J0D01*
G01*
X105804500Y-53467000D02*
G75*
G03X105804500Y-53467000I-2537500J0D01*
G01*
X121285000Y-104137460D02*
X122301000Y-104137460D01*
X116459000Y-104137460D02*
X115189000Y-104137460D01*
X116713000Y-102867460D02*
X116713000Y-105407460D01*
X116967000Y-102867460D02*
X116967000Y-105407460D01*
X117221000Y-102867460D02*
X117221000Y-105407460D01*
X116459000Y-102867460D02*
X116459000Y-105407460D01*
X117475000Y-102867460D02*
X116205000Y-105407460D01*
X116205000Y-102867460D02*
X117475000Y-105407460D01*
X117475000Y-102867460D02*
X117475000Y-105407460D01*
X116840000Y-102867460D02*
X116840000Y-105407460D01*
X116205000Y-105407460D02*
X116205000Y-102867460D01*
X116205000Y-102867460D02*
X121285000Y-102867460D01*
X121285000Y-102867460D02*
X121285000Y-105407460D01*
X121285000Y-105407460D02*
X116205000Y-105407460D01*
X121285000Y-100327460D02*
X122301000Y-100327460D01*
X116459000Y-100327460D02*
X115189000Y-100327460D01*
X116713000Y-99057460D02*
X116713000Y-101597460D01*
X116967000Y-99057460D02*
X116967000Y-101597460D01*
X117221000Y-99057460D02*
X117221000Y-101597460D01*
X116459000Y-99057460D02*
X116459000Y-101597460D01*
X117475000Y-99057460D02*
X116205000Y-101597460D01*
X116205000Y-99057460D02*
X117475000Y-101597460D01*
X117475000Y-99057460D02*
X117475000Y-101597460D01*
X116840000Y-99057460D02*
X116840000Y-101597460D01*
X116205000Y-101597460D02*
X116205000Y-99057460D01*
X116205000Y-99057460D02*
X121285000Y-99057460D01*
X121285000Y-99057460D02*
X121285000Y-101597460D01*
X121285000Y-101597460D02*
X116205000Y-101597460D01*
X87757520Y-72514460D02*
X89154520Y-72514460D01*
X83312520Y-72514460D02*
X81788520Y-72514460D01*
X83693520Y-71752460D02*
X83693520Y-73276460D01*
X83439520Y-71752460D02*
X83439520Y-73276460D01*
X83185520Y-72514460D02*
X83185520Y-73276460D01*
X83185520Y-73276460D02*
X87757520Y-73276460D01*
X87757520Y-73276460D02*
X87757520Y-71752460D01*
X87757520Y-71752460D02*
X83185520Y-71752460D01*
X83185520Y-71752460D02*
X83185520Y-72514460D01*
X53340520Y-67434460D02*
X54737520Y-67434460D01*
X48895520Y-67434460D02*
X47371520Y-67434460D01*
X49276520Y-66672460D02*
X49276520Y-68196460D01*
X49022520Y-66672460D02*
X49022520Y-68196460D01*
X48768520Y-67434460D02*
X48768520Y-68196460D01*
X48768520Y-68196460D02*
X53340520Y-68196460D01*
X53340520Y-68196460D02*
X53340520Y-66672460D01*
X53340520Y-66672460D02*
X48768520Y-66672460D01*
X48768520Y-66672460D02*
X48768520Y-67434460D01*
X61213480Y-91823540D02*
X59816480Y-91823540D01*
X65658480Y-91823540D02*
X67182480Y-91823540D01*
X65277480Y-92585540D02*
X65277480Y-91061540D01*
X65531480Y-92585540D02*
X65531480Y-91061540D01*
X65785480Y-91823540D02*
X65785480Y-91061540D01*
X65785480Y-91061540D02*
X61213480Y-91061540D01*
X61213480Y-91061540D02*
X61213480Y-92585540D01*
X61213480Y-92585540D02*
X65785480Y-92585540D01*
X65785480Y-92585540D02*
X65785480Y-91823540D01*
X87757520Y-68704460D02*
X89154520Y-68704460D01*
X83312520Y-68704460D02*
X81788520Y-68704460D01*
X83693520Y-67942460D02*
X83693520Y-69466460D01*
X83439520Y-67942460D02*
X83439520Y-69466460D01*
X83185520Y-68704460D02*
X83185520Y-69466460D01*
X83185520Y-69466460D02*
X87757520Y-69466460D01*
X87757520Y-69466460D02*
X87757520Y-67942460D01*
X87757520Y-67942460D02*
X83185520Y-67942460D01*
X83185520Y-67942460D02*
X83185520Y-68704460D01*
X66675520Y-71244460D02*
X68072520Y-71244460D01*
X62230520Y-71244460D02*
X60706520Y-71244460D01*
X62611520Y-70482460D02*
X62611520Y-72006460D01*
X62357520Y-70482460D02*
X62357520Y-72006460D01*
X62103520Y-71244460D02*
X62103520Y-72006460D01*
X62103520Y-72006460D02*
X66675520Y-72006460D01*
X66675520Y-72006460D02*
X66675520Y-70482460D01*
X66675520Y-70482460D02*
X62103520Y-70482460D01*
X62103520Y-70482460D02*
X62103520Y-71244460D01*
X61213480Y-86743540D02*
X59816480Y-86743540D01*
X65658480Y-86743540D02*
X67182480Y-86743540D01*
X65277480Y-87505540D02*
X65277480Y-85981540D01*
X65531480Y-87505540D02*
X65531480Y-85981540D01*
X65785480Y-86743540D02*
X65785480Y-85981540D01*
X65785480Y-85981540D02*
X61213480Y-85981540D01*
X61213480Y-85981540D02*
X61213480Y-87505540D01*
X61213480Y-87505540D02*
X65785480Y-87505540D01*
X65785480Y-87505540D02*
X65785480Y-86743540D01*
X100711000Y-71247000D02*
X105791000Y-71247000D01*
X105791000Y-71247000D02*
X105791000Y-73787000D01*
X105791000Y-73787000D02*
X100711000Y-73787000D01*
X100711000Y-73787000D02*
X100711000Y-71247000D01*
X88011000Y-103251000D02*
X88011000Y-98171000D01*
X88011000Y-98171000D02*
X90551000Y-98171000D01*
X90551000Y-98171000D02*
X90551000Y-103251000D01*
X90551000Y-103251000D02*
X88011000Y-103251000D01*
X92456000Y-103251000D02*
X92456000Y-98171000D01*
X92456000Y-98171000D02*
X94996000Y-98171000D01*
X94996000Y-98171000D02*
X94996000Y-103251000D01*
X94996000Y-103251000D02*
X92456000Y-103251000D01*
X90551000Y-87376000D02*
X90551000Y-92456000D01*
X90551000Y-92456000D02*
X88011000Y-92456000D01*
X88011000Y-92456000D02*
X88011000Y-87376000D01*
X88011000Y-87376000D02*
X90551000Y-87376000D01*
X92456000Y-92456000D02*
X92456000Y-87376000D01*
X92456000Y-87376000D02*
X94996000Y-87376000D01*
X94996000Y-87376000D02*
X94996000Y-92456000D01*
X94996000Y-92456000D02*
X92456000Y-92456000D01*
X107061000Y-57277000D02*
X112141000Y-57277000D01*
X112141000Y-57277000D02*
X112141000Y-59817000D01*
X112141000Y-59817000D02*
X107061000Y-59817000D01*
X107061000Y-59817000D02*
X107061000Y-57277000D01*
X47625000Y-48895000D02*
X52705000Y-48895000D01*
X52705000Y-48895000D02*
X52705000Y-51435000D01*
X52705000Y-51435000D02*
X47625000Y-51435000D01*
X47625000Y-51435000D02*
X47625000Y-48895000D01*
X119761000Y-57277000D02*
X124841000Y-57277000D01*
X124841000Y-57277000D02*
X124841000Y-59817000D01*
X124841000Y-59817000D02*
X119761000Y-59817000D01*
X119761000Y-59817000D02*
X119761000Y-57277000D01*
X94361000Y-62357000D02*
X99441000Y-62357000D01*
X99441000Y-62357000D02*
X99441000Y-64897000D01*
X99441000Y-64897000D02*
X94361000Y-64897000D01*
X94361000Y-64897000D02*
X94361000Y-62357000D01*
X47625000Y-53340000D02*
X52705000Y-53340000D01*
X52705000Y-53340000D02*
X52705000Y-55880000D01*
X52705000Y-55880000D02*
X47625000Y-55880000D01*
X47625000Y-55880000D02*
X47625000Y-53340000D01*
X107061000Y-62357000D02*
X112141000Y-62357000D01*
X112141000Y-62357000D02*
X112141000Y-64897000D01*
X112141000Y-64897000D02*
X107061000Y-64897000D01*
X107061000Y-64897000D02*
X107061000Y-62357000D01*
X47625000Y-57785000D02*
X52705000Y-57785000D01*
X52705000Y-57785000D02*
X52705000Y-60325000D01*
X52705000Y-60325000D02*
X47625000Y-60325000D01*
X47625000Y-60325000D02*
X47625000Y-57785000D01*
X124841000Y-64897000D02*
X119761000Y-64897000D01*
X119761000Y-64897000D02*
X119761000Y-62357000D01*
X119761000Y-62357000D02*
X124841000Y-62357000D01*
X124841000Y-62357000D02*
X124841000Y-64897000D01*
X61595000Y-57785000D02*
X66675000Y-57785000D01*
X66675000Y-57785000D02*
X66675000Y-60325000D01*
X66675000Y-60325000D02*
X61595000Y-60325000D01*
X61595000Y-60325000D02*
X61595000Y-57785000D01*
X46990000Y-95631000D02*
X52070000Y-95631000D01*
X52070000Y-95631000D02*
X52070000Y-98171000D01*
X52070000Y-98171000D02*
X46990000Y-98171000D01*
X46990000Y-98171000D02*
X46990000Y-95631000D01*
X47625000Y-62230000D02*
X52705000Y-62230000D01*
X52705000Y-62230000D02*
X52705000Y-64770000D01*
X52705000Y-64770000D02*
X47625000Y-64770000D01*
X47625000Y-64770000D02*
X47625000Y-62230000D01*
X66675000Y-64770000D02*
X61595000Y-64770000D01*
X61595000Y-64770000D02*
X61595000Y-62230000D01*
X61595000Y-62230000D02*
X66675000Y-62230000D01*
X66675000Y-62230000D02*
X66675000Y-64770000D01*
X81541000Y-62277000D02*
X86621000Y-62277000D01*
X86621000Y-62277000D02*
X86621000Y-64817000D01*
X86621000Y-64817000D02*
X81541000Y-64817000D01*
X81541000Y-64817000D02*
X81541000Y-62277000D01*
X107306000Y-53332000D02*
X108576000Y-53332000D01*
X107306000Y-45982000D02*
X108576000Y-45982000D01*
X127136000Y-45982000D02*
X125866000Y-45982000D01*
X127136000Y-53332000D02*
X125866000Y-53332000D01*
X107306000Y-53332000D02*
X107306000Y-45982000D01*
X127136000Y-53332000D02*
X127136000Y-45982000D01*
X108576000Y-53332000D02*
X108576000Y-54617000D01*
X98306000Y-89526000D02*
X98306000Y-90796000D01*
X105656000Y-89526000D02*
X105656000Y-90796000D01*
X105656000Y-101736000D02*
X105656000Y-100466000D01*
X98306000Y-101736000D02*
X98306000Y-100466000D01*
X98306000Y-89526000D02*
X105656000Y-89526000D01*
X98306000Y-101736000D02*
X105656000Y-101736000D01*
X98306000Y-90796000D02*
X97021000Y-90796000D01*
X105537520Y-68704460D02*
X106934520Y-68704460D01*
X101092520Y-68704460D02*
X99568520Y-68704460D01*
X101473520Y-67942460D02*
X101473520Y-69466460D01*
X101219520Y-67942460D02*
X101219520Y-69466460D01*
X100965520Y-68704460D02*
X100965520Y-69466460D01*
X100965520Y-69466460D02*
X105537520Y-69466460D01*
X105537520Y-69466460D02*
X105537520Y-67942460D01*
X105537520Y-67942460D02*
X100965520Y-67942460D01*
X100965520Y-67942460D02*
X100965520Y-68704460D01*
X123317520Y-68704460D02*
X124714520Y-68704460D01*
X118872520Y-68704460D02*
X117348520Y-68704460D01*
X119253520Y-67942460D02*
X119253520Y-69466460D01*
X118999520Y-67942460D02*
X118999520Y-69466460D01*
X118745520Y-68704460D02*
X118745520Y-69466460D01*
X118745520Y-69466460D02*
X123317520Y-69466460D01*
X123317520Y-69466460D02*
X123317520Y-67942460D01*
X123317520Y-67942460D02*
X118745520Y-67942460D01*
X118745520Y-67942460D02*
X118745520Y-68704460D01*
X40005520Y-71244460D02*
X41402520Y-71244460D01*
X35560520Y-71244460D02*
X34036520Y-71244460D01*
X35941520Y-70482460D02*
X35941520Y-72006460D01*
X35687520Y-70482460D02*
X35687520Y-72006460D01*
X35433520Y-71244460D02*
X35433520Y-72006460D01*
X35433520Y-72006460D02*
X40005520Y-72006460D01*
X40005520Y-72006460D02*
X40005520Y-70482460D01*
X40005520Y-70482460D02*
X35433520Y-70482460D01*
X35433520Y-70482460D02*
X35433520Y-71244460D01*
X53340520Y-71244460D02*
X54737520Y-71244460D01*
X48895520Y-71244460D02*
X47371520Y-71244460D01*
X49276520Y-70482460D02*
X49276520Y-72006460D01*
X49022520Y-70482460D02*
X49022520Y-72006460D01*
X48768520Y-71244460D02*
X48768520Y-72006460D01*
X48768520Y-72006460D02*
X53340520Y-72006460D01*
X53340520Y-72006460D02*
X53340520Y-70482460D01*
X53340520Y-70482460D02*
X48768520Y-70482460D01*
X48768520Y-70482460D02*
X48768520Y-71244460D01*
X61213480Y-96903540D02*
X59816480Y-96903540D01*
X65658480Y-96903540D02*
X67182480Y-96903540D01*
X65277480Y-97665540D02*
X65277480Y-96141540D01*
X65531480Y-97665540D02*
X65531480Y-96141540D01*
X65785480Y-96903540D02*
X65785480Y-96141540D01*
X65785480Y-96141540D02*
X61213480Y-96141540D01*
X61213480Y-96141540D02*
X61213480Y-97665540D01*
X61213480Y-97665540D02*
X65785480Y-97665540D01*
X65785480Y-97665540D02*
X65785480Y-96903540D01*
X61213480Y-101983540D02*
X59816480Y-101983540D01*
X65658480Y-101983540D02*
X67182480Y-101983540D01*
X65277480Y-102745540D02*
X65277480Y-101221540D01*
X65531480Y-102745540D02*
X65531480Y-101221540D01*
X65785480Y-101983540D02*
X65785480Y-101221540D01*
X65785480Y-101221540D02*
X61213480Y-101221540D01*
X61213480Y-101221540D02*
X61213480Y-102745540D01*
X61213480Y-102745540D02*
X65785480Y-102745540D01*
X65785480Y-102745540D02*
X65785480Y-101983540D01*
X81541000Y-57197000D02*
X86621000Y-57197000D01*
X86621000Y-57197000D02*
X86621000Y-59737000D01*
X86621000Y-59737000D02*
X81541000Y-59737000D01*
X81541000Y-59737000D02*
X81541000Y-57197000D01*
X94361000Y-57277000D02*
X99441000Y-57277000D01*
X99441000Y-57277000D02*
X99441000Y-59817000D01*
X99441000Y-59817000D02*
X94361000Y-59817000D01*
X94361000Y-59817000D02*
X94361000Y-57277000D01*
X61595000Y-48895000D02*
X66675000Y-48895000D01*
X66675000Y-48895000D02*
X66675000Y-51435000D01*
X66675000Y-51435000D02*
X61595000Y-51435000D01*
X61595000Y-51435000D02*
X61595000Y-48895000D01*
X52070000Y-88011000D02*
X46990000Y-88011000D01*
X46990000Y-88011000D02*
X46990000Y-85471000D01*
X46990000Y-85471000D02*
X52070000Y-85471000D01*
X52070000Y-85471000D02*
X52070000Y-88011000D01*
X66675000Y-55880000D02*
X61595000Y-55880000D01*
X61595000Y-55880000D02*
X61595000Y-53340000D01*
X61595000Y-53340000D02*
X66675000Y-53340000D01*
X66675000Y-53340000D02*
X66675000Y-55880000D01*
X52070000Y-93091000D02*
X46990000Y-93091000D01*
X46990000Y-93091000D02*
X46990000Y-90551000D01*
X46990000Y-90551000D02*
X52070000Y-90551000D01*
X52070000Y-90551000D02*
X52070000Y-93091000D01*
X120142000Y-112014000D02*
X127762000Y-112014000D01*
X120142000Y-109474000D02*
X127762000Y-109474000D01*
X117322000Y-109194000D02*
X118872000Y-109194000D01*
X127762000Y-112014000D02*
X127762000Y-109474000D01*
X120142000Y-109474000D02*
X120142000Y-112014000D01*
X118872000Y-112294000D02*
X117322000Y-112294000D01*
X117322000Y-112294000D02*
X117322000Y-109194000D01*
X88900000Y-112294000D02*
X87350000Y-112294000D01*
X87350000Y-112294000D02*
X87350000Y-109194000D01*
X87350000Y-109194000D02*
X88900000Y-109194000D01*
X90170000Y-109474000D02*
X100330000Y-109474000D01*
X100330000Y-109474000D02*
X100330000Y-112014000D01*
X100330000Y-112014000D02*
X90170000Y-112014000D01*
X90170000Y-109474000D02*
X90170000Y-112014000D01*
X100330000Y-32385000D02*
X128270000Y-32385000D01*
X128270000Y-32385000D02*
X128270000Y-34925000D01*
X128270000Y-34925000D02*
X100330000Y-34925000D01*
X97510000Y-32105000D02*
X99060000Y-32105000D01*
X100330000Y-32385000D02*
X100330000Y-34925000D01*
X99060000Y-35205000D02*
X97510000Y-35205000D01*
X97510000Y-35205000D02*
X97510000Y-32105000D01*
X50038000Y-109474000D02*
X77978000Y-109474000D01*
X77978000Y-109474000D02*
X77978000Y-112014000D01*
X77978000Y-112014000D02*
X50038000Y-112014000D01*
X47218000Y-109194000D02*
X48768000Y-109194000D01*
X50038000Y-109474000D02*
X50038000Y-112014000D01*
X48768000Y-112294000D02*
X47218000Y-112294000D01*
X47218000Y-112294000D02*
X47218000Y-109194000D01*
X61595000Y-32385000D02*
X84455000Y-32385000D01*
X84455000Y-32385000D02*
X84455000Y-34925000D01*
X84455000Y-34925000D02*
X61595000Y-34925000D01*
X58775000Y-32105000D02*
X60325000Y-32105000D01*
X61595000Y-32385000D02*
X61595000Y-34925000D01*
X60325000Y-35205000D02*
X58775000Y-35205000D01*
X58775000Y-35205000D02*
X58775000Y-32105000D01*
X33155000Y-85716000D02*
X33155000Y-86986000D01*
X40505000Y-85716000D02*
X40505000Y-86986000D01*
X40505000Y-105546000D02*
X40505000Y-104276000D01*
X33155000Y-105546000D02*
X33155000Y-104276000D01*
X33155000Y-85716000D02*
X40505000Y-85716000D01*
X33155000Y-105546000D02*
X40505000Y-105546000D01*
X33155000Y-86986000D02*
X31870000Y-86986000D01*
X33409000Y-47997000D02*
X33409000Y-49267000D01*
X40759000Y-47997000D02*
X40759000Y-49267000D01*
X40759000Y-67827000D02*
X40759000Y-66557000D01*
X33409000Y-67827000D02*
X33409000Y-66557000D01*
X33409000Y-47997000D02*
X40759000Y-47997000D01*
X33409000Y-67827000D02*
X40759000Y-67827000D01*
X33409000Y-49267000D02*
X32124000Y-49267000D01*
X79246000Y-53252000D02*
X80516000Y-53252000D01*
X79246000Y-45902000D02*
X80516000Y-45902000D01*
X99076000Y-45902000D02*
X97806000Y-45902000D01*
X99076000Y-53252000D02*
X97806000Y-53252000D01*
X79246000Y-53252000D02*
X79246000Y-45902000D01*
X99076000Y-53252000D02*
X99076000Y-45902000D01*
X80516000Y-53252000D02*
X80516000Y-54537000D01*
X111477305Y-96881990D02*
G75*
G03X111965000Y-97585000I2187695J996990D01*
G01*
X115852695Y-96881990D02*
G75*
G02X115365000Y-97585000I-2187695J996990D01*
G01*
X111965000Y-97585000D02*
X115365000Y-97585000D01*
X111480121Y-94891873D02*
G75*
G02X113665000Y-93485000I2184879J-993127D01*
G01*
X115849879Y-94891873D02*
G75*
G03X113665000Y-93485000I-2184879J-993127D01*
G01*
X70134000Y-80427000D02*
X70134000Y-75327000D01*
X67534000Y-75327000D02*
X67534000Y-80427000D01*
X70034000Y-80427000D02*
X67634000Y-80427000D01*
X67584000Y-75327000D02*
X70084000Y-75327000D01*
X73370000Y-88041000D02*
X78470000Y-88041000D01*
X78470000Y-85441000D02*
X73370000Y-85441000D01*
X73370000Y-87941000D02*
X73370000Y-85541000D01*
X78470000Y-85491000D02*
X78470000Y-87991000D01*
X117511000Y-71217000D02*
X112411000Y-71217000D01*
X112411000Y-73817000D02*
X117511000Y-73817000D01*
X117511000Y-71317000D02*
X117511000Y-73717000D01*
X112411000Y-73767000D02*
X112411000Y-71267000D01*
X84491000Y-76932000D02*
X79391000Y-76932000D01*
X79391000Y-79532000D02*
X84491000Y-79532000D01*
X84491000Y-77032000D02*
X84491000Y-79432000D01*
X79391000Y-79482000D02*
X79391000Y-76982000D01*
X110490000Y-115316000D02*
G75*
G03X110490000Y-115316000I-2286000J0D01*
G01*
X93218000Y-38608000D02*
G75*
G03X93218000Y-38608000I-2286000J0D01*
G01*
X38862000Y-115316000D02*
G75*
G03X38862000Y-115316000I-2286000J0D01*
G01*
X35814000Y-33528000D02*
G75*
G03X35814000Y-33528000I-2286000J0D01*
G01*
X119213334Y-85447143D02*
X119165715Y-85494762D01*
X119022858Y-85542381D01*
X118927620Y-85542381D01*
X118784762Y-85494762D01*
X118689524Y-85399524D01*
X118641905Y-85304286D01*
X118594286Y-85113810D01*
X118594286Y-84970952D01*
X118641905Y-84780476D01*
X118689524Y-84685238D01*
X118784762Y-84590000D01*
X118927620Y-84542381D01*
X119022858Y-84542381D01*
X119165715Y-84590000D01*
X119213334Y-84637619D01*
X119546667Y-84542381D02*
X120165715Y-84542381D01*
X119832381Y-84923333D01*
X119975239Y-84923333D01*
X120070477Y-84970952D01*
X120118096Y-85018571D01*
X120165715Y-85113810D01*
X120165715Y-85351905D01*
X120118096Y-85447143D01*
X120070477Y-85494762D01*
X119975239Y-85542381D01*
X119689524Y-85542381D01*
X119594286Y-85494762D01*
X119546667Y-85447143D01*
X80859334Y-86463143D02*
X80811715Y-86510762D01*
X80668858Y-86558381D01*
X80573620Y-86558381D01*
X80430762Y-86510762D01*
X80335524Y-86415524D01*
X80287905Y-86320286D01*
X80240286Y-86129810D01*
X80240286Y-85986952D01*
X80287905Y-85796476D01*
X80335524Y-85701238D01*
X80430762Y-85606000D01*
X80573620Y-85558381D01*
X80668858Y-85558381D01*
X80811715Y-85606000D01*
X80859334Y-85653619D01*
X81811715Y-86558381D02*
X81240286Y-86558381D01*
X81526000Y-86558381D02*
X81526000Y-85558381D01*
X81430762Y-85701238D01*
X81335524Y-85796476D01*
X81240286Y-85844095D01*
X80859334Y-93448143D02*
X80811715Y-93495762D01*
X80668858Y-93543381D01*
X80573620Y-93543381D01*
X80430762Y-93495762D01*
X80335524Y-93400524D01*
X80287905Y-93305286D01*
X80240286Y-93114810D01*
X80240286Y-92971952D01*
X80287905Y-92781476D01*
X80335524Y-92686238D01*
X80430762Y-92591000D01*
X80573620Y-92543381D01*
X80668858Y-92543381D01*
X80811715Y-92591000D01*
X80859334Y-92638619D01*
X81240286Y-92638619D02*
X81287905Y-92591000D01*
X81383143Y-92543381D01*
X81621239Y-92543381D01*
X81716477Y-92591000D01*
X81764096Y-92638619D01*
X81811715Y-92733857D01*
X81811715Y-92829095D01*
X81764096Y-92971952D01*
X81192667Y-93543381D01*
X81811715Y-93543381D01*
X100544334Y-44934143D02*
X100496715Y-44981762D01*
X100353858Y-45029381D01*
X100258620Y-45029381D01*
X100115762Y-44981762D01*
X100020524Y-44886524D01*
X99972905Y-44791286D01*
X99925286Y-44600810D01*
X99925286Y-44457952D01*
X99972905Y-44267476D01*
X100020524Y-44172238D01*
X100115762Y-44077000D01*
X100258620Y-44029381D01*
X100353858Y-44029381D01*
X100496715Y-44077000D01*
X100544334Y-44124619D01*
X101020524Y-45029381D02*
X101211000Y-45029381D01*
X101306239Y-44981762D01*
X101353858Y-44934143D01*
X101449096Y-44791286D01*
X101496715Y-44600810D01*
X101496715Y-44219857D01*
X101449096Y-44124619D01*
X101401477Y-44077000D01*
X101306239Y-44029381D01*
X101115762Y-44029381D01*
X101020524Y-44077000D01*
X100972905Y-44124619D01*
X100925286Y-44219857D01*
X100925286Y-44457952D01*
X100972905Y-44553190D01*
X101020524Y-44600810D01*
X101115762Y-44648429D01*
X101306239Y-44648429D01*
X101401477Y-44600810D01*
X101449096Y-44553190D01*
X101496715Y-44457952D01*
X109688334Y-85447143D02*
X109640715Y-85494762D01*
X109497858Y-85542381D01*
X109402620Y-85542381D01*
X109259762Y-85494762D01*
X109164524Y-85399524D01*
X109116905Y-85304286D01*
X109069286Y-85113810D01*
X109069286Y-84970952D01*
X109116905Y-84780476D01*
X109164524Y-84685238D01*
X109259762Y-84590000D01*
X109402620Y-84542381D01*
X109497858Y-84542381D01*
X109640715Y-84590000D01*
X109688334Y-84637619D01*
X110545477Y-84542381D02*
X110355000Y-84542381D01*
X110259762Y-84590000D01*
X110212143Y-84637619D01*
X110116905Y-84780476D01*
X110069286Y-84970952D01*
X110069286Y-85351905D01*
X110116905Y-85447143D01*
X110164524Y-85494762D01*
X110259762Y-85542381D01*
X110450239Y-85542381D01*
X110545477Y-85494762D01*
X110593096Y-85447143D01*
X110640715Y-85351905D01*
X110640715Y-85113810D01*
X110593096Y-85018571D01*
X110545477Y-84970952D01*
X110450239Y-84923333D01*
X110259762Y-84923333D01*
X110164524Y-84970952D01*
X110116905Y-85018571D01*
X110069286Y-85113810D01*
X121118334Y-94337143D02*
X121070715Y-94384762D01*
X120927858Y-94432381D01*
X120832620Y-94432381D01*
X120689762Y-94384762D01*
X120594524Y-94289524D01*
X120546905Y-94194286D01*
X120499286Y-94003810D01*
X120499286Y-93860952D01*
X120546905Y-93670476D01*
X120594524Y-93575238D01*
X120689762Y-93480000D01*
X120832620Y-93432381D01*
X120927858Y-93432381D01*
X121070715Y-93480000D01*
X121118334Y-93527619D01*
X121689762Y-93860952D02*
X121594524Y-93813333D01*
X121546905Y-93765714D01*
X121499286Y-93670476D01*
X121499286Y-93622857D01*
X121546905Y-93527619D01*
X121594524Y-93480000D01*
X121689762Y-93432381D01*
X121880239Y-93432381D01*
X121975477Y-93480000D01*
X122023096Y-93527619D01*
X122070715Y-93622857D01*
X122070715Y-93670476D01*
X122023096Y-93765714D01*
X121975477Y-93813333D01*
X121880239Y-93860952D01*
X121689762Y-93860952D01*
X121594524Y-93908571D01*
X121546905Y-93956190D01*
X121499286Y-94051429D01*
X121499286Y-94241905D01*
X121546905Y-94337143D01*
X121594524Y-94384762D01*
X121689762Y-94432381D01*
X121880239Y-94432381D01*
X121975477Y-94384762D01*
X122023096Y-94337143D01*
X122070715Y-94241905D01*
X122070715Y-94051429D01*
X122023096Y-93956190D01*
X121975477Y-93908571D01*
X121880239Y-93860952D01*
X80859334Y-100433143D02*
X80811715Y-100480762D01*
X80668858Y-100528381D01*
X80573620Y-100528381D01*
X80430762Y-100480762D01*
X80335524Y-100385524D01*
X80287905Y-100290286D01*
X80240286Y-100099810D01*
X80240286Y-99956952D01*
X80287905Y-99766476D01*
X80335524Y-99671238D01*
X80430762Y-99576000D01*
X80573620Y-99528381D01*
X80668858Y-99528381D01*
X80811715Y-99576000D01*
X80859334Y-99623619D01*
X81716477Y-99861714D02*
X81716477Y-100528381D01*
X81478381Y-99480762D02*
X81240286Y-100195048D01*
X81859334Y-100195048D01*
X88479334Y-76049143D02*
X88431715Y-76096762D01*
X88288858Y-76144381D01*
X88193620Y-76144381D01*
X88050762Y-76096762D01*
X87955524Y-76001524D01*
X87907905Y-75906286D01*
X87860286Y-75715810D01*
X87860286Y-75572952D01*
X87907905Y-75382476D01*
X87955524Y-75287238D01*
X88050762Y-75192000D01*
X88193620Y-75144381D01*
X88288858Y-75144381D01*
X88431715Y-75192000D01*
X88479334Y-75239619D01*
X88812667Y-75144381D02*
X89479334Y-75144381D01*
X89050762Y-76144381D01*
X96258143Y-76049143D02*
X96210524Y-76096762D01*
X96067667Y-76144381D01*
X95972429Y-76144381D01*
X95829571Y-76096762D01*
X95734333Y-76001524D01*
X95686714Y-75906286D01*
X95639095Y-75715810D01*
X95639095Y-75572952D01*
X95686714Y-75382476D01*
X95734333Y-75287238D01*
X95829571Y-75192000D01*
X95972429Y-75144381D01*
X96067667Y-75144381D01*
X96210524Y-75192000D01*
X96258143Y-75239619D01*
X97210524Y-76144381D02*
X96639095Y-76144381D01*
X96924809Y-76144381D02*
X96924809Y-75144381D01*
X96829571Y-75287238D01*
X96734333Y-75382476D01*
X96639095Y-75430095D01*
X97829571Y-75144381D02*
X97924810Y-75144381D01*
X98020048Y-75192000D01*
X98067667Y-75239619D01*
X98115286Y-75334857D01*
X98162905Y-75525333D01*
X98162905Y-75763429D01*
X98115286Y-75953905D01*
X98067667Y-76049143D01*
X98020048Y-76096762D01*
X97924810Y-76144381D01*
X97829571Y-76144381D01*
X97734333Y-76096762D01*
X97686714Y-76049143D01*
X97639095Y-75953905D01*
X97591476Y-75763429D01*
X97591476Y-75525333D01*
X97639095Y-75334857D01*
X97686714Y-75239619D01*
X97734333Y-75192000D01*
X97829571Y-75144381D01*
X74327143Y-99758143D02*
X74279524Y-99805762D01*
X74136667Y-99853381D01*
X74041429Y-99853381D01*
X73898571Y-99805762D01*
X73803333Y-99710524D01*
X73755714Y-99615286D01*
X73708095Y-99424810D01*
X73708095Y-99281952D01*
X73755714Y-99091476D01*
X73803333Y-98996238D01*
X73898571Y-98901000D01*
X74041429Y-98853381D01*
X74136667Y-98853381D01*
X74279524Y-98901000D01*
X74327143Y-98948619D01*
X74708095Y-98948619D02*
X74755714Y-98901000D01*
X74850952Y-98853381D01*
X75089048Y-98853381D01*
X75184286Y-98901000D01*
X75231905Y-98948619D01*
X75279524Y-99043857D01*
X75279524Y-99139095D01*
X75231905Y-99281952D01*
X74660476Y-99853381D01*
X75279524Y-99853381D01*
X75898571Y-98853381D02*
X75993810Y-98853381D01*
X76089048Y-98901000D01*
X76136667Y-98948619D01*
X76184286Y-99043857D01*
X76231905Y-99234333D01*
X76231905Y-99472429D01*
X76184286Y-99662905D01*
X76136667Y-99758143D01*
X76089048Y-99805762D01*
X75993810Y-99853381D01*
X75898571Y-99853381D01*
X75803333Y-99805762D01*
X75755714Y-99758143D01*
X75708095Y-99662905D01*
X75660476Y-99472429D01*
X75660476Y-99234333D01*
X75708095Y-99043857D01*
X75755714Y-98948619D01*
X75803333Y-98901000D01*
X75898571Y-98853381D01*
X60571143Y-74779143D02*
X60523524Y-74826762D01*
X60380667Y-74874381D01*
X60285429Y-74874381D01*
X60142571Y-74826762D01*
X60047333Y-74731524D01*
X59999714Y-74636286D01*
X59952095Y-74445810D01*
X59952095Y-74302952D01*
X59999714Y-74112476D01*
X60047333Y-74017238D01*
X60142571Y-73922000D01*
X60285429Y-73874381D01*
X60380667Y-73874381D01*
X60523524Y-73922000D01*
X60571143Y-73969619D01*
X61523524Y-74874381D02*
X60952095Y-74874381D01*
X61237809Y-74874381D02*
X61237809Y-73874381D01*
X61142571Y-74017238D01*
X61047333Y-74112476D01*
X60952095Y-74160095D01*
X61856857Y-73874381D02*
X62523524Y-73874381D01*
X62094952Y-74874381D01*
X74327143Y-104838143D02*
X74279524Y-104885762D01*
X74136667Y-104933381D01*
X74041429Y-104933381D01*
X73898571Y-104885762D01*
X73803333Y-104790524D01*
X73755714Y-104695286D01*
X73708095Y-104504810D01*
X73708095Y-104361952D01*
X73755714Y-104171476D01*
X73803333Y-104076238D01*
X73898571Y-103981000D01*
X74041429Y-103933381D01*
X74136667Y-103933381D01*
X74279524Y-103981000D01*
X74327143Y-104028619D01*
X74708095Y-104028619D02*
X74755714Y-103981000D01*
X74850952Y-103933381D01*
X75089048Y-103933381D01*
X75184286Y-103981000D01*
X75231905Y-104028619D01*
X75279524Y-104123857D01*
X75279524Y-104219095D01*
X75231905Y-104361952D01*
X74660476Y-104933381D01*
X75279524Y-104933381D01*
X75660476Y-104028619D02*
X75708095Y-103981000D01*
X75803333Y-103933381D01*
X76041429Y-103933381D01*
X76136667Y-103981000D01*
X76184286Y-104028619D01*
X76231905Y-104123857D01*
X76231905Y-104219095D01*
X76184286Y-104361952D01*
X75612857Y-104933381D01*
X76231905Y-104933381D01*
X104513143Y-76049143D02*
X104465524Y-76096762D01*
X104322667Y-76144381D01*
X104227429Y-76144381D01*
X104084571Y-76096762D01*
X103989333Y-76001524D01*
X103941714Y-75906286D01*
X103894095Y-75715810D01*
X103894095Y-75572952D01*
X103941714Y-75382476D01*
X103989333Y-75287238D01*
X104084571Y-75192000D01*
X104227429Y-75144381D01*
X104322667Y-75144381D01*
X104465524Y-75192000D01*
X104513143Y-75239619D01*
X105465524Y-76144381D02*
X104894095Y-76144381D01*
X105179809Y-76144381D02*
X105179809Y-75144381D01*
X105084571Y-75287238D01*
X104989333Y-75382476D01*
X104894095Y-75430095D01*
X106322667Y-75477714D02*
X106322667Y-76144381D01*
X106084571Y-75096762D02*
X105846476Y-75811048D01*
X106465524Y-75811048D01*
X33901143Y-74779143D02*
X33853524Y-74826762D01*
X33710667Y-74874381D01*
X33615429Y-74874381D01*
X33472571Y-74826762D01*
X33377333Y-74731524D01*
X33329714Y-74636286D01*
X33282095Y-74445810D01*
X33282095Y-74302952D01*
X33329714Y-74112476D01*
X33377333Y-74017238D01*
X33472571Y-73922000D01*
X33615429Y-73874381D01*
X33710667Y-73874381D01*
X33853524Y-73922000D01*
X33901143Y-73969619D01*
X34853524Y-74874381D02*
X34282095Y-74874381D01*
X34567809Y-74874381D02*
X34567809Y-73874381D01*
X34472571Y-74017238D01*
X34377333Y-74112476D01*
X34282095Y-74160095D01*
X35758286Y-73874381D02*
X35282095Y-73874381D01*
X35234476Y-74350571D01*
X35282095Y-74302952D01*
X35377333Y-74255333D01*
X35615429Y-74255333D01*
X35710667Y-74302952D01*
X35758286Y-74350571D01*
X35805905Y-74445810D01*
X35805905Y-74683905D01*
X35758286Y-74779143D01*
X35710667Y-74826762D01*
X35615429Y-74874381D01*
X35377333Y-74874381D01*
X35282095Y-74826762D01*
X35234476Y-74779143D01*
X43807143Y-99798143D02*
X43759524Y-99845762D01*
X43616667Y-99893381D01*
X43521429Y-99893381D01*
X43378571Y-99845762D01*
X43283333Y-99750524D01*
X43235714Y-99655286D01*
X43188095Y-99464810D01*
X43188095Y-99321952D01*
X43235714Y-99131476D01*
X43283333Y-99036238D01*
X43378571Y-98941000D01*
X43521429Y-98893381D01*
X43616667Y-98893381D01*
X43759524Y-98941000D01*
X43807143Y-98988619D01*
X44759524Y-99893381D02*
X44188095Y-99893381D01*
X44473809Y-99893381D02*
X44473809Y-98893381D01*
X44378571Y-99036238D01*
X44283333Y-99131476D01*
X44188095Y-99179095D01*
X45616667Y-98893381D02*
X45426190Y-98893381D01*
X45330952Y-98941000D01*
X45283333Y-98988619D01*
X45188095Y-99131476D01*
X45140476Y-99321952D01*
X45140476Y-99702905D01*
X45188095Y-99798143D01*
X45235714Y-99845762D01*
X45330952Y-99893381D01*
X45521429Y-99893381D01*
X45616667Y-99845762D01*
X45664286Y-99798143D01*
X45711905Y-99702905D01*
X45711905Y-99464810D01*
X45664286Y-99369571D01*
X45616667Y-99321952D01*
X45521429Y-99274333D01*
X45330952Y-99274333D01*
X45235714Y-99321952D01*
X45188095Y-99369571D01*
X45140476Y-99464810D01*
X112768143Y-76049143D02*
X112720524Y-76096762D01*
X112577667Y-76144381D01*
X112482429Y-76144381D01*
X112339571Y-76096762D01*
X112244333Y-76001524D01*
X112196714Y-75906286D01*
X112149095Y-75715810D01*
X112149095Y-75572952D01*
X112196714Y-75382476D01*
X112244333Y-75287238D01*
X112339571Y-75192000D01*
X112482429Y-75144381D01*
X112577667Y-75144381D01*
X112720524Y-75192000D01*
X112768143Y-75239619D01*
X113720524Y-76144381D02*
X113149095Y-76144381D01*
X113434809Y-76144381D02*
X113434809Y-75144381D01*
X113339571Y-75287238D01*
X113244333Y-75382476D01*
X113149095Y-75430095D01*
X114291952Y-75572952D02*
X114196714Y-75525333D01*
X114149095Y-75477714D01*
X114101476Y-75382476D01*
X114101476Y-75334857D01*
X114149095Y-75239619D01*
X114196714Y-75192000D01*
X114291952Y-75144381D01*
X114482429Y-75144381D01*
X114577667Y-75192000D01*
X114625286Y-75239619D01*
X114672905Y-75334857D01*
X114672905Y-75382476D01*
X114625286Y-75477714D01*
X114577667Y-75525333D01*
X114482429Y-75572952D01*
X114291952Y-75572952D01*
X114196714Y-75620571D01*
X114149095Y-75668190D01*
X114101476Y-75763429D01*
X114101476Y-75953905D01*
X114149095Y-76049143D01*
X114196714Y-76096762D01*
X114291952Y-76144381D01*
X114482429Y-76144381D01*
X114577667Y-76096762D01*
X114625286Y-76049143D01*
X114672905Y-75953905D01*
X114672905Y-75763429D01*
X114625286Y-75668190D01*
X114577667Y-75620571D01*
X114482429Y-75572952D01*
X74327143Y-94678143D02*
X74279524Y-94725762D01*
X74136667Y-94773381D01*
X74041429Y-94773381D01*
X73898571Y-94725762D01*
X73803333Y-94630524D01*
X73755714Y-94535286D01*
X73708095Y-94344810D01*
X73708095Y-94201952D01*
X73755714Y-94011476D01*
X73803333Y-93916238D01*
X73898571Y-93821000D01*
X74041429Y-93773381D01*
X74136667Y-93773381D01*
X74279524Y-93821000D01*
X74327143Y-93868619D01*
X75279524Y-94773381D02*
X74708095Y-94773381D01*
X74993809Y-94773381D02*
X74993809Y-93773381D01*
X74898571Y-93916238D01*
X74803333Y-94011476D01*
X74708095Y-94059095D01*
X75755714Y-94773381D02*
X75946190Y-94773381D01*
X76041429Y-94725762D01*
X76089048Y-94678143D01*
X76184286Y-94535286D01*
X76231905Y-94344810D01*
X76231905Y-93963857D01*
X76184286Y-93868619D01*
X76136667Y-93821000D01*
X76041429Y-93773381D01*
X75850952Y-93773381D01*
X75755714Y-93821000D01*
X75708095Y-93868619D01*
X75660476Y-93963857D01*
X75660476Y-94201952D01*
X75708095Y-94297190D01*
X75755714Y-94344810D01*
X75850952Y-94392429D01*
X76041429Y-94392429D01*
X76136667Y-94344810D01*
X76184286Y-94297190D01*
X76231905Y-94201952D01*
X49522143Y-99798143D02*
X49474524Y-99845762D01*
X49331667Y-99893381D01*
X49236429Y-99893381D01*
X49093571Y-99845762D01*
X48998333Y-99750524D01*
X48950714Y-99655286D01*
X48903095Y-99464810D01*
X48903095Y-99321952D01*
X48950714Y-99131476D01*
X48998333Y-99036238D01*
X49093571Y-98941000D01*
X49236429Y-98893381D01*
X49331667Y-98893381D01*
X49474524Y-98941000D01*
X49522143Y-98988619D01*
X49903095Y-98988619D02*
X49950714Y-98941000D01*
X50045952Y-98893381D01*
X50284048Y-98893381D01*
X50379286Y-98941000D01*
X50426905Y-98988619D01*
X50474524Y-99083857D01*
X50474524Y-99179095D01*
X50426905Y-99321952D01*
X49855476Y-99893381D01*
X50474524Y-99893381D01*
X51426905Y-99893381D02*
X50855476Y-99893381D01*
X51141190Y-99893381D02*
X51141190Y-98893381D01*
X51045952Y-99036238D01*
X50950714Y-99131476D01*
X50855476Y-99179095D01*
X42791143Y-74779143D02*
X42743524Y-74826762D01*
X42600667Y-74874381D01*
X42505429Y-74874381D01*
X42362571Y-74826762D01*
X42267333Y-74731524D01*
X42219714Y-74636286D01*
X42172095Y-74445810D01*
X42172095Y-74302952D01*
X42219714Y-74112476D01*
X42267333Y-74017238D01*
X42362571Y-73922000D01*
X42505429Y-73874381D01*
X42600667Y-73874381D01*
X42743524Y-73922000D01*
X42791143Y-73969619D01*
X43172095Y-73969619D02*
X43219714Y-73922000D01*
X43314952Y-73874381D01*
X43553048Y-73874381D01*
X43648286Y-73922000D01*
X43695905Y-73969619D01*
X43743524Y-74064857D01*
X43743524Y-74160095D01*
X43695905Y-74302952D01*
X43124476Y-74874381D01*
X43743524Y-74874381D01*
X44076857Y-73874381D02*
X44695905Y-73874381D01*
X44362571Y-74255333D01*
X44505429Y-74255333D01*
X44600667Y-74302952D01*
X44648286Y-74350571D01*
X44695905Y-74445810D01*
X44695905Y-74683905D01*
X44648286Y-74779143D01*
X44600667Y-74826762D01*
X44505429Y-74874381D01*
X44219714Y-74874381D01*
X44124476Y-74826762D01*
X44076857Y-74779143D01*
X51681143Y-74779143D02*
X51633524Y-74826762D01*
X51490667Y-74874381D01*
X51395429Y-74874381D01*
X51252571Y-74826762D01*
X51157333Y-74731524D01*
X51109714Y-74636286D01*
X51062095Y-74445810D01*
X51062095Y-74302952D01*
X51109714Y-74112476D01*
X51157333Y-74017238D01*
X51252571Y-73922000D01*
X51395429Y-73874381D01*
X51490667Y-73874381D01*
X51633524Y-73922000D01*
X51681143Y-73969619D01*
X52062095Y-73969619D02*
X52109714Y-73922000D01*
X52204952Y-73874381D01*
X52443048Y-73874381D01*
X52538286Y-73922000D01*
X52585905Y-73969619D01*
X52633524Y-74064857D01*
X52633524Y-74160095D01*
X52585905Y-74302952D01*
X52014476Y-74874381D01*
X52633524Y-74874381D01*
X53538286Y-73874381D02*
X53062095Y-73874381D01*
X53014476Y-74350571D01*
X53062095Y-74302952D01*
X53157333Y-74255333D01*
X53395429Y-74255333D01*
X53490667Y-74302952D01*
X53538286Y-74350571D01*
X53585905Y-74445810D01*
X53585905Y-74683905D01*
X53538286Y-74779143D01*
X53490667Y-74826762D01*
X53395429Y-74874381D01*
X53157333Y-74874381D01*
X53062095Y-74826762D01*
X53014476Y-74779143D01*
X120388143Y-72874143D02*
X120340524Y-72921762D01*
X120197667Y-72969381D01*
X120102429Y-72969381D01*
X119959571Y-72921762D01*
X119864333Y-72826524D01*
X119816714Y-72731286D01*
X119769095Y-72540810D01*
X119769095Y-72397952D01*
X119816714Y-72207476D01*
X119864333Y-72112238D01*
X119959571Y-72017000D01*
X120102429Y-71969381D01*
X120197667Y-71969381D01*
X120340524Y-72017000D01*
X120388143Y-72064619D01*
X120769095Y-72064619D02*
X120816714Y-72017000D01*
X120911952Y-71969381D01*
X121150048Y-71969381D01*
X121245286Y-72017000D01*
X121292905Y-72064619D01*
X121340524Y-72159857D01*
X121340524Y-72255095D01*
X121292905Y-72397952D01*
X120721476Y-72969381D01*
X121340524Y-72969381D01*
X122197667Y-71969381D02*
X122007190Y-71969381D01*
X121911952Y-72017000D01*
X121864333Y-72064619D01*
X121769095Y-72207476D01*
X121721476Y-72397952D01*
X121721476Y-72778905D01*
X121769095Y-72874143D01*
X121816714Y-72921762D01*
X121911952Y-72969381D01*
X122102429Y-72969381D01*
X122197667Y-72921762D01*
X122245286Y-72874143D01*
X122292905Y-72778905D01*
X122292905Y-72540810D01*
X122245286Y-72445571D01*
X122197667Y-72397952D01*
X122102429Y-72350333D01*
X121911952Y-72350333D01*
X121816714Y-72397952D01*
X121769095Y-72445571D01*
X121721476Y-72540810D01*
X100068143Y-50649143D02*
X100020524Y-50696762D01*
X99877667Y-50744381D01*
X99782429Y-50744381D01*
X99639571Y-50696762D01*
X99544333Y-50601524D01*
X99496714Y-50506286D01*
X99449095Y-50315810D01*
X99449095Y-50172952D01*
X99496714Y-49982476D01*
X99544333Y-49887238D01*
X99639571Y-49792000D01*
X99782429Y-49744381D01*
X99877667Y-49744381D01*
X100020524Y-49792000D01*
X100068143Y-49839619D01*
X101020524Y-50744381D02*
X100449095Y-50744381D01*
X100734809Y-50744381D02*
X100734809Y-49744381D01*
X100639571Y-49887238D01*
X100544333Y-49982476D01*
X100449095Y-50030095D01*
X101972905Y-50744381D02*
X101401476Y-50744381D01*
X101687190Y-50744381D02*
X101687190Y-49744381D01*
X101591952Y-49887238D01*
X101496714Y-49982476D01*
X101401476Y-50030095D01*
X118641905Y-104592381D02*
X118641905Y-103592381D01*
X118880000Y-103592381D01*
X119022858Y-103640000D01*
X119118096Y-103735238D01*
X119165715Y-103830476D01*
X119213334Y-104020952D01*
X119213334Y-104163810D01*
X119165715Y-104354286D01*
X119118096Y-104449524D01*
X119022858Y-104544762D01*
X118880000Y-104592381D01*
X118641905Y-104592381D01*
X119594286Y-103687619D02*
X119641905Y-103640000D01*
X119737143Y-103592381D01*
X119975239Y-103592381D01*
X120070477Y-103640000D01*
X120118096Y-103687619D01*
X120165715Y-103782857D01*
X120165715Y-103878095D01*
X120118096Y-104020952D01*
X119546667Y-104592381D01*
X120165715Y-104592381D01*
X118641905Y-100782381D02*
X118641905Y-99782381D01*
X118880000Y-99782381D01*
X119022858Y-99830000D01*
X119118096Y-99925238D01*
X119165715Y-100020476D01*
X119213334Y-100210952D01*
X119213334Y-100353810D01*
X119165715Y-100544286D01*
X119118096Y-100639524D01*
X119022858Y-100734762D01*
X118880000Y-100782381D01*
X118641905Y-100782381D01*
X119546667Y-99782381D02*
X120165715Y-99782381D01*
X119832381Y-100163333D01*
X119975239Y-100163333D01*
X120070477Y-100210952D01*
X120118096Y-100258571D01*
X120165715Y-100353810D01*
X120165715Y-100591905D01*
X120118096Y-100687143D01*
X120070477Y-100734762D01*
X119975239Y-100782381D01*
X119689524Y-100782381D01*
X119594286Y-100734762D01*
X119546667Y-100687143D01*
X84732905Y-72969381D02*
X84732905Y-71969381D01*
X84971000Y-71969381D01*
X85113858Y-72017000D01*
X85209096Y-72112238D01*
X85256715Y-72207476D01*
X85304334Y-72397952D01*
X85304334Y-72540810D01*
X85256715Y-72731286D01*
X85209096Y-72826524D01*
X85113858Y-72921762D01*
X84971000Y-72969381D01*
X84732905Y-72969381D01*
X86161477Y-71969381D02*
X85971000Y-71969381D01*
X85875762Y-72017000D01*
X85828143Y-72064619D01*
X85732905Y-72207476D01*
X85685286Y-72397952D01*
X85685286Y-72778905D01*
X85732905Y-72874143D01*
X85780524Y-72921762D01*
X85875762Y-72969381D01*
X86066239Y-72969381D01*
X86161477Y-72921762D01*
X86209096Y-72874143D01*
X86256715Y-72778905D01*
X86256715Y-72540810D01*
X86209096Y-72445571D01*
X86161477Y-72397952D01*
X86066239Y-72350333D01*
X85875762Y-72350333D01*
X85780524Y-72397952D01*
X85732905Y-72445571D01*
X85685286Y-72540810D01*
X49839714Y-67889381D02*
X49839714Y-66889381D01*
X50077809Y-66889381D01*
X50220667Y-66937000D01*
X50315905Y-67032238D01*
X50363524Y-67127476D01*
X50411143Y-67317952D01*
X50411143Y-67460810D01*
X50363524Y-67651286D01*
X50315905Y-67746524D01*
X50220667Y-67841762D01*
X50077809Y-67889381D01*
X49839714Y-67889381D01*
X51363524Y-67889381D02*
X50792095Y-67889381D01*
X51077809Y-67889381D02*
X51077809Y-66889381D01*
X50982571Y-67032238D01*
X50887333Y-67127476D01*
X50792095Y-67175095D01*
X51982571Y-66889381D02*
X52077810Y-66889381D01*
X52173048Y-66937000D01*
X52220667Y-66984619D01*
X52268286Y-67079857D01*
X52315905Y-67270333D01*
X52315905Y-67508429D01*
X52268286Y-67698905D01*
X52220667Y-67794143D01*
X52173048Y-67841762D01*
X52077810Y-67889381D01*
X51982571Y-67889381D01*
X51887333Y-67841762D01*
X51839714Y-67794143D01*
X51792095Y-67698905D01*
X51744476Y-67508429D01*
X51744476Y-67270333D01*
X51792095Y-67079857D01*
X51839714Y-66984619D01*
X51887333Y-66937000D01*
X51982571Y-66889381D01*
X61650714Y-92273381D02*
X61650714Y-91273381D01*
X61888809Y-91273381D01*
X62031667Y-91321000D01*
X62126905Y-91416238D01*
X62174524Y-91511476D01*
X62222143Y-91701952D01*
X62222143Y-91844810D01*
X62174524Y-92035286D01*
X62126905Y-92130524D01*
X62031667Y-92225762D01*
X61888809Y-92273381D01*
X61650714Y-92273381D01*
X63174524Y-92273381D02*
X62603095Y-92273381D01*
X62888809Y-92273381D02*
X62888809Y-91273381D01*
X62793571Y-91416238D01*
X62698333Y-91511476D01*
X62603095Y-91559095D01*
X64126905Y-92273381D02*
X63555476Y-92273381D01*
X63841190Y-92273381D02*
X63841190Y-91273381D01*
X63745952Y-91416238D01*
X63650714Y-91511476D01*
X63555476Y-91559095D01*
X84852905Y-69239381D02*
X84852905Y-68239381D01*
X85091000Y-68239381D01*
X85233858Y-68287000D01*
X85329096Y-68382238D01*
X85376715Y-68477476D01*
X85424334Y-68667952D01*
X85424334Y-68810810D01*
X85376715Y-69001286D01*
X85329096Y-69096524D01*
X85233858Y-69191762D01*
X85091000Y-69239381D01*
X84852905Y-69239381D01*
X86376715Y-69239381D02*
X85805286Y-69239381D01*
X86091000Y-69239381D02*
X86091000Y-68239381D01*
X85995762Y-68382238D01*
X85900524Y-68477476D01*
X85805286Y-68525095D01*
X63650905Y-71699381D02*
X63650905Y-70699381D01*
X63889000Y-70699381D01*
X64031858Y-70747000D01*
X64127096Y-70842238D01*
X64174715Y-70937476D01*
X64222334Y-71127952D01*
X64222334Y-71270810D01*
X64174715Y-71461286D01*
X64127096Y-71556524D01*
X64031858Y-71651762D01*
X63889000Y-71699381D01*
X63650905Y-71699381D01*
X64555667Y-70699381D02*
X65222334Y-70699381D01*
X64793762Y-71699381D01*
X62126905Y-87193381D02*
X62126905Y-86193381D01*
X62365000Y-86193381D01*
X62507858Y-86241000D01*
X62603096Y-86336238D01*
X62650715Y-86431476D01*
X62698334Y-86621952D01*
X62698334Y-86764810D01*
X62650715Y-86955286D01*
X62603096Y-87050524D01*
X62507858Y-87145762D01*
X62365000Y-87193381D01*
X62126905Y-87193381D01*
X63269762Y-86621952D02*
X63174524Y-86574333D01*
X63126905Y-86526714D01*
X63079286Y-86431476D01*
X63079286Y-86383857D01*
X63126905Y-86288619D01*
X63174524Y-86241000D01*
X63269762Y-86193381D01*
X63460239Y-86193381D01*
X63555477Y-86241000D01*
X63603096Y-86288619D01*
X63650715Y-86383857D01*
X63650715Y-86431476D01*
X63603096Y-86526714D01*
X63555477Y-86574333D01*
X63460239Y-86621952D01*
X63269762Y-86621952D01*
X63174524Y-86669571D01*
X63126905Y-86717190D01*
X63079286Y-86812429D01*
X63079286Y-87002905D01*
X63126905Y-87098143D01*
X63174524Y-87145762D01*
X63269762Y-87193381D01*
X63460239Y-87193381D01*
X63555477Y-87145762D01*
X63603096Y-87098143D01*
X63650715Y-87002905D01*
X63650715Y-86812429D01*
X63603096Y-86717190D01*
X63555477Y-86669571D01*
X63460239Y-86621952D01*
X102569334Y-73049381D02*
X102093143Y-73049381D01*
X102093143Y-72049381D01*
X103426477Y-73049381D02*
X102855048Y-73049381D01*
X103140762Y-73049381D02*
X103140762Y-72049381D01*
X103045524Y-72192238D01*
X102950286Y-72287476D01*
X102855048Y-72335095D01*
X89733381Y-100877666D02*
X89257190Y-101211000D01*
X89733381Y-101449095D02*
X88733381Y-101449095D01*
X88733381Y-101068142D01*
X88781000Y-100972904D01*
X88828619Y-100925285D01*
X88923857Y-100877666D01*
X89066714Y-100877666D01*
X89161952Y-100925285D01*
X89209571Y-100972904D01*
X89257190Y-101068142D01*
X89257190Y-101449095D01*
X89733381Y-99925285D02*
X89733381Y-100496714D01*
X89733381Y-100211000D02*
X88733381Y-100211000D01*
X88876238Y-100306238D01*
X88971476Y-100401476D01*
X89019095Y-100496714D01*
X94178381Y-100877666D02*
X93702190Y-101211000D01*
X94178381Y-101449095D02*
X93178381Y-101449095D01*
X93178381Y-101068142D01*
X93226000Y-100972904D01*
X93273619Y-100925285D01*
X93368857Y-100877666D01*
X93511714Y-100877666D01*
X93606952Y-100925285D01*
X93654571Y-100972904D01*
X93702190Y-101068142D01*
X93702190Y-101449095D01*
X93273619Y-100496714D02*
X93226000Y-100449095D01*
X93178381Y-100353857D01*
X93178381Y-100115761D01*
X93226000Y-100020523D01*
X93273619Y-99972904D01*
X93368857Y-99925285D01*
X93464095Y-99925285D01*
X93606952Y-99972904D01*
X94178381Y-100544333D01*
X94178381Y-99925285D01*
X89733381Y-90082666D02*
X89257190Y-90416000D01*
X89733381Y-90654095D02*
X88733381Y-90654095D01*
X88733381Y-90273142D01*
X88781000Y-90177904D01*
X88828619Y-90130285D01*
X88923857Y-90082666D01*
X89066714Y-90082666D01*
X89161952Y-90130285D01*
X89209571Y-90177904D01*
X89257190Y-90273142D01*
X89257190Y-90654095D01*
X88733381Y-89749333D02*
X88733381Y-89130285D01*
X89114333Y-89463619D01*
X89114333Y-89320761D01*
X89161952Y-89225523D01*
X89209571Y-89177904D01*
X89304810Y-89130285D01*
X89542905Y-89130285D01*
X89638143Y-89177904D01*
X89685762Y-89225523D01*
X89733381Y-89320761D01*
X89733381Y-89606476D01*
X89685762Y-89701714D01*
X89638143Y-89749333D01*
X94178381Y-90082666D02*
X93702190Y-90416000D01*
X94178381Y-90654095D02*
X93178381Y-90654095D01*
X93178381Y-90273142D01*
X93226000Y-90177904D01*
X93273619Y-90130285D01*
X93368857Y-90082666D01*
X93511714Y-90082666D01*
X93606952Y-90130285D01*
X93654571Y-90177904D01*
X93702190Y-90273142D01*
X93702190Y-90654095D01*
X93178381Y-89177904D02*
X93178381Y-89654095D01*
X93654571Y-89701714D01*
X93606952Y-89654095D01*
X93559333Y-89558857D01*
X93559333Y-89320761D01*
X93606952Y-89225523D01*
X93654571Y-89177904D01*
X93749810Y-89130285D01*
X93987905Y-89130285D01*
X94083143Y-89177904D01*
X94130762Y-89225523D01*
X94178381Y-89320761D01*
X94178381Y-89558857D01*
X94130762Y-89654095D01*
X94083143Y-89701714D01*
X109434334Y-58999381D02*
X109101000Y-58523190D01*
X108862905Y-58999381D02*
X108862905Y-57999381D01*
X109243858Y-57999381D01*
X109339096Y-58047000D01*
X109386715Y-58094619D01*
X109434334Y-58189857D01*
X109434334Y-58332714D01*
X109386715Y-58427952D01*
X109339096Y-58475571D01*
X109243858Y-58523190D01*
X108862905Y-58523190D01*
X109767667Y-57999381D02*
X110434334Y-57999381D01*
X110005762Y-58999381D01*
X49363334Y-50617381D02*
X49030000Y-50141190D01*
X48791905Y-50617381D02*
X48791905Y-49617381D01*
X49172858Y-49617381D01*
X49268096Y-49665000D01*
X49315715Y-49712619D01*
X49363334Y-49807857D01*
X49363334Y-49950714D01*
X49315715Y-50045952D01*
X49268096Y-50093571D01*
X49172858Y-50141190D01*
X48791905Y-50141190D01*
X49934762Y-50045952D02*
X49839524Y-49998333D01*
X49791905Y-49950714D01*
X49744286Y-49855476D01*
X49744286Y-49807857D01*
X49791905Y-49712619D01*
X49839524Y-49665000D01*
X49934762Y-49617381D01*
X50125239Y-49617381D01*
X50220477Y-49665000D01*
X50268096Y-49712619D01*
X50315715Y-49807857D01*
X50315715Y-49855476D01*
X50268096Y-49950714D01*
X50220477Y-49998333D01*
X50125239Y-50045952D01*
X49934762Y-50045952D01*
X49839524Y-50093571D01*
X49791905Y-50141190D01*
X49744286Y-50236429D01*
X49744286Y-50426905D01*
X49791905Y-50522143D01*
X49839524Y-50569762D01*
X49934762Y-50617381D01*
X50125239Y-50617381D01*
X50220477Y-50569762D01*
X50268096Y-50522143D01*
X50315715Y-50426905D01*
X50315715Y-50236429D01*
X50268096Y-50141190D01*
X50220477Y-50093571D01*
X50125239Y-50045952D01*
X122134334Y-58999381D02*
X121801000Y-58523190D01*
X121562905Y-58999381D02*
X121562905Y-57999381D01*
X121943858Y-57999381D01*
X122039096Y-58047000D01*
X122086715Y-58094619D01*
X122134334Y-58189857D01*
X122134334Y-58332714D01*
X122086715Y-58427952D01*
X122039096Y-58475571D01*
X121943858Y-58523190D01*
X121562905Y-58523190D01*
X122610524Y-58999381D02*
X122801000Y-58999381D01*
X122896239Y-58951762D01*
X122943858Y-58904143D01*
X123039096Y-58761286D01*
X123086715Y-58570810D01*
X123086715Y-58189857D01*
X123039096Y-58094619D01*
X122991477Y-58047000D01*
X122896239Y-57999381D01*
X122705762Y-57999381D01*
X122610524Y-58047000D01*
X122562905Y-58094619D01*
X122515286Y-58189857D01*
X122515286Y-58427952D01*
X122562905Y-58523190D01*
X122610524Y-58570810D01*
X122705762Y-58618429D01*
X122896239Y-58618429D01*
X122991477Y-58570810D01*
X123039096Y-58523190D01*
X123086715Y-58427952D01*
X96258143Y-64079381D02*
X95924809Y-63603190D01*
X95686714Y-64079381D02*
X95686714Y-63079381D01*
X96067667Y-63079381D01*
X96162905Y-63127000D01*
X96210524Y-63174619D01*
X96258143Y-63269857D01*
X96258143Y-63412714D01*
X96210524Y-63507952D01*
X96162905Y-63555571D01*
X96067667Y-63603190D01*
X95686714Y-63603190D01*
X97210524Y-64079381D02*
X96639095Y-64079381D01*
X96924809Y-64079381D02*
X96924809Y-63079381D01*
X96829571Y-63222238D01*
X96734333Y-63317476D01*
X96639095Y-63365095D01*
X98162905Y-64079381D02*
X97591476Y-64079381D01*
X97877190Y-64079381D02*
X97877190Y-63079381D01*
X97781952Y-63222238D01*
X97686714Y-63317476D01*
X97591476Y-63365095D01*
X49522143Y-55062381D02*
X49188809Y-54586190D01*
X48950714Y-55062381D02*
X48950714Y-54062381D01*
X49331667Y-54062381D01*
X49426905Y-54110000D01*
X49474524Y-54157619D01*
X49522143Y-54252857D01*
X49522143Y-54395714D01*
X49474524Y-54490952D01*
X49426905Y-54538571D01*
X49331667Y-54586190D01*
X48950714Y-54586190D01*
X50474524Y-55062381D02*
X49903095Y-55062381D01*
X50188809Y-55062381D02*
X50188809Y-54062381D01*
X50093571Y-54205238D01*
X49998333Y-54300476D01*
X49903095Y-54348095D01*
X50807857Y-54062381D02*
X51426905Y-54062381D01*
X51093571Y-54443333D01*
X51236429Y-54443333D01*
X51331667Y-54490952D01*
X51379286Y-54538571D01*
X51426905Y-54633810D01*
X51426905Y-54871905D01*
X51379286Y-54967143D01*
X51331667Y-55014762D01*
X51236429Y-55062381D01*
X50950714Y-55062381D01*
X50855476Y-55014762D01*
X50807857Y-54967143D01*
X108958143Y-64079381D02*
X108624809Y-63603190D01*
X108386714Y-64079381D02*
X108386714Y-63079381D01*
X108767667Y-63079381D01*
X108862905Y-63127000D01*
X108910524Y-63174619D01*
X108958143Y-63269857D01*
X108958143Y-63412714D01*
X108910524Y-63507952D01*
X108862905Y-63555571D01*
X108767667Y-63603190D01*
X108386714Y-63603190D01*
X109910524Y-64079381D02*
X109339095Y-64079381D01*
X109624809Y-64079381D02*
X109624809Y-63079381D01*
X109529571Y-63222238D01*
X109434333Y-63317476D01*
X109339095Y-63365095D01*
X110767667Y-63412714D02*
X110767667Y-64079381D01*
X110529571Y-63031762D02*
X110291476Y-63746048D01*
X110910524Y-63746048D01*
X49522143Y-59507381D02*
X49188809Y-59031190D01*
X48950714Y-59507381D02*
X48950714Y-58507381D01*
X49331667Y-58507381D01*
X49426905Y-58555000D01*
X49474524Y-58602619D01*
X49522143Y-58697857D01*
X49522143Y-58840714D01*
X49474524Y-58935952D01*
X49426905Y-58983571D01*
X49331667Y-59031190D01*
X48950714Y-59031190D01*
X50474524Y-59507381D02*
X49903095Y-59507381D01*
X50188809Y-59507381D02*
X50188809Y-58507381D01*
X50093571Y-58650238D01*
X49998333Y-58745476D01*
X49903095Y-58793095D01*
X51331667Y-58507381D02*
X51141190Y-58507381D01*
X51045952Y-58555000D01*
X50998333Y-58602619D01*
X50903095Y-58745476D01*
X50855476Y-58935952D01*
X50855476Y-59316905D01*
X50903095Y-59412143D01*
X50950714Y-59459762D01*
X51045952Y-59507381D01*
X51236429Y-59507381D01*
X51331667Y-59459762D01*
X51379286Y-59412143D01*
X51426905Y-59316905D01*
X51426905Y-59078810D01*
X51379286Y-58983571D01*
X51331667Y-58935952D01*
X51236429Y-58888333D01*
X51045952Y-58888333D01*
X50950714Y-58935952D01*
X50903095Y-58983571D01*
X50855476Y-59078810D01*
X121658143Y-64079381D02*
X121324809Y-63603190D01*
X121086714Y-64079381D02*
X121086714Y-63079381D01*
X121467667Y-63079381D01*
X121562905Y-63127000D01*
X121610524Y-63174619D01*
X121658143Y-63269857D01*
X121658143Y-63412714D01*
X121610524Y-63507952D01*
X121562905Y-63555571D01*
X121467667Y-63603190D01*
X121086714Y-63603190D01*
X122610524Y-64079381D02*
X122039095Y-64079381D01*
X122324809Y-64079381D02*
X122324809Y-63079381D01*
X122229571Y-63222238D01*
X122134333Y-63317476D01*
X122039095Y-63365095D01*
X122943857Y-63079381D02*
X123610524Y-63079381D01*
X123181952Y-64079381D01*
X63492143Y-59507381D02*
X63158809Y-59031190D01*
X62920714Y-59507381D02*
X62920714Y-58507381D01*
X63301667Y-58507381D01*
X63396905Y-58555000D01*
X63444524Y-58602619D01*
X63492143Y-58697857D01*
X63492143Y-58840714D01*
X63444524Y-58935952D01*
X63396905Y-58983571D01*
X63301667Y-59031190D01*
X62920714Y-59031190D01*
X64444524Y-59507381D02*
X63873095Y-59507381D01*
X64158809Y-59507381D02*
X64158809Y-58507381D01*
X64063571Y-58650238D01*
X63968333Y-58745476D01*
X63873095Y-58793095D01*
X64920714Y-59507381D02*
X65111190Y-59507381D01*
X65206429Y-59459762D01*
X65254048Y-59412143D01*
X65349286Y-59269286D01*
X65396905Y-59078810D01*
X65396905Y-58697857D01*
X65349286Y-58602619D01*
X65301667Y-58555000D01*
X65206429Y-58507381D01*
X65015952Y-58507381D01*
X64920714Y-58555000D01*
X64873095Y-58602619D01*
X64825476Y-58697857D01*
X64825476Y-58935952D01*
X64873095Y-59031190D01*
X64920714Y-59078810D01*
X65015952Y-59126429D01*
X65206429Y-59126429D01*
X65301667Y-59078810D01*
X65349286Y-59031190D01*
X65396905Y-58935952D01*
X48887143Y-97353381D02*
X48553809Y-96877190D01*
X48315714Y-97353381D02*
X48315714Y-96353381D01*
X48696667Y-96353381D01*
X48791905Y-96401000D01*
X48839524Y-96448619D01*
X48887143Y-96543857D01*
X48887143Y-96686714D01*
X48839524Y-96781952D01*
X48791905Y-96829571D01*
X48696667Y-96877190D01*
X48315714Y-96877190D01*
X49268095Y-96448619D02*
X49315714Y-96401000D01*
X49410952Y-96353381D01*
X49649048Y-96353381D01*
X49744286Y-96401000D01*
X49791905Y-96448619D01*
X49839524Y-96543857D01*
X49839524Y-96639095D01*
X49791905Y-96781952D01*
X49220476Y-97353381D01*
X49839524Y-97353381D01*
X50458571Y-96353381D02*
X50553810Y-96353381D01*
X50649048Y-96401000D01*
X50696667Y-96448619D01*
X50744286Y-96543857D01*
X50791905Y-96734333D01*
X50791905Y-96972429D01*
X50744286Y-97162905D01*
X50696667Y-97258143D01*
X50649048Y-97305762D01*
X50553810Y-97353381D01*
X50458571Y-97353381D01*
X50363333Y-97305762D01*
X50315714Y-97258143D01*
X50268095Y-97162905D01*
X50220476Y-96972429D01*
X50220476Y-96734333D01*
X50268095Y-96543857D01*
X50315714Y-96448619D01*
X50363333Y-96401000D01*
X50458571Y-96353381D01*
X49522143Y-63952381D02*
X49188809Y-63476190D01*
X48950714Y-63952381D02*
X48950714Y-62952381D01*
X49331667Y-62952381D01*
X49426905Y-63000000D01*
X49474524Y-63047619D01*
X49522143Y-63142857D01*
X49522143Y-63285714D01*
X49474524Y-63380952D01*
X49426905Y-63428571D01*
X49331667Y-63476190D01*
X48950714Y-63476190D01*
X49903095Y-63047619D02*
X49950714Y-63000000D01*
X50045952Y-62952381D01*
X50284048Y-62952381D01*
X50379286Y-63000000D01*
X50426905Y-63047619D01*
X50474524Y-63142857D01*
X50474524Y-63238095D01*
X50426905Y-63380952D01*
X49855476Y-63952381D01*
X50474524Y-63952381D01*
X51426905Y-63952381D02*
X50855476Y-63952381D01*
X51141190Y-63952381D02*
X51141190Y-62952381D01*
X51045952Y-63095238D01*
X50950714Y-63190476D01*
X50855476Y-63238095D01*
X63492143Y-63952381D02*
X63158809Y-63476190D01*
X62920714Y-63952381D02*
X62920714Y-62952381D01*
X63301667Y-62952381D01*
X63396905Y-63000000D01*
X63444524Y-63047619D01*
X63492143Y-63142857D01*
X63492143Y-63285714D01*
X63444524Y-63380952D01*
X63396905Y-63428571D01*
X63301667Y-63476190D01*
X62920714Y-63476190D01*
X63873095Y-63047619D02*
X63920714Y-63000000D01*
X64015952Y-62952381D01*
X64254048Y-62952381D01*
X64349286Y-63000000D01*
X64396905Y-63047619D01*
X64444524Y-63142857D01*
X64444524Y-63238095D01*
X64396905Y-63380952D01*
X63825476Y-63952381D01*
X64444524Y-63952381D01*
X64825476Y-63047619D02*
X64873095Y-63000000D01*
X64968333Y-62952381D01*
X65206429Y-62952381D01*
X65301667Y-63000000D01*
X65349286Y-63047619D01*
X65396905Y-63142857D01*
X65396905Y-63238095D01*
X65349286Y-63380952D01*
X64777857Y-63952381D01*
X65396905Y-63952381D01*
X83558143Y-64079381D02*
X83224809Y-63603190D01*
X82986714Y-64079381D02*
X82986714Y-63079381D01*
X83367667Y-63079381D01*
X83462905Y-63127000D01*
X83510524Y-63174619D01*
X83558143Y-63269857D01*
X83558143Y-63412714D01*
X83510524Y-63507952D01*
X83462905Y-63555571D01*
X83367667Y-63603190D01*
X82986714Y-63603190D01*
X83939095Y-63174619D02*
X83986714Y-63127000D01*
X84081952Y-63079381D01*
X84320048Y-63079381D01*
X84415286Y-63127000D01*
X84462905Y-63174619D01*
X84510524Y-63269857D01*
X84510524Y-63365095D01*
X84462905Y-63507952D01*
X83891476Y-64079381D01*
X84510524Y-64079381D01*
X84843857Y-63079381D02*
X85462905Y-63079381D01*
X85129571Y-63460333D01*
X85272429Y-63460333D01*
X85367667Y-63507952D01*
X85415286Y-63555571D01*
X85462905Y-63650810D01*
X85462905Y-63888905D01*
X85415286Y-63984143D01*
X85367667Y-64031762D01*
X85272429Y-64079381D01*
X84986714Y-64079381D01*
X84891476Y-64031762D01*
X84843857Y-63984143D01*
X116673381Y-50418905D02*
X117482905Y-50418905D01*
X117578143Y-50371286D01*
X117625762Y-50323667D01*
X117673381Y-50228429D01*
X117673381Y-50037952D01*
X117625762Y-49942714D01*
X117578143Y-49895095D01*
X117482905Y-49847476D01*
X116673381Y-49847476D01*
X116768619Y-49418905D02*
X116721000Y-49371286D01*
X116673381Y-49276048D01*
X116673381Y-49037952D01*
X116721000Y-48942714D01*
X116768619Y-48895095D01*
X116863857Y-48847476D01*
X116959095Y-48847476D01*
X117101952Y-48895095D01*
X117673381Y-49466524D01*
X117673381Y-48847476D01*
X101219095Y-95083381D02*
X101219095Y-95892905D01*
X101266714Y-95988143D01*
X101314333Y-96035762D01*
X101409571Y-96083381D01*
X101600048Y-96083381D01*
X101695286Y-96035762D01*
X101742905Y-95988143D01*
X101790524Y-95892905D01*
X101790524Y-95083381D01*
X102790524Y-96083381D02*
X102219095Y-96083381D01*
X102504809Y-96083381D02*
X102504809Y-95083381D01*
X102409571Y-95226238D01*
X102314333Y-95321476D01*
X102219095Y-95369095D01*
X102512905Y-69159381D02*
X102512905Y-68159381D01*
X102751000Y-68159381D01*
X102893858Y-68207000D01*
X102989096Y-68302238D01*
X103036715Y-68397476D01*
X103084334Y-68587952D01*
X103084334Y-68730810D01*
X103036715Y-68921286D01*
X102989096Y-69016524D01*
X102893858Y-69111762D01*
X102751000Y-69159381D01*
X102512905Y-69159381D01*
X103941477Y-68492714D02*
X103941477Y-69159381D01*
X103703381Y-68111762D02*
X103465286Y-68826048D01*
X104084334Y-68826048D01*
X120292905Y-69159381D02*
X120292905Y-68159381D01*
X120531000Y-68159381D01*
X120673858Y-68207000D01*
X120769096Y-68302238D01*
X120816715Y-68397476D01*
X120864334Y-68587952D01*
X120864334Y-68730810D01*
X120816715Y-68921286D01*
X120769096Y-69016524D01*
X120673858Y-69111762D01*
X120531000Y-69159381D01*
X120292905Y-69159381D01*
X121769096Y-68159381D02*
X121292905Y-68159381D01*
X121245286Y-68635571D01*
X121292905Y-68587952D01*
X121388143Y-68540333D01*
X121626239Y-68540333D01*
X121721477Y-68587952D01*
X121769096Y-68635571D01*
X121816715Y-68730810D01*
X121816715Y-68968905D01*
X121769096Y-69064143D01*
X121721477Y-69111762D01*
X121626239Y-69159381D01*
X121388143Y-69159381D01*
X121292905Y-69111762D01*
X121245286Y-69064143D01*
X36980905Y-71699381D02*
X36980905Y-70699381D01*
X37219000Y-70699381D01*
X37361858Y-70747000D01*
X37457096Y-70842238D01*
X37504715Y-70937476D01*
X37552334Y-71127952D01*
X37552334Y-71270810D01*
X37504715Y-71461286D01*
X37457096Y-71556524D01*
X37361858Y-71651762D01*
X37219000Y-71699381D01*
X36980905Y-71699381D01*
X38028524Y-71699381D02*
X38219000Y-71699381D01*
X38314239Y-71651762D01*
X38361858Y-71604143D01*
X38457096Y-71461286D01*
X38504715Y-71270810D01*
X38504715Y-70889857D01*
X38457096Y-70794619D01*
X38409477Y-70747000D01*
X38314239Y-70699381D01*
X38123762Y-70699381D01*
X38028524Y-70747000D01*
X37980905Y-70794619D01*
X37933286Y-70889857D01*
X37933286Y-71127952D01*
X37980905Y-71223190D01*
X38028524Y-71270810D01*
X38123762Y-71318429D01*
X38314239Y-71318429D01*
X38409477Y-71270810D01*
X38457096Y-71223190D01*
X38504715Y-71127952D01*
X49839714Y-71699381D02*
X49839714Y-70699381D01*
X50077809Y-70699381D01*
X50220667Y-70747000D01*
X50315905Y-70842238D01*
X50363524Y-70937476D01*
X50411143Y-71127952D01*
X50411143Y-71270810D01*
X50363524Y-71461286D01*
X50315905Y-71556524D01*
X50220667Y-71651762D01*
X50077809Y-71699381D01*
X49839714Y-71699381D01*
X51363524Y-71699381D02*
X50792095Y-71699381D01*
X51077809Y-71699381D02*
X51077809Y-70699381D01*
X50982571Y-70842238D01*
X50887333Y-70937476D01*
X50792095Y-70985095D01*
X51744476Y-70794619D02*
X51792095Y-70747000D01*
X51887333Y-70699381D01*
X52125429Y-70699381D01*
X52220667Y-70747000D01*
X52268286Y-70794619D01*
X52315905Y-70889857D01*
X52315905Y-70985095D01*
X52268286Y-71127952D01*
X51696857Y-71699381D01*
X52315905Y-71699381D01*
X61650714Y-97353381D02*
X61650714Y-96353381D01*
X61888809Y-96353381D01*
X62031667Y-96401000D01*
X62126905Y-96496238D01*
X62174524Y-96591476D01*
X62222143Y-96781952D01*
X62222143Y-96924810D01*
X62174524Y-97115286D01*
X62126905Y-97210524D01*
X62031667Y-97305762D01*
X61888809Y-97353381D01*
X61650714Y-97353381D01*
X63174524Y-97353381D02*
X62603095Y-97353381D01*
X62888809Y-97353381D02*
X62888809Y-96353381D01*
X62793571Y-96496238D01*
X62698333Y-96591476D01*
X62603095Y-96639095D01*
X63507857Y-96353381D02*
X64126905Y-96353381D01*
X63793571Y-96734333D01*
X63936429Y-96734333D01*
X64031667Y-96781952D01*
X64079286Y-96829571D01*
X64126905Y-96924810D01*
X64126905Y-97162905D01*
X64079286Y-97258143D01*
X64031667Y-97305762D01*
X63936429Y-97353381D01*
X63650714Y-97353381D01*
X63555476Y-97305762D01*
X63507857Y-97258143D01*
X61650714Y-102433381D02*
X61650714Y-101433381D01*
X61888809Y-101433381D01*
X62031667Y-101481000D01*
X62126905Y-101576238D01*
X62174524Y-101671476D01*
X62222143Y-101861952D01*
X62222143Y-102004810D01*
X62174524Y-102195286D01*
X62126905Y-102290524D01*
X62031667Y-102385762D01*
X61888809Y-102433381D01*
X61650714Y-102433381D01*
X63174524Y-102433381D02*
X62603095Y-102433381D01*
X62888809Y-102433381D02*
X62888809Y-101433381D01*
X62793571Y-101576238D01*
X62698333Y-101671476D01*
X62603095Y-101719095D01*
X64031667Y-101766714D02*
X64031667Y-102433381D01*
X63793571Y-101385762D02*
X63555476Y-102100048D01*
X64174524Y-102100048D01*
X84034334Y-58999381D02*
X83701000Y-58523190D01*
X83462905Y-58999381D02*
X83462905Y-57999381D01*
X83843858Y-57999381D01*
X83939096Y-58047000D01*
X83986715Y-58094619D01*
X84034334Y-58189857D01*
X84034334Y-58332714D01*
X83986715Y-58427952D01*
X83939096Y-58475571D01*
X83843858Y-58523190D01*
X83462905Y-58523190D01*
X84891477Y-58332714D02*
X84891477Y-58999381D01*
X84653381Y-57951762D02*
X84415286Y-58666048D01*
X85034334Y-58666048D01*
X96734334Y-58999381D02*
X96401000Y-58523190D01*
X96162905Y-58999381D02*
X96162905Y-57999381D01*
X96543858Y-57999381D01*
X96639096Y-58047000D01*
X96686715Y-58094619D01*
X96734334Y-58189857D01*
X96734334Y-58332714D01*
X96686715Y-58427952D01*
X96639096Y-58475571D01*
X96543858Y-58523190D01*
X96162905Y-58523190D01*
X97591477Y-57999381D02*
X97401000Y-57999381D01*
X97305762Y-58047000D01*
X97258143Y-58094619D01*
X97162905Y-58237476D01*
X97115286Y-58427952D01*
X97115286Y-58808905D01*
X97162905Y-58904143D01*
X97210524Y-58951762D01*
X97305762Y-58999381D01*
X97496239Y-58999381D01*
X97591477Y-58951762D01*
X97639096Y-58904143D01*
X97686715Y-58808905D01*
X97686715Y-58570810D01*
X97639096Y-58475571D01*
X97591477Y-58427952D01*
X97496239Y-58380333D01*
X97305762Y-58380333D01*
X97210524Y-58427952D01*
X97162905Y-58475571D01*
X97115286Y-58570810D01*
X63492143Y-50617381D02*
X63158809Y-50141190D01*
X62920714Y-50617381D02*
X62920714Y-49617381D01*
X63301667Y-49617381D01*
X63396905Y-49665000D01*
X63444524Y-49712619D01*
X63492143Y-49807857D01*
X63492143Y-49950714D01*
X63444524Y-50045952D01*
X63396905Y-50093571D01*
X63301667Y-50141190D01*
X62920714Y-50141190D01*
X64444524Y-50617381D02*
X63873095Y-50617381D01*
X64158809Y-50617381D02*
X64158809Y-49617381D01*
X64063571Y-49760238D01*
X63968333Y-49855476D01*
X63873095Y-49903095D01*
X65063571Y-49617381D02*
X65158810Y-49617381D01*
X65254048Y-49665000D01*
X65301667Y-49712619D01*
X65349286Y-49807857D01*
X65396905Y-49998333D01*
X65396905Y-50236429D01*
X65349286Y-50426905D01*
X65301667Y-50522143D01*
X65254048Y-50569762D01*
X65158810Y-50617381D01*
X65063571Y-50617381D01*
X64968333Y-50569762D01*
X64920714Y-50522143D01*
X64873095Y-50426905D01*
X64825476Y-50236429D01*
X64825476Y-49998333D01*
X64873095Y-49807857D01*
X64920714Y-49712619D01*
X64968333Y-49665000D01*
X65063571Y-49617381D01*
X48887143Y-87193381D02*
X48553809Y-86717190D01*
X48315714Y-87193381D02*
X48315714Y-86193381D01*
X48696667Y-86193381D01*
X48791905Y-86241000D01*
X48839524Y-86288619D01*
X48887143Y-86383857D01*
X48887143Y-86526714D01*
X48839524Y-86621952D01*
X48791905Y-86669571D01*
X48696667Y-86717190D01*
X48315714Y-86717190D01*
X49839524Y-87193381D02*
X49268095Y-87193381D01*
X49553809Y-87193381D02*
X49553809Y-86193381D01*
X49458571Y-86336238D01*
X49363333Y-86431476D01*
X49268095Y-86479095D01*
X50220476Y-86288619D02*
X50268095Y-86241000D01*
X50363333Y-86193381D01*
X50601429Y-86193381D01*
X50696667Y-86241000D01*
X50744286Y-86288619D01*
X50791905Y-86383857D01*
X50791905Y-86479095D01*
X50744286Y-86621952D01*
X50172857Y-87193381D01*
X50791905Y-87193381D01*
X63492143Y-55062381D02*
X63158809Y-54586190D01*
X62920714Y-55062381D02*
X62920714Y-54062381D01*
X63301667Y-54062381D01*
X63396905Y-54110000D01*
X63444524Y-54157619D01*
X63492143Y-54252857D01*
X63492143Y-54395714D01*
X63444524Y-54490952D01*
X63396905Y-54538571D01*
X63301667Y-54586190D01*
X62920714Y-54586190D01*
X64444524Y-55062381D02*
X63873095Y-55062381D01*
X64158809Y-55062381D02*
X64158809Y-54062381D01*
X64063571Y-54205238D01*
X63968333Y-54300476D01*
X63873095Y-54348095D01*
X65349286Y-54062381D02*
X64873095Y-54062381D01*
X64825476Y-54538571D01*
X64873095Y-54490952D01*
X64968333Y-54443333D01*
X65206429Y-54443333D01*
X65301667Y-54490952D01*
X65349286Y-54538571D01*
X65396905Y-54633810D01*
X65396905Y-54871905D01*
X65349286Y-54967143D01*
X65301667Y-55014762D01*
X65206429Y-55062381D01*
X64968333Y-55062381D01*
X64873095Y-55014762D01*
X64825476Y-54967143D01*
X48887143Y-92273381D02*
X48553809Y-91797190D01*
X48315714Y-92273381D02*
X48315714Y-91273381D01*
X48696667Y-91273381D01*
X48791905Y-91321000D01*
X48839524Y-91368619D01*
X48887143Y-91463857D01*
X48887143Y-91606714D01*
X48839524Y-91701952D01*
X48791905Y-91749571D01*
X48696667Y-91797190D01*
X48315714Y-91797190D01*
X49839524Y-92273381D02*
X49268095Y-92273381D01*
X49553809Y-92273381D02*
X49553809Y-91273381D01*
X49458571Y-91416238D01*
X49363333Y-91511476D01*
X49268095Y-91559095D01*
X50410952Y-91701952D02*
X50315714Y-91654333D01*
X50268095Y-91606714D01*
X50220476Y-91511476D01*
X50220476Y-91463857D01*
X50268095Y-91368619D01*
X50315714Y-91321000D01*
X50410952Y-91273381D01*
X50601429Y-91273381D01*
X50696667Y-91321000D01*
X50744286Y-91368619D01*
X50791905Y-91463857D01*
X50791905Y-91511476D01*
X50744286Y-91606714D01*
X50696667Y-91654333D01*
X50601429Y-91701952D01*
X50410952Y-91701952D01*
X50315714Y-91749571D01*
X50268095Y-91797190D01*
X50220476Y-91892429D01*
X50220476Y-92082905D01*
X50268095Y-92178143D01*
X50315714Y-92225762D01*
X50410952Y-92273381D01*
X50601429Y-92273381D01*
X50696667Y-92225762D01*
X50744286Y-92178143D01*
X50791905Y-92082905D01*
X50791905Y-91892429D01*
X50744286Y-91797190D01*
X50696667Y-91749571D01*
X50601429Y-91701952D01*
X112323809Y-110942381D02*
X112323809Y-109942381D01*
X112704762Y-109942381D01*
X112800000Y-109990000D01*
X112847619Y-110037619D01*
X112895238Y-110132857D01*
X112895238Y-110275714D01*
X112847619Y-110370952D01*
X112800000Y-110418571D01*
X112704762Y-110466190D01*
X112323809Y-110466190D01*
X113466666Y-110942381D02*
X113371428Y-110894762D01*
X113323809Y-110847143D01*
X113276190Y-110751905D01*
X113276190Y-110466190D01*
X113323809Y-110370952D01*
X113371428Y-110323333D01*
X113466666Y-110275714D01*
X113609524Y-110275714D01*
X113704762Y-110323333D01*
X113752381Y-110370952D01*
X113800000Y-110466190D01*
X113800000Y-110751905D01*
X113752381Y-110847143D01*
X113704762Y-110894762D01*
X113609524Y-110942381D01*
X113466666Y-110942381D01*
X114133333Y-110275714D02*
X114323809Y-110942381D01*
X114514286Y-110466190D01*
X114704762Y-110942381D01*
X114895238Y-110275714D01*
X115657143Y-110894762D02*
X115561905Y-110942381D01*
X115371428Y-110942381D01*
X115276190Y-110894762D01*
X115228571Y-110799524D01*
X115228571Y-110418571D01*
X115276190Y-110323333D01*
X115371428Y-110275714D01*
X115561905Y-110275714D01*
X115657143Y-110323333D01*
X115704762Y-110418571D01*
X115704762Y-110513810D01*
X115228571Y-110609048D01*
X116133333Y-110942381D02*
X116133333Y-110275714D01*
X116133333Y-110466190D02*
X116180952Y-110370952D01*
X116228571Y-110323333D01*
X116323809Y-110275714D01*
X116419048Y-110275714D01*
X84256666Y-109942381D02*
X84447143Y-109942381D01*
X84542381Y-109990000D01*
X84637619Y-110085238D01*
X84685238Y-110275714D01*
X84685238Y-110609048D01*
X84637619Y-110799524D01*
X84542381Y-110894762D01*
X84447143Y-110942381D01*
X84256666Y-110942381D01*
X84161428Y-110894762D01*
X84066190Y-110799524D01*
X84018571Y-110609048D01*
X84018571Y-110275714D01*
X84066190Y-110085238D01*
X84161428Y-109990000D01*
X84256666Y-109942381D01*
X85542381Y-110275714D02*
X85542381Y-110942381D01*
X85113809Y-110275714D02*
X85113809Y-110799524D01*
X85161428Y-110894762D01*
X85256666Y-110942381D01*
X85399524Y-110942381D01*
X85494762Y-110894762D01*
X85542381Y-110847143D01*
X85875714Y-110275714D02*
X86256666Y-110275714D01*
X86018571Y-109942381D02*
X86018571Y-110799524D01*
X86066190Y-110894762D01*
X86161428Y-110942381D01*
X86256666Y-110942381D01*
X89892572Y-33456571D02*
X90035429Y-33504190D01*
X90083048Y-33551810D01*
X90130667Y-33647048D01*
X90130667Y-33789905D01*
X90083048Y-33885143D01*
X90035429Y-33932762D01*
X89940191Y-33980381D01*
X89559238Y-33980381D01*
X89559238Y-32980381D01*
X89892572Y-32980381D01*
X89987810Y-33028000D01*
X90035429Y-33075619D01*
X90083048Y-33170857D01*
X90083048Y-33266095D01*
X90035429Y-33361333D01*
X89987810Y-33408952D01*
X89892572Y-33456571D01*
X89559238Y-33456571D01*
X90987810Y-33980381D02*
X90987810Y-33456571D01*
X90940191Y-33361333D01*
X90844953Y-33313714D01*
X90654476Y-33313714D01*
X90559238Y-33361333D01*
X90987810Y-33932762D02*
X90892572Y-33980381D01*
X90654476Y-33980381D01*
X90559238Y-33932762D01*
X90511619Y-33837524D01*
X90511619Y-33742286D01*
X90559238Y-33647048D01*
X90654476Y-33599429D01*
X90892572Y-33599429D01*
X90987810Y-33551810D01*
X91416381Y-33932762D02*
X91511619Y-33980381D01*
X91702095Y-33980381D01*
X91797334Y-33932762D01*
X91844953Y-33837524D01*
X91844953Y-33789905D01*
X91797334Y-33694667D01*
X91702095Y-33647048D01*
X91559238Y-33647048D01*
X91464000Y-33599429D01*
X91416381Y-33504190D01*
X91416381Y-33456571D01*
X91464000Y-33361333D01*
X91559238Y-33313714D01*
X91702095Y-33313714D01*
X91797334Y-33361333D01*
X92225905Y-33932762D02*
X92321143Y-33980381D01*
X92511619Y-33980381D01*
X92606858Y-33932762D01*
X92654477Y-33837524D01*
X92654477Y-33789905D01*
X92606858Y-33694667D01*
X92511619Y-33647048D01*
X92368762Y-33647048D01*
X92273524Y-33599429D01*
X92225905Y-33504190D01*
X92225905Y-33456571D01*
X92273524Y-33361333D01*
X92368762Y-33313714D01*
X92511619Y-33313714D01*
X92606858Y-33361333D01*
X93511620Y-33980381D02*
X93511620Y-32980381D01*
X93511620Y-33932762D02*
X93416382Y-33980381D01*
X93225905Y-33980381D01*
X93130667Y-33932762D01*
X93083048Y-33885143D01*
X93035429Y-33789905D01*
X93035429Y-33504190D01*
X93083048Y-33408952D01*
X93130667Y-33361333D01*
X93225905Y-33313714D01*
X93416382Y-33313714D01*
X93511620Y-33361333D01*
X93987810Y-33980381D02*
X93987810Y-33313714D01*
X93987810Y-33504190D02*
X94035429Y-33408952D01*
X94083048Y-33361333D01*
X94178286Y-33313714D01*
X94273525Y-33313714D01*
X95035430Y-33313714D02*
X95035430Y-33980381D01*
X94606858Y-33313714D02*
X94606858Y-33837524D01*
X94654477Y-33932762D01*
X94749715Y-33980381D01*
X94892573Y-33980381D01*
X94987811Y-33932762D01*
X95035430Y-33885143D01*
X95511620Y-33980381D02*
X95511620Y-33313714D01*
X95511620Y-33408952D02*
X95559239Y-33361333D01*
X95654477Y-33313714D01*
X95797335Y-33313714D01*
X95892573Y-33361333D01*
X95940192Y-33456571D01*
X95940192Y-33980381D01*
X95940192Y-33456571D02*
X95987811Y-33361333D01*
X96083049Y-33313714D01*
X96225906Y-33313714D01*
X96321144Y-33361333D01*
X96368763Y-33456571D01*
X96368763Y-33980381D01*
X42410286Y-111450381D02*
X42410286Y-110450381D01*
X42410286Y-110926571D02*
X42981715Y-110926571D01*
X42981715Y-111450381D02*
X42981715Y-110450381D01*
X43457905Y-111450381D02*
X43457905Y-110783714D01*
X43457905Y-110450381D02*
X43410286Y-110498000D01*
X43457905Y-110545619D01*
X43505524Y-110498000D01*
X43457905Y-110450381D01*
X43457905Y-110545619D01*
X43934095Y-111450381D02*
X43934095Y-110450381D01*
X43934095Y-110926571D02*
X44505524Y-110926571D01*
X44505524Y-111450381D02*
X44505524Y-110450381D01*
X45410286Y-111450381D02*
X45410286Y-110926571D01*
X45362667Y-110831333D01*
X45267429Y-110783714D01*
X45076952Y-110783714D01*
X44981714Y-110831333D01*
X45410286Y-111402762D02*
X45315048Y-111450381D01*
X45076952Y-111450381D01*
X44981714Y-111402762D01*
X44934095Y-111307524D01*
X44934095Y-111212286D01*
X44981714Y-111117048D01*
X45076952Y-111069429D01*
X45315048Y-111069429D01*
X45410286Y-111021810D01*
X45743619Y-110783714D02*
X46124571Y-110783714D01*
X45886476Y-110450381D02*
X45886476Y-111307524D01*
X45934095Y-111402762D01*
X46029333Y-111450381D01*
X46124571Y-111450381D01*
X53296428Y-34059762D02*
X53439285Y-34107381D01*
X53677381Y-34107381D01*
X53772619Y-34059762D01*
X53820238Y-34012143D01*
X53867857Y-33916905D01*
X53867857Y-33821667D01*
X53820238Y-33726429D01*
X53772619Y-33678810D01*
X53677381Y-33631190D01*
X53486904Y-33583571D01*
X53391666Y-33535952D01*
X53344047Y-33488333D01*
X53296428Y-33393095D01*
X53296428Y-33297857D01*
X53344047Y-33202619D01*
X53391666Y-33155000D01*
X53486904Y-33107381D01*
X53725000Y-33107381D01*
X53867857Y-33155000D01*
X54296428Y-33440714D02*
X54296428Y-34107381D01*
X54296428Y-33535952D02*
X54344047Y-33488333D01*
X54439285Y-33440714D01*
X54582143Y-33440714D01*
X54677381Y-33488333D01*
X54725000Y-33583571D01*
X54725000Y-34107381D01*
X55629762Y-34107381D02*
X55629762Y-33583571D01*
X55582143Y-33488333D01*
X55486905Y-33440714D01*
X55296428Y-33440714D01*
X55201190Y-33488333D01*
X55629762Y-34059762D02*
X55534524Y-34107381D01*
X55296428Y-34107381D01*
X55201190Y-34059762D01*
X55153571Y-33964524D01*
X55153571Y-33869286D01*
X55201190Y-33774048D01*
X55296428Y-33726429D01*
X55534524Y-33726429D01*
X55629762Y-33678810D01*
X56105952Y-34107381D02*
X56105952Y-33440714D01*
X56105952Y-33631190D02*
X56153571Y-33535952D01*
X56201190Y-33488333D01*
X56296428Y-33440714D01*
X56391667Y-33440714D01*
X57105953Y-34059762D02*
X57010715Y-34107381D01*
X56820238Y-34107381D01*
X56725000Y-34059762D01*
X56677381Y-33964524D01*
X56677381Y-33583571D01*
X56725000Y-33488333D01*
X56820238Y-33440714D01*
X57010715Y-33440714D01*
X57105953Y-33488333D01*
X57153572Y-33583571D01*
X57153572Y-33678810D01*
X56677381Y-33774048D01*
X36068095Y-95083381D02*
X36068095Y-95892905D01*
X36115714Y-95988143D01*
X36163333Y-96035762D01*
X36258571Y-96083381D01*
X36449048Y-96083381D01*
X36544286Y-96035762D01*
X36591905Y-95988143D01*
X36639524Y-95892905D01*
X36639524Y-95083381D01*
X37544286Y-95416714D02*
X37544286Y-96083381D01*
X37306190Y-95035762D02*
X37068095Y-95750048D01*
X37687143Y-95750048D01*
X36322095Y-57364381D02*
X36322095Y-58173905D01*
X36369714Y-58269143D01*
X36417333Y-58316762D01*
X36512571Y-58364381D01*
X36703048Y-58364381D01*
X36798286Y-58316762D01*
X36845905Y-58269143D01*
X36893524Y-58173905D01*
X36893524Y-57364381D01*
X37845905Y-57364381D02*
X37369714Y-57364381D01*
X37322095Y-57840571D01*
X37369714Y-57792952D01*
X37464952Y-57745333D01*
X37703048Y-57745333D01*
X37798286Y-57792952D01*
X37845905Y-57840571D01*
X37893524Y-57935810D01*
X37893524Y-58173905D01*
X37845905Y-58269143D01*
X37798286Y-58316762D01*
X37703048Y-58364381D01*
X37464952Y-58364381D01*
X37369714Y-58316762D01*
X37322095Y-58269143D01*
X88733381Y-50418905D02*
X89542905Y-50418905D01*
X89638143Y-50371286D01*
X89685762Y-50323667D01*
X89733381Y-50228429D01*
X89733381Y-50037952D01*
X89685762Y-49942714D01*
X89638143Y-49895095D01*
X89542905Y-49847476D01*
X88733381Y-49847476D01*
X88733381Y-49466524D02*
X88733381Y-48847476D01*
X89114333Y-49180810D01*
X89114333Y-49037952D01*
X89161952Y-48942714D01*
X89209571Y-48895095D01*
X89304810Y-48847476D01*
X89542905Y-48847476D01*
X89638143Y-48895095D01*
X89685762Y-48942714D01*
X89733381Y-49037952D01*
X89733381Y-49323667D01*
X89685762Y-49418905D01*
X89638143Y-49466524D01*
X112903095Y-92162381D02*
X112903095Y-92971905D01*
X112950714Y-93067143D01*
X112998333Y-93114762D01*
X113093571Y-93162381D01*
X113284048Y-93162381D01*
X113379286Y-93114762D01*
X113426905Y-93067143D01*
X113474524Y-92971905D01*
X113474524Y-92162381D01*
X114379286Y-92162381D02*
X114188809Y-92162381D01*
X114093571Y-92210000D01*
X114045952Y-92257619D01*
X113950714Y-92400476D01*
X113903095Y-92590952D01*
X113903095Y-92971905D01*
X113950714Y-93067143D01*
X113998333Y-93114762D01*
X114093571Y-93162381D01*
X114284048Y-93162381D01*
X114379286Y-93114762D01*
X114426905Y-93067143D01*
X114474524Y-92971905D01*
X114474524Y-92733810D01*
X114426905Y-92638571D01*
X114379286Y-92590952D01*
X114284048Y-92543333D01*
X114093571Y-92543333D01*
X113998333Y-92590952D01*
X113950714Y-92638571D01*
X113903095Y-92733810D01*
X68191143Y-74779143D02*
X68143524Y-74826762D01*
X68000667Y-74874381D01*
X67905429Y-74874381D01*
X67762571Y-74826762D01*
X67667333Y-74731524D01*
X67619714Y-74636286D01*
X67572095Y-74445810D01*
X67572095Y-74302952D01*
X67619714Y-74112476D01*
X67667333Y-74017238D01*
X67762571Y-73922000D01*
X67905429Y-73874381D01*
X68000667Y-73874381D01*
X68143524Y-73922000D01*
X68191143Y-73969619D01*
X69143524Y-74874381D02*
X68572095Y-74874381D01*
X68857809Y-74874381D02*
X68857809Y-73874381D01*
X68762571Y-74017238D01*
X68667333Y-74112476D01*
X68572095Y-74160095D01*
X69524476Y-73969619D02*
X69572095Y-73922000D01*
X69667333Y-73874381D01*
X69905429Y-73874381D01*
X70000667Y-73922000D01*
X70048286Y-73969619D01*
X70095905Y-74064857D01*
X70095905Y-74160095D01*
X70048286Y-74302952D01*
X69476857Y-74874381D01*
X70095905Y-74874381D01*
X74327143Y-89598143D02*
X74279524Y-89645762D01*
X74136667Y-89693381D01*
X74041429Y-89693381D01*
X73898571Y-89645762D01*
X73803333Y-89550524D01*
X73755714Y-89455286D01*
X73708095Y-89264810D01*
X73708095Y-89121952D01*
X73755714Y-88931476D01*
X73803333Y-88836238D01*
X73898571Y-88741000D01*
X74041429Y-88693381D01*
X74136667Y-88693381D01*
X74279524Y-88741000D01*
X74327143Y-88788619D01*
X75279524Y-89693381D02*
X74708095Y-89693381D01*
X74993809Y-89693381D02*
X74993809Y-88693381D01*
X74898571Y-88836238D01*
X74803333Y-88931476D01*
X74708095Y-88979095D01*
X75612857Y-88693381D02*
X76231905Y-88693381D01*
X75898571Y-89074333D01*
X76041429Y-89074333D01*
X76136667Y-89121952D01*
X76184286Y-89169571D01*
X76231905Y-89264810D01*
X76231905Y-89502905D01*
X76184286Y-89598143D01*
X76136667Y-89645762D01*
X76041429Y-89693381D01*
X75755714Y-89693381D01*
X75660476Y-89645762D01*
X75612857Y-89598143D01*
X112768143Y-70334143D02*
X112720524Y-70381762D01*
X112577667Y-70429381D01*
X112482429Y-70429381D01*
X112339571Y-70381762D01*
X112244333Y-70286524D01*
X112196714Y-70191286D01*
X112149095Y-70000810D01*
X112149095Y-69857952D01*
X112196714Y-69667476D01*
X112244333Y-69572238D01*
X112339571Y-69477000D01*
X112482429Y-69429381D01*
X112577667Y-69429381D01*
X112720524Y-69477000D01*
X112768143Y-69524619D01*
X113149095Y-69524619D02*
X113196714Y-69477000D01*
X113291952Y-69429381D01*
X113530048Y-69429381D01*
X113625286Y-69477000D01*
X113672905Y-69524619D01*
X113720524Y-69619857D01*
X113720524Y-69715095D01*
X113672905Y-69857952D01*
X113101476Y-70429381D01*
X113720524Y-70429381D01*
X114577667Y-69762714D02*
X114577667Y-70429381D01*
X114339571Y-69381762D02*
X114101476Y-70096048D01*
X114720524Y-70096048D01*
X80224334Y-76049143D02*
X80176715Y-76096762D01*
X80033858Y-76144381D01*
X79938620Y-76144381D01*
X79795762Y-76096762D01*
X79700524Y-76001524D01*
X79652905Y-75906286D01*
X79605286Y-75715810D01*
X79605286Y-75572952D01*
X79652905Y-75382476D01*
X79700524Y-75287238D01*
X79795762Y-75192000D01*
X79938620Y-75144381D01*
X80033858Y-75144381D01*
X80176715Y-75192000D01*
X80224334Y-75239619D01*
X81129096Y-75144381D02*
X80652905Y-75144381D01*
X80605286Y-75620571D01*
X80652905Y-75572952D01*
X80748143Y-75525333D01*
X80986239Y-75525333D01*
X81081477Y-75572952D01*
X81129096Y-75620571D01*
X81176715Y-75715810D01*
X81176715Y-75953905D01*
X81129096Y-76049143D01*
X81081477Y-76096762D01*
X80986239Y-76144381D01*
X80748143Y-76144381D01*
X80652905Y-76096762D01*
X80605286Y-76049143D01*
M02*
