M48
;DRILL file {KiCad 4.0.2+e4-6225~38~ubuntu14.04.1-stable} date Sa 25 Jun 2016 13:19:57 CEST
;FORMAT={-:-/ absolute / inch / decimal}
FMAT,2
INCH,TZ
T1C0.016
T2C0.028
T3C0.031
T4C0.039
T5C0.040
T6C0.050
T7C0.157
T8C0.197
%
G90
G05
M72
T1
X3.7709Y-1.6914
X4.2398Y-2.6027
T2
X1.285Y-2.8049
X1.685Y-2.8049
X1.81Y-2.6549
X1.81Y-2.8049
X2.21Y-2.6549
X2.21Y-2.8049
X2.3Y-3.4151
X2.3Y-3.6151
X2.3Y-3.8151
X2.3Y-4.0151
X2.335Y-2.8049
X2.7Y-3.4151
X2.7Y-3.6151
X2.7Y-3.8151
X2.7Y-4.0151
X2.735Y-2.8049
X3.165Y-2.7049
X3.165Y-2.8549
X3.565Y-2.7049
X3.565Y-2.8549
X3.865Y-2.7049
X4.265Y-2.7049
X4.565Y-2.7049
X4.965Y-2.7049
T3
X1.3Y-3.465
X1.3Y-3.565
X1.3Y-3.665
X1.3Y-3.765
X1.3Y-3.865
X1.3Y-3.965
X1.3Y-4.065
X1.31Y-1.98
X1.31Y-2.08
X1.31Y-2.18
X1.31Y-2.28
X1.31Y-2.38
X1.31Y-2.48
X1.31Y-2.58
X1.3116Y-3.08
X1.41Y-3.08
X1.6Y-3.465
X1.6Y-3.565
X1.6Y-3.665
X1.6Y-3.765
X1.6Y-3.865
X1.6Y-3.965
X1.6Y-4.065
X1.61Y-1.98
X1.61Y-2.08
X1.61Y-2.18
X1.61Y-2.28
X1.61Y-2.38
X1.61Y-2.48
X1.61Y-2.58
X1.6616Y-3.08
X1.76Y-3.08
X1.775Y-4.04
X1.8734Y-4.04
X2.0116Y-3.08
X2.025Y-4.04
X2.11Y-3.08
X2.1234Y-4.04
X2.3616Y-3.08
X2.46Y-3.08
X2.71Y-3.005
X2.71Y-3.1231
X2.9319Y-3.415
X2.9319Y-3.615
X2.9319Y-3.815
X2.9319Y-4.015
X3.05Y-3.415
X3.05Y-3.615
X3.05Y-3.815
X3.05Y-4.015
X3.165Y-3.08
X3.2103Y-1.8019
X3.2103Y-2.1019
X3.24Y-3.515
X3.24Y-3.79
X3.24Y-4.065
X3.2831Y-3.08
X3.3103Y-1.8019
X3.3103Y-2.1019
X3.3384Y-3.515
X3.3384Y-3.79
X3.3384Y-4.065
X3.4103Y-1.8019
X3.4103Y-2.1019
X3.49Y-3.08
X3.5103Y-1.8019
X3.5103Y-2.1019
X3.6081Y-3.08
X3.6103Y-1.8019
X3.6103Y-2.1019
X3.7103Y-1.8019
X3.7103Y-2.1019
X3.8103Y-1.8019
X3.8103Y-2.1019
X3.815Y-3.08
X3.865Y-3.615
X3.865Y-3.715
X3.865Y-3.815
X3.865Y-3.915
X3.9331Y-3.08
X4.0166Y-1.855
X4.0263Y-2.105
X4.105Y-2.105
X4.115Y-1.855
X4.14Y-3.08
X4.165Y-3.615
X4.165Y-3.715
X4.165Y-3.815
X4.165Y-3.915
X4.2581Y-3.08
X4.315Y-1.805
X4.315Y-2.105
X4.375Y-3.775
X4.415Y-1.805
X4.415Y-2.105
X4.425Y-3.475
X4.465Y-2.855
X4.465Y-3.08
X4.475Y-3.775
X4.515Y-1.805
X4.515Y-2.105
X4.5234Y-3.475
X4.575Y-3.775
X4.5831Y-2.855
X4.5831Y-3.08
X4.615Y-1.805
X4.615Y-2.105
X4.715Y-1.805
X4.715Y-2.105
X4.8Y-3.5
X4.8069Y-3.8
X4.815Y-1.805
X4.815Y-2.105
X4.8166Y-2.98
X4.915Y-1.805
X4.915Y-2.105
X4.915Y-2.98
X4.925Y-3.8
X4.9378Y-3.5
T4
X1.8Y-3.415
X1.8Y-3.615
X1.8Y-3.815
X1.825Y-1.975
X1.825Y-2.15
X1.825Y-2.325
X1.825Y-2.5
X2.1Y-3.415
X2.1Y-3.615
X2.1Y-3.815
X2.125Y-1.975
X2.125Y-2.15
X2.125Y-2.325
X2.125Y-2.5
X2.375Y-1.975
X2.375Y-2.15
X2.375Y-2.325
X2.375Y-2.5
X2.675Y-1.975
X2.675Y-2.15
X2.675Y-2.325
X2.675Y-2.5
X3.1603Y-2.3019
X3.1603Y-2.5019
X3.4603Y-2.3019
X3.4603Y-2.5019
X3.515Y-3.39
X3.515Y-3.69
X3.515Y-3.815
X3.515Y-4.115
X3.665Y-2.305
X3.665Y-2.505
X3.69Y-3.39
X3.69Y-3.69
X3.69Y-3.815
X3.69Y-4.115
X3.915Y-2.855
X3.965Y-2.305
X3.965Y-2.505
X4.165Y-2.305
X4.165Y-2.505
X4.215Y-2.855
X4.465Y-2.305
X4.465Y-2.505
X4.475Y-3.9499
X4.475Y-4.0999
X4.665Y-2.305
X4.665Y-2.505
X4.965Y-2.305
X4.965Y-2.505
T5
X1.92Y-4.36
X2.02Y-4.36
X2.12Y-4.36
X2.22Y-4.36
X2.32Y-4.36
X2.375Y-1.325
X2.42Y-4.36
X2.475Y-1.325
X2.52Y-4.36
X2.575Y-1.325
X2.62Y-4.36
X2.675Y-1.325
X2.72Y-4.36
X2.775Y-1.325
X2.82Y-4.36
X2.875Y-1.325
X2.92Y-4.36
X2.975Y-1.325
X3.02Y-4.36
X3.075Y-1.325
X3.175Y-1.325
X3.275Y-1.325
X3.5Y-4.36
X3.6Y-4.36
X3.7Y-4.36
X3.8Y-4.36
X3.9Y-1.325
X3.9Y-4.36
X4.Y-1.325
X4.1Y-1.325
X4.2Y-1.325
X4.3Y-1.325
X4.4Y-1.325
X4.5Y-1.325
X4.6Y-1.325
X4.68Y-4.36
X4.7Y-1.325
X4.78Y-4.36
X4.8Y-1.325
X4.88Y-4.36
X4.9Y-1.325
X4.98Y-4.36
X5.Y-1.325
T6
X4.875Y-3.9499
X4.875Y-4.0999
T7
X1.32Y-1.32
T8
X1.44Y-4.54
X3.58Y-1.52
X4.26Y-4.54
T0
M30
